<svg width="352.5mm" height="390mm" viewBox="0 0 352.5 390" xmlns="http://www.w3.org/2000/svg" version="1.1" preserveAspectRatio="xMidYMid meet"><g id="svgGroup" stroke-linecap="round" fill-rule="evenodd" font-size="9pt" stroke="#000" stroke-width="0.25mm" fill="none" style="stroke:#000;stroke-width:0.25mm;fill:none"><path d="M 18 389.854 L 18 387 L 32.5 387 L 32.5 389.854 L 32.646 390 L 47.854 390 L 48 389.854 L 48 387 L 62.5 387 L 62.5 389.854 L 62.646 390 L 77.854 390 L 78 389.854 L 78 387 L 92.5 387 L 92.5 389.854 L 92.646 390 L 110.354 390 L 110.5 389.854 L 110.5 375.646 L 110.354 375.5 L 107.5 375.5 L 107.5 361 L 110.354 361 L 110.5 360.854 L 110.5 345.646 L 110.354 345.5 L 107.5 345.5 L 107.5 331 L 110.354 331 L 110.5 330.854 L 110.5 315.646 L 110.354 315.5 L 107.5 315.5 L 107.5 301 L 110.354 301 L 110.5 300.854 L 110.5 285.646 L 110.354 285.5 L 107.5 285.5 L 107.5 271 L 110.354 271 L 110.5 270.854 L 110.5 255.646 L 110.354 255.5 L 107.5 255.5 L 107.5 241 L 110.354 241 L 110.5 240.854 L 110.5 225.646 L 110.354 225.5 L 107.5 225.5 L 107.5 211 L 110.354 211 L 110.5 210.854 L 110.5 196.646 L 110.354 196.5 L 92.646 196.5 L 92.5 196.646 L 92.5 199.5 L 78 199.5 L 78 196.646 L 77.854 196.5 L 62.646 196.5 L 62.5 196.646 L 62.5 199.5 L 48 199.5 L 48 196.646 L 47.854 196.5 L 32.646 196.5 L 32.5 196.646 L 32.5 199.5 L 18 199.5 L 18 196.646 L 17.854 196.5 L 0.146 196.5 L 0 196.646 L 0 210.854 L 0.146 211 L 3 211 L 3 225.5 L 0.146 225.5 L 0 225.646 L 0 240.854 L 0.146 241 L 3 241 L 3 255.5 L 0.146 255.5 L 0 255.646 L 0 270.854 L 0.146 271 L 3 271 L 3 285.5 L 0.146 285.5 L 0 285.646 L 0 300.854 L 0.146 301 L 3 301 L 3 315.5 L 0.146 315.5 L 0 315.646 L 0 330.854 L 0.146 331 L 3 331 L 3 345.5 L 0.146 345.5 L 0 345.646 L 0 360.854 L 0.146 361 L 3 361 L 3 375.5 L 0.146 375.5 L 0 375.646 L 0 389.854 L 0.146 390 L 17.854 390 L 18 389.854 Z" id="front_outsideCutPath" stroke="#FF0000" stroke-width="0.1" style="stroke:#FF0000;stroke-width:0.1" vector-effect="non-scaling-stroke"/><path d="M 71.356 301.597 L 69.564 301.597 L 69.564 293.946 A 5.064 5.064 0 0 0 69.506 293.152 Q 69.369 292.288 68.906 291.788 A 2.02 2.02 0 0 0 68.078 291.259 Q 67.752 291.144 67.352 291.101 A 4.749 4.749 0 0 0 66.845 291.075 A 5.421 5.421 0 0 0 65.83 291.164 Q 64.733 291.373 64.126 292.079 A 2.928 2.928 0 0 0 63.617 292.969 Q 63.31 293.785 63.269 295.003 A 11.475 11.475 0 0 0 63.262 295.392 L 63.262 301.597 L 61.471 301.597 L 61.471 289.77 L 62.928 289.77 L 63.219 291.388 L 63.305 291.388 A 3.627 3.627 0 0 1 64.726 290.096 A 4.362 4.362 0 0 1 64.849 290.034 A 4.851 4.851 0 0 1 66.575 289.574 A 5.865 5.865 0 0 1 67.061 289.554 Q 68.478 289.554 69.43 290.007 A 3.219 3.219 0 0 1 70.276 290.584 Q 71.097 291.368 71.294 292.867 A 7.817 7.817 0 0 1 71.356 293.881 L 71.356 301.597 Z M 36.943 289.77 L 36.943 291.162 L 33.932 291.162 L 33.932 301.597 L 32.141 301.597 L 32.141 291.162 L 30.026 291.162 L 30.026 290.352 L 32.141 289.705 L 32.141 289.047 Q 32.141 285.283 34.98 284.769 A 5.445 5.445 0 0 1 35.95 284.687 Q 36.889 284.687 38.152 285.065 L 37.688 286.5 A 8.699 8.699 0 0 0 37.011 286.31 Q 36.399 286.165 35.918 286.165 A 2.416 2.416 0 0 0 35.336 286.231 A 1.551 1.551 0 0 0 34.418 286.84 A 2.073 2.073 0 0 0 34.144 287.392 Q 33.962 287.932 33.937 288.734 A 8.457 8.457 0 0 0 33.932 289.004 L 33.932 289.77 L 36.943 289.77 Z M 80.474 300.118 L 80.474 301.489 Q 80.211 301.615 79.723 301.703 A 6.699 6.699 0 0 1 79.616 301.721 Q 79.087 301.806 78.657 301.812 A 4.593 4.593 0 0 1 78.596 301.812 A 4.679 4.679 0 0 1 77.218 301.627 Q 75.165 300.993 75.165 298.197 L 75.165 291.162 L 73.471 291.162 L 73.471 290.298 L 75.165 289.554 L 75.92 287.029 L 76.956 287.029 L 76.956 289.77 L 80.388 289.77 L 80.388 291.162 L 76.956 291.162 L 76.956 298.122 A 3.607 3.607 0 0 0 77.008 298.755 Q 77.07 299.103 77.207 299.378 A 1.738 1.738 0 0 0 77.463 299.762 Q 77.97 300.334 78.855 300.334 A 5.883 5.883 0 0 0 79.717 300.272 A 5.422 5.422 0 0 0 79.773 300.264 Q 80.195 300.197 80.45 300.125 A 2.691 2.691 0 0 0 80.474 300.118 Z M 45.91 289.683 L 45.662 291.345 A 7.895 7.895 0 0 0 45.094 291.24 Q 44.811 291.199 44.559 291.188 A 4.201 4.201 0 0 0 44.367 291.183 A 3.104 3.104 0 0 0 42.074 292.174 A 4.246 4.246 0 0 0 41.912 292.349 A 4.091 4.091 0 0 0 40.925 294.646 A 5.437 5.437 0 0 0 40.893 295.251 L 40.893 301.597 L 39.101 301.597 L 39.101 289.77 L 40.58 289.77 L 40.785 291.96 L 40.871 291.96 Q 41.529 290.806 42.457 290.18 A 3.571 3.571 0 0 1 44.497 289.554 A 8.224 8.224 0 0 1 45.233 289.585 A 6.002 6.002 0 0 1 45.91 289.683 Z M 58.166 297.472 A 9.253 9.253 0 0 0 58.331 295.672 A 10.513 10.513 0 0 0 58.327 295.388 Q 58.256 292.772 56.869 291.205 A 4.689 4.689 0 0 0 54.692 289.801 A 6.019 6.019 0 0 0 52.925 289.554 Q 50.356 289.554 48.91 291.167 A 4.949 4.949 0 0 0 48.302 292.01 Q 47.834 292.826 47.627 293.874 A 9.301 9.301 0 0 0 47.464 295.672 A 8.961 8.961 0 0 0 47.577 297.124 A 6.627 6.627 0 0 0 48.133 298.931 A 5.888 5.888 0 0 0 48.264 299.187 A 4.85 4.85 0 0 0 50.033 301.068 A 4.988 4.988 0 0 0 51.177 301.577 A 5.752 5.752 0 0 0 52.849 301.812 A 6.956 6.956 0 0 0 54.064 301.711 A 4.776 4.776 0 0 0 56.874 300.188 Q 57.841 299.11 58.166 297.472 Z M 49.32 295.672 A 9.071 9.071 0 0 0 49.407 296.968 Q 49.502 297.626 49.702 298.159 A 3.758 3.758 0 0 0 50.227 299.125 A 2.936 2.936 0 0 0 52.139 300.252 A 4.449 4.449 0 0 0 52.892 300.312 A 4.161 4.161 0 0 0 53.99 300.176 A 2.896 2.896 0 0 0 55.563 299.131 A 3.845 3.845 0 0 0 56.162 297.965 Q 56.475 297.006 56.475 295.672 A 8.938 8.938 0 0 0 56.39 294.399 Q 56.197 293.06 55.563 292.246 Q 54.651 291.075 52.871 291.075 A 4.263 4.263 0 0 0 51.809 291.2 A 2.853 2.853 0 0 0 50.216 292.23 Q 49.32 293.385 49.32 295.672 Z" id="front_labelLayer" stroke="#777777" fill="#777777" style="stroke:#777777;fill:#777777" vector-effect="non-scaling-stroke"/><path d="M 139 389.854 L 139 387 L 153.5 387 L 153.5 389.854 L 153.646 390 L 168.854 390 L 169 389.854 L 169 387 L 183.5 387 L 183.5 389.854 L 183.646 390 L 198.854 390 L 199 389.854 L 199 387 L 213.5 387 L 213.5 389.854 L 213.646 390 L 235.854 390 L 236 389.854 L 236 376 L 238.854 376 L 239 375.854 L 239 360.646 L 238.854 360.5 L 236 360.5 L 236 346 L 238.854 346 L 239 345.854 L 239 330.646 L 238.854 330.5 L 236 330.5 L 236 316 L 238.854 316 L 239 315.854 L 239 300.646 L 238.854 300.5 L 236 300.5 L 236 286 L 238.854 286 L 239 285.854 L 239 270.646 L 238.854 270.5 L 236 270.5 L 236 256 L 238.854 256 L 239 255.854 L 239 240.646 L 238.854 240.5 L 236 240.5 L 236 226 L 238.854 226 L 239 225.854 L 239 210.646 L 238.854 210.5 L 236 210.5 L 236 196.646 L 235.854 196.5 L 213.646 196.5 L 213.5 196.646 L 213.5 199.5 L 199 199.5 L 199 196.646 L 198.854 196.5 L 183.646 196.5 L 183.5 196.646 L 183.5 199.5 L 169 199.5 L 169 196.646 L 168.854 196.5 L 153.646 196.5 L 153.5 196.646 L 153.5 199.5 L 139 199.5 L 139 196.646 L 138.854 196.5 L 116.646 196.5 L 116.5 196.646 L 116.5 210.5 L 113.646 210.5 L 113.5 210.646 L 113.5 225.854 L 113.646 226 L 116.5 226 L 116.5 240.5 L 113.646 240.5 L 113.5 240.646 L 113.5 255.854 L 113.646 256 L 116.5 256 L 116.5 270.5 L 113.646 270.5 L 113.5 270.646 L 113.5 285.854 L 113.646 286 L 116.5 286 L 116.5 300.5 L 113.646 300.5 L 113.5 300.646 L 113.5 315.854 L 113.646 316 L 116.5 316 L 116.5 330.5 L 113.646 330.5 L 113.5 330.646 L 113.5 345.854 L 113.646 346 L 116.5 346 L 116.5 360.5 L 113.646 360.5 L 113.5 360.646 L 113.5 375.854 L 113.646 376 L 116.5 376 L 116.5 389.854 L 116.646 390 L 138.854 390 L 139 389.854 Z" id="left_outsideCutPath" stroke="#FF0000" stroke-width="0.1" style="stroke:#FF0000;stroke-width:0.1" vector-effect="non-scaling-stroke"/><path d="M 185.178 289.297 L 185.178 290.878 L 181.759 290.878 L 181.759 302.73 L 179.725 302.73 L 179.725 290.878 L 177.322 290.878 L 177.322 289.959 L 179.725 289.224 L 179.725 288.476 A 8.246 8.246 0 0 1 179.917 286.608 Q 180.512 284.059 182.949 283.617 A 6.184 6.184 0 0 1 184.051 283.525 A 6.551 6.551 0 0 1 184.978 283.596 Q 185.429 283.66 185.931 283.784 A 13.17 13.17 0 0 1 186.551 283.954 L 186.024 285.584 Q 184.847 285.204 184.014 285.204 A 2.744 2.744 0 0 0 183.353 285.279 A 1.762 1.762 0 0 0 182.311 285.97 A 2.354 2.354 0 0 0 181.999 286.597 Q 181.793 287.21 181.764 288.121 A 9.605 9.605 0 0 0 181.759 288.427 L 181.759 289.297 L 185.178 289.297 Z M 175.656 295.094 L 175.656 296.381 L 166.402 296.381 A 8.166 8.166 0 0 0 166.545 297.748 Q 166.818 299.129 167.597 299.972 A 3.697 3.697 0 0 0 169.538 301.066 A 5.601 5.601 0 0 0 170.79 301.198 A 10.745 10.745 0 0 0 174.814 300.401 A 12.314 12.314 0 0 0 175.08 300.291 L 175.08 302.105 A 12.214 12.214 0 0 1 173.967 302.525 A 9.34 9.34 0 0 1 173.039 302.773 A 8.541 8.541 0 0 1 172.192 302.903 Q 171.774 302.948 171.303 302.965 A 16.576 16.576 0 0 1 170.716 302.975 A 7.906 7.906 0 0 1 168.738 302.74 A 5.598 5.598 0 0 1 166.016 301.161 A 5.987 5.987 0 0 1 164.584 298.531 Q 164.335 297.598 164.3 296.491 A 11.621 11.621 0 0 1 164.294 296.124 Q 164.294 293.476 165.357 291.717 A 6.025 6.025 0 0 1 165.894 290.964 A 5.213 5.213 0 0 1 169.694 289.069 A 7.192 7.192 0 0 1 170.189 289.052 A 6.198 6.198 0 0 1 171.935 289.286 A 4.716 4.716 0 0 1 174.185 290.713 A 5.689 5.689 0 0 1 175.474 293.312 A 8.28 8.28 0 0 1 175.656 295.094 Z M 193.807 301.051 L 193.807 302.607 Q 193.508 302.751 192.954 302.85 A 7.608 7.608 0 0 1 192.832 302.871 A 8.818 8.818 0 0 1 192.257 302.945 Q 191.947 302.975 191.674 302.975 Q 188.566 302.975 187.936 300.363 A 6.395 6.395 0 0 1 187.777 298.869 L 187.777 290.878 L 185.852 290.878 L 185.852 289.898 L 187.777 289.052 L 188.635 286.184 L 189.811 286.184 L 189.811 289.297 L 193.708 289.297 L 193.708 290.878 L 189.811 290.878 L 189.811 298.783 Q 189.811 299.997 190.387 300.646 A 1.89 1.89 0 0 0 191.549 301.265 A 2.719 2.719 0 0 0 191.968 301.296 A 6.681 6.681 0 0 0 192.947 301.226 A 6.158 6.158 0 0 0 193.01 301.216 A 11.006 11.006 0 0 0 193.304 301.166 Q 193.584 301.113 193.779 301.058 A 3.056 3.056 0 0 0 193.807 301.051 Z M 160.728 283.66 L 160.728 302.73 L 158.693 302.73 L 158.693 283.66 L 160.728 283.66 Z M 166.451 294.727 L 173.474 294.727 A 6.933 6.933 0 0 0 173.39 293.612 Q 173.206 292.483 172.616 291.779 A 2.787 2.787 0 0 0 170.938 290.824 A 4.181 4.181 0 0 0 170.165 290.756 A 4.01 4.01 0 0 0 169.006 290.915 A 3.098 3.098 0 0 0 167.585 291.81 Q 166.715 292.763 166.491 294.379 A 7.686 7.686 0 0 0 166.451 294.727 Z" id="left_labelLayer" stroke="#777777" fill="#777777" style="stroke:#777777;fill:#777777" vector-effect="non-scaling-stroke"/><path d="M 275 389.854 L 275 387 L 289.5 387 L 289.5 389.854 L 289.646 390 L 304.854 390 L 305 389.854 L 305 387 L 319.5 387 L 319.5 389.854 L 319.646 390 L 334.854 390 L 335 389.854 L 335 387 L 349.354 387 L 349.5 386.854 L 349.5 365 L 352.354 365 L 352.5 364.854 L 352.5 349.646 L 352.354 349.5 L 349.5 349.5 L 349.5 335 L 352.354 335 L 352.5 334.854 L 352.5 319.646 L 352.354 319.5 L 349.5 319.5 L 349.5 305 L 352.354 305 L 352.5 304.854 L 352.5 289.646 L 352.354 289.5 L 349.5 289.5 L 349.5 267.646 L 349.354 267.5 L 335 267.5 L 335 264.646 L 334.854 264.5 L 319.646 264.5 L 319.5 264.646 L 319.5 267.5 L 305 267.5 L 305 264.646 L 304.854 264.5 L 289.646 264.5 L 289.5 264.646 L 289.5 267.5 L 275 267.5 L 275 264.646 L 274.854 264.5 L 259.646 264.5 L 259.5 264.646 L 259.5 267.5 L 245.146 267.5 L 245 267.646 L 245 289.5 L 242.146 289.5 L 242 289.646 L 242 304.854 L 242.146 305 L 245 305 L 245 319.5 L 242.146 319.5 L 242 319.646 L 242 334.854 L 242.146 335 L 245 335 L 245 349.5 L 242.146 349.5 L 242 349.646 L 242 364.854 L 242.146 365 L 245 365 L 245 386.854 L 245.146 387 L 259.5 387 L 259.5 389.854 L 259.646 390 L 274.854 390 L 275 389.854 Z" id="top_outsideCutPath" stroke="#FF0000" stroke-width="0.1" style="stroke:#FF0000;stroke-width:0.1" vector-effect="non-scaling-stroke"/><path d="M 305.192 330.358 L 305.063 330.358 A 16.952 16.952 0 0 1 305.174 331.611 A 14.205 14.205 0 0 1 305.192 332.322 L 305.192 337.189 L 303.401 337.189 L 303.401 320.052 L 304.858 320.052 L 305.106 321.671 L 305.192 321.671 A 4.822 4.822 0 0 1 305.889 320.879 A 3.729 3.729 0 0 1 306.8 320.268 A 4.486 4.486 0 0 1 308.086 319.892 A 5.806 5.806 0 0 1 308.904 319.837 A 5.491 5.491 0 0 1 310.455 320.044 A 4.058 4.058 0 0 1 312.535 321.444 A 5.379 5.379 0 0 1 313.453 323.236 Q 313.814 324.413 313.814 325.955 A 10.503 10.503 0 0 1 313.675 327.722 Q 313.514 328.664 313.167 329.419 A 5.035 5.035 0 0 1 312.514 330.482 A 4.241 4.241 0 0 1 309.5 332.067 A 6.076 6.076 0 0 1 308.904 332.095 A 5.433 5.433 0 0 1 307.539 331.929 A 4.728 4.728 0 0 1 306.795 331.669 Q 305.84 331.243 305.192 330.358 Z M 287.689 330.401 L 287.689 331.771 Q 287.426 331.898 286.938 331.985 A 6.699 6.699 0 0 1 286.831 332.003 Q 286.302 332.089 285.872 332.095 A 4.593 4.593 0 0 1 285.811 332.095 A 4.679 4.679 0 0 1 284.433 331.91 Q 282.38 331.276 282.38 328.48 L 282.38 321.444 L 280.686 321.444 L 280.686 320.581 L 282.38 319.837 L 283.135 317.311 L 284.171 317.311 L 284.171 320.052 L 287.603 320.052 L 287.603 321.444 L 284.171 321.444 L 284.171 328.405 A 3.607 3.607 0 0 0 284.223 329.038 Q 284.285 329.386 284.422 329.661 A 1.738 1.738 0 0 0 284.678 330.045 Q 285.186 330.617 286.07 330.617 A 5.883 5.883 0 0 0 286.932 330.555 A 5.422 5.422 0 0 0 286.988 330.547 Q 287.41 330.48 287.665 330.408 A 2.691 2.691 0 0 0 287.689 330.401 Z M 300.096 327.755 A 9.253 9.253 0 0 0 300.261 325.955 A 10.513 10.513 0 0 0 300.257 325.671 Q 300.186 323.054 298.798 321.488 A 4.689 4.689 0 0 0 296.621 320.083 A 6.019 6.019 0 0 0 294.854 319.837 Q 292.286 319.837 290.84 321.45 A 4.949 4.949 0 0 0 290.232 322.293 Q 289.764 323.109 289.557 324.156 A 9.301 9.301 0 0 0 289.394 325.955 A 8.961 8.961 0 0 0 289.507 327.407 A 6.627 6.627 0 0 0 290.063 329.214 A 5.888 5.888 0 0 0 290.193 329.469 A 4.85 4.85 0 0 0 291.962 331.351 A 4.988 4.988 0 0 0 293.107 331.86 A 5.752 5.752 0 0 0 294.779 332.095 A 6.956 6.956 0 0 0 295.993 331.994 A 4.776 4.776 0 0 0 298.804 330.471 Q 299.771 329.393 300.096 327.755 Z M 291.25 325.955 A 9.071 9.071 0 0 0 291.336 327.251 Q 291.432 327.909 291.632 328.442 A 3.758 3.758 0 0 0 292.157 329.408 A 2.936 2.936 0 0 0 294.069 330.534 A 4.449 4.449 0 0 0 294.822 330.595 A 4.161 4.161 0 0 0 295.92 330.459 A 2.896 2.896 0 0 0 297.493 329.414 A 3.845 3.845 0 0 0 298.091 328.247 Q 298.405 327.289 298.405 325.955 A 8.938 8.938 0 0 0 298.32 324.681 Q 298.127 323.343 297.493 322.529 Q 296.581 321.358 294.8 321.358 A 4.263 4.263 0 0 0 293.739 321.482 A 2.853 2.853 0 0 0 292.146 322.513 Q 291.25 323.667 291.25 325.955 Z M 305.192 325.556 L 305.192 325.955 A 11.844 11.844 0 0 0 305.251 327.179 Q 305.413 328.733 306.023 329.522 Q 306.768 330.484 308.319 330.584 A 5.76 5.76 0 0 0 308.688 330.595 A 3.018 3.018 0 0 0 309.862 330.375 Q 310.539 330.092 311.022 329.448 A 3.57 3.57 0 0 0 311.089 329.354 Q 311.775 328.375 311.919 326.811 A 9.543 9.543 0 0 0 311.958 325.933 A 9.039 9.039 0 0 0 311.873 324.652 Q 311.78 324.002 311.584 323.474 A 3.798 3.798 0 0 0 311.089 322.54 A 2.787 2.787 0 0 0 309.051 321.379 A 3.854 3.854 0 0 0 308.645 321.358 Q 307.482 321.358 306.732 321.771 A 2.367 2.367 0 0 0 306.023 322.362 A 3.069 3.069 0 0 0 305.543 323.236 Q 305.24 324.061 305.198 325.281 A 11.401 11.401 0 0 0 305.192 325.556 Z" id="top_labelLayer" stroke="#777777" fill="#777777" style="stroke:#777777;fill:#777777" vector-effect="non-scaling-stroke"/><path d="M 18 193.354 L 18 190.5 L 32.5 190.5 L 32.5 193.354 L 32.646 193.5 L 47.854 193.5 L 48 193.354 L 48 190.5 L 62.5 190.5 L 62.5 193.354 L 62.646 193.5 L 77.854 193.5 L 78 193.354 L 78 190.5 L 92.5 190.5 L 92.5 193.354 L 92.646 193.5 L 110.354 193.5 L 110.5 193.354 L 110.5 179.146 L 110.354 179 L 107.5 179 L 107.5 164.5 L 110.354 164.5 L 110.5 164.354 L 110.5 149.146 L 110.354 149 L 107.5 149 L 107.5 134.5 L 110.354 134.5 L 110.5 134.354 L 110.5 119.146 L 110.354 119 L 107.5 119 L 107.5 104.5 L 110.354 104.5 L 110.5 104.354 L 110.5 89.146 L 110.354 89 L 107.5 89 L 107.5 74.5 L 110.354 74.5 L 110.5 74.354 L 110.5 59.146 L 110.354 59 L 107.5 59 L 107.5 44.5 L 110.354 44.5 L 110.5 44.354 L 110.5 29.146 L 110.354 29 L 107.5 29 L 107.5 14.5 L 110.354 14.5 L 110.5 14.354 L 110.5 0.146 L 110.354 0 L 92.646 0 L 92.5 0.146 L 92.5 3 L 78 3 L 78 0.146 L 77.854 0 L 62.646 0 L 62.5 0.146 L 62.5 3 L 48 3 L 48 0.146 L 47.854 0 L 32.646 0 L 32.5 0.146 L 32.5 3 L 18 3 L 18 0.146 L 17.854 0 L 0.146 0 L 0 0.146 L 0 14.354 L 0.146 14.5 L 3 14.5 L 3 29 L 0.146 29 L 0 29.146 L 0 44.354 L 0.146 44.5 L 3 44.5 L 3 59 L 0.146 59 L 0 59.146 L 0 74.354 L 0.146 74.5 L 3 74.5 L 3 89 L 0.146 89 L 0 89.146 L 0 104.354 L 0.146 104.5 L 3 104.5 L 3 119 L 0.146 119 L 0 119.146 L 0 134.354 L 0.146 134.5 L 3 134.5 L 3 149 L 0.146 149 L 0 149.146 L 0 164.354 L 0.146 164.5 L 3 164.5 L 3 179 L 0.146 179 L 0 179.146 L 0 193.354 L 0.146 193.5 L 17.854 193.5 L 18 193.354 Z" id="back_outsideCutPath" stroke="#FF0000" stroke-width="0.1" style="stroke:#FF0000;stroke-width:0.1" vector-effect="non-scaling-stroke"/><path d="M 70.379 98.984 L 70.465 98.984 Q 70.821 98.48 71.461 97.735 A 38.49 38.49 0 0 1 71.879 97.257 L 75.699 93.21 L 77.825 93.21 L 73.034 98.25 L 78.159 105.037 L 75.99 105.037 L 71.814 99.448 L 70.465 100.613 L 70.465 105.037 L 68.696 105.037 L 68.696 88.247 L 70.465 88.247 L 70.465 97.149 A 11.937 11.937 0 0 1 70.46 97.486 Q 70.444 98.039 70.382 98.939 A 73.915 73.915 0 0 1 70.379 98.984 Z M 34.132 103.516 L 34.002 103.516 L 33.625 105.037 L 32.341 105.037 L 32.341 88.247 L 34.132 88.247 L 34.132 92.326 Q 34.132 93.652 34.051 94.715 A 22.374 22.374 0 0 1 34.046 94.786 L 34.132 94.786 A 4.073 4.073 0 0 1 37.105 93.059 A 6.118 6.118 0 0 1 37.844 93.016 A 5.475 5.475 0 0 1 39.385 93.222 A 4.098 4.098 0 0 1 41.464 94.608 A 5.278 5.278 0 0 1 42.39 96.391 Q 42.618 97.125 42.703 98.005 A 11.498 11.498 0 0 1 42.754 99.113 A 10.503 10.503 0 0 1 42.615 100.88 Q 42.454 101.822 42.107 102.577 A 5.035 5.035 0 0 1 41.454 103.64 A 4.241 4.241 0 0 1 38.44 105.225 A 6.076 6.076 0 0 1 37.844 105.253 A 5.433 5.433 0 0 1 36.479 105.087 A 4.728 4.728 0 0 1 35.734 104.827 Q 34.779 104.401 34.132 103.516 Z M 54.484 105.037 L 53.157 105.037 L 52.8 103.354 L 52.714 103.354 A 7.426 7.426 0 0 1 52.113 104.027 Q 51.53 104.599 50.95 104.859 A 4.131 4.131 0 0 1 50.097 105.129 Q 49.683 105.214 49.203 105.241 A 8.061 8.061 0 0 1 48.754 105.253 A 5.497 5.497 0 0 1 47.635 105.146 Q 46.652 104.942 45.997 104.347 A 2.944 2.944 0 0 1 45.109 102.794 A 4.507 4.507 0 0 1 44.999 101.768 A 3.1 3.1 0 0 1 46.762 98.842 Q 48.177 98.089 50.729 98.012 L 52.736 97.948 L 52.736 97.214 A 5.145 5.145 0 0 0 52.686 96.47 Q 52.563 95.63 52.137 95.158 A 1.818 1.818 0 0 0 51.392 94.672 Q 50.903 94.495 50.221 94.495 A 5.832 5.832 0 0 0 48.879 94.662 Q 48.263 94.808 47.593 95.08 A 11.997 11.997 0 0 0 46.876 95.401 L 46.326 94.031 A 8.259 8.259 0 0 1 47.92 93.375 A 9.401 9.401 0 0 1 48.241 93.286 Q 49.283 93.016 50.329 93.016 Q 51.652 93.016 52.546 93.383 A 3.049 3.049 0 0 1 53.464 93.955 A 2.837 2.837 0 0 1 54.196 95.084 Q 54.484 95.865 54.484 96.966 L 54.484 105.037 Z M 66.063 93.61 L 65.512 95.131 A 7.969 7.969 0 0 0 64.648 94.844 A 9.518 9.518 0 0 0 64.217 94.737 A 7.399 7.399 0 0 0 63.654 94.633 Q 63.38 94.594 63.136 94.584 A 3.971 3.971 0 0 0 62.976 94.581 A 3.973 3.973 0 0 0 61.363 94.884 Q 59.672 95.63 59.417 98.208 A 9.898 9.898 0 0 0 59.372 99.178 A 8.675 8.675 0 0 0 59.458 100.441 Q 59.553 101.082 59.751 101.602 A 3.716 3.716 0 0 0 60.252 102.523 A 2.845 2.845 0 0 0 62.095 103.624 A 4.334 4.334 0 0 0 62.858 103.689 A 7.499 7.499 0 0 0 64.926 103.388 A 9.258 9.258 0 0 0 65.89 103.052 L 65.89 104.638 A 5.095 5.095 0 0 1 64.643 105.079 Q 64.067 105.207 63.398 105.241 A 9.823 9.823 0 0 1 62.901 105.253 A 6.695 6.695 0 0 1 61.272 105.066 A 4.54 4.54 0 0 1 58.924 103.672 Q 57.708 102.307 57.542 99.963 A 10.831 10.831 0 0 1 57.516 99.199 A 9.884 9.884 0 0 1 57.669 97.402 Q 57.984 95.702 58.946 94.613 A 4.638 4.638 0 0 1 61.486 93.153 A 7.032 7.032 0 0 1 63.02 92.995 A 8.084 8.084 0 0 1 64.725 93.178 Q 65.568 93.359 66.052 93.604 A 2.66 2.66 0 0 1 66.063 93.61 Z M 37.585 94.516 A 5.034 5.034 0 0 0 36.61 94.604 Q 35.517 94.82 34.941 95.568 A 3.066 3.066 0 0 0 34.497 96.414 Q 34.132 97.438 34.132 99.113 A 11.844 11.844 0 0 0 34.191 100.337 Q 34.353 101.891 34.963 102.68 Q 35.708 103.642 37.259 103.742 A 5.76 5.76 0 0 0 37.628 103.753 A 3.571 3.571 0 0 0 38.643 103.617 A 2.576 2.576 0 0 0 40.089 102.55 A 4.112 4.112 0 0 0 40.597 101.45 Q 40.898 100.466 40.898 99.092 Q 40.898 96.902 40.171 95.77 A 2.972 2.972 0 0 0 40.089 95.649 A 2.612 2.612 0 0 0 38.426 94.597 A 4.143 4.143 0 0 0 37.585 94.516 Z M 52.693 100.289 L 52.693 99.221 L 50.901 99.297 A 13.153 13.153 0 0 0 49.85 99.373 Q 48.814 99.493 48.164 99.78 A 2.751 2.751 0 0 0 47.82 99.96 Q 46.876 100.548 46.876 101.789 A 2.56 2.56 0 0 0 46.939 102.377 Q 47.069 102.927 47.464 103.268 Q 47.972 103.706 48.83 103.765 A 4.029 4.029 0 0 0 49.11 103.775 A 4.932 4.932 0 0 0 50.175 103.666 Q 51.111 103.46 51.738 102.858 Q 52.693 101.94 52.693 100.289 Z" id="back_labelLayer" stroke="#777777" fill="#777777" style="stroke:#777777;fill:#777777" vector-effect="non-scaling-stroke"/><path d="M 139 193.354 L 139 190.5 L 153.5 190.5 L 153.5 193.354 L 153.646 193.5 L 168.854 193.5 L 169 193.354 L 169 190.5 L 183.5 190.5 L 183.5 193.354 L 183.646 193.5 L 198.854 193.5 L 199 193.354 L 199 190.5 L 213.5 190.5 L 213.5 193.354 L 213.646 193.5 L 235.854 193.5 L 236 193.354 L 236 179.5 L 238.854 179.5 L 239 179.354 L 239 164.146 L 238.854 164 L 236 164 L 236 149.5 L 238.854 149.5 L 239 149.354 L 239 134.146 L 238.854 134 L 236 134 L 236 119.5 L 238.854 119.5 L 239 119.354 L 239 104.146 L 238.854 104 L 236 104 L 236 89.5 L 238.854 89.5 L 239 89.354 L 239 74.146 L 238.854 74 L 236 74 L 236 59.5 L 238.854 59.5 L 239 59.354 L 239 44.146 L 238.854 44 L 236 44 L 236 29.5 L 238.854 29.5 L 239 29.354 L 239 14.146 L 238.854 14 L 236 14 L 236 0.146 L 235.854 0 L 213.646 0 L 213.5 0.146 L 213.5 3 L 199 3 L 199 0.146 L 198.854 0 L 183.646 0 L 183.5 0.146 L 183.5 3 L 169 3 L 169 0.146 L 168.854 0 L 153.646 0 L 153.5 0.146 L 153.5 3 L 139 3 L 139 0.146 L 138.854 0 L 116.646 0 L 116.5 0.146 L 116.5 14 L 113.646 14 L 113.5 14.146 L 113.5 29.354 L 113.646 29.5 L 116.5 29.5 L 116.5 44 L 113.646 44 L 113.5 44.146 L 113.5 59.354 L 113.646 59.5 L 116.5 59.5 L 116.5 74 L 113.646 74 L 113.5 74.146 L 113.5 89.354 L 113.646 89.5 L 116.5 89.5 L 116.5 104 L 113.646 104 L 113.5 104.146 L 113.5 119.354 L 113.646 119.5 L 116.5 119.5 L 116.5 134 L 113.646 134 L 113.5 134.146 L 113.5 149.354 L 113.646 149.5 L 116.5 149.5 L 116.5 164 L 113.646 164 L 113.5 164.146 L 113.5 179.354 L 113.646 179.5 L 116.5 179.5 L 116.5 193.354 L 116.646 193.5 L 138.854 193.5 L 139 193.354 Z" id="right_outsideCutPath" stroke="#FF0000" stroke-width="0.1" style="stroke:#FF0000;stroke-width:0.1" vector-effect="non-scaling-stroke"/><path d="M 191.858 103.27 L 189.823 103.27 L 189.823 94.581 Q 189.823 93.534 189.52 92.826 A 2.42 2.42 0 0 0 189.076 92.129 A 2.294 2.294 0 0 0 188.135 91.529 Q 187.544 91.321 186.735 91.321 A 6.157 6.157 0 0 0 185.584 91.421 Q 184.327 91.66 183.64 92.473 Q 182.749 93.526 182.673 95.809 A 13.13 13.13 0 0 0 182.666 96.247 L 182.666 103.27 L 180.631 103.27 L 180.631 84.2 L 182.666 84.2 L 182.666 89.972 A 18.302 18.302 0 0 1 182.653 90.675 Q 182.641 91.005 182.615 91.288 A 7.958 7.958 0 0 1 182.568 91.701 L 182.69 91.701 A 4.065 4.065 0 0 1 184.114 90.33 A 4.966 4.966 0 0 1 184.4 90.175 A 5.223 5.223 0 0 1 186.114 89.666 A 6.603 6.603 0 0 1 186.931 89.617 A 8.254 8.254 0 0 1 188.318 89.726 Q 189.055 89.852 189.639 90.123 A 3.667 3.667 0 0 1 190.626 90.787 A 3.542 3.542 0 0 1 191.5 92.159 Q 191.858 93.133 191.858 94.507 L 191.858 103.27 Z M 173.229 89.838 L 177.874 89.838 L 177.874 91.124 L 175.386 91.419 A 3.306 3.306 0 0 1 175.672 91.844 Q 175.798 92.064 175.912 92.328 A 6.272 6.272 0 0 1 175.999 92.54 Q 176.268 93.232 176.268 94.103 A 4.664 4.664 0 0 1 176.054 95.549 A 3.772 3.772 0 0 1 174.92 97.252 A 4.512 4.512 0 0 1 173.145 98.187 Q 172.473 98.376 171.676 98.417 A 8.836 8.836 0 0 1 171.219 98.429 A 6.538 6.538 0 0 1 170.462 98.387 A 5.521 5.521 0 0 1 170.091 98.331 A 3.62 3.62 0 0 0 169.508 98.708 Q 168.792 99.286 168.792 100.059 A 1.054 1.054 0 0 0 168.846 100.404 Q 168.948 100.701 169.246 100.874 A 1.427 1.427 0 0 0 169.562 101.004 Q 170.018 101.138 170.802 101.138 L 173.18 101.138 Q 174.635 101.138 175.64 101.546 A 3.677 3.677 0 0 1 176.532 102.057 A 2.976 2.976 0 0 1 177.638 103.953 A 4.47 4.47 0 0 1 177.702 104.728 A 4.405 4.405 0 0 1 177.451 106.252 Q 177.031 107.398 175.913 108.129 A 6.101 6.101 0 0 1 174.34 108.843 Q 173.565 109.078 172.619 109.193 A 16.125 16.125 0 0 1 170.692 109.3 A 11.399 11.399 0 0 1 169.163 109.204 Q 168.387 109.099 167.753 108.878 A 4.728 4.728 0 0 1 166.629 108.319 Q 165.294 107.402 165.207 105.778 A 4.296 4.296 0 0 1 165.201 105.55 Q 165.201 104.324 165.986 103.429 A 3.552 3.552 0 0 1 167.206 102.54 A 5.035 5.035 0 0 1 168.192 102.216 A 2.112 2.112 0 0 1 167.372 101.553 A 2.507 2.507 0 0 1 167.328 101.493 A 1.886 1.886 0 0 1 166.982 100.474 A 2.336 2.336 0 0 1 166.978 100.353 A 2.327 2.327 0 0 1 167.096 99.604 A 2.062 2.062 0 0 1 167.371 99.066 A 2.912 2.912 0 0 1 167.755 98.633 Q 167.96 98.441 168.222 98.254 A 6.391 6.391 0 0 1 168.608 98 A 3.567 3.567 0 0 1 167.059 96.76 A 4.421 4.421 0 0 1 166.911 96.542 A 4.206 4.206 0 0 1 166.266 94.515 A 5.133 5.133 0 0 1 166.255 94.188 A 5.878 5.878 0 0 1 166.41 92.799 A 3.867 3.867 0 0 1 167.579 90.787 Q 168.722 89.755 170.689 89.615 A 8.985 8.985 0 0 1 171.329 89.593 A 7.798 7.798 0 0 1 172.361 89.658 A 5.939 5.939 0 0 1 173.229 89.838 Z M 202.214 101.591 L 202.214 103.147 Q 201.915 103.291 201.361 103.39 A 7.608 7.608 0 0 1 201.24 103.411 A 8.818 8.818 0 0 1 200.665 103.486 Q 200.355 103.515 200.082 103.515 Q 196.973 103.515 196.344 100.903 A 6.395 6.395 0 0 1 196.184 99.409 L 196.184 91.419 L 194.26 91.419 L 194.26 90.438 L 196.184 89.593 L 197.042 86.725 L 198.219 86.725 L 198.219 89.838 L 202.116 89.838 L 202.116 91.419 L 198.219 91.419 L 198.219 99.324 Q 198.219 100.537 198.795 101.187 A 1.89 1.89 0 0 0 199.957 101.805 A 2.719 2.719 0 0 0 200.376 101.836 A 6.681 6.681 0 0 0 201.354 101.766 A 6.158 6.158 0 0 0 201.417 101.756 A 11.006 11.006 0 0 0 201.711 101.706 Q 201.992 101.654 202.187 101.599 A 3.056 3.056 0 0 0 202.214 101.591 Z M 158.019 89.74 L 157.738 91.627 A 8.966 8.966 0 0 0 157.093 91.508 Q 156.645 91.443 156.267 91.443 A 3.525 3.525 0 0 0 153.662 92.568 A 4.823 4.823 0 0 0 153.479 92.767 A 4.646 4.646 0 0 0 152.358 95.375 A 6.175 6.175 0 0 0 152.32 96.064 L 152.32 103.27 L 150.286 103.27 L 150.286 89.838 L 151.965 89.838 L 152.198 92.326 L 152.296 92.326 A 6.87 6.87 0 0 1 153.064 91.228 A 5.248 5.248 0 0 1 154.098 90.303 A 4.056 4.056 0 0 1 156.414 89.593 A 9.34 9.34 0 0 1 157.25 89.628 A 6.817 6.817 0 0 1 158.019 89.74 Z M 162.566 89.838 L 162.566 103.27 L 160.532 103.27 L 160.532 89.838 L 162.566 89.838 Z M 172.53 102.964 L 170.091 102.964 Q 168.707 102.964 167.934 103.625 A 2.144 2.144 0 0 0 167.23 104.841 A 3.255 3.255 0 0 0 167.162 105.525 Q 167.162 106.542 167.962 107.101 A 2.387 2.387 0 0 0 168.081 107.18 A 3.258 3.258 0 0 0 168.883 107.523 Q 169.644 107.743 170.716 107.743 A 13.677 13.677 0 0 0 172.052 107.683 Q 173.624 107.528 174.51 106.977 Q 175.741 106.211 175.741 104.9 A 2.753 2.753 0 0 0 175.691 104.353 Q 175.627 104.039 175.483 103.805 A 1.282 1.282 0 0 0 175.067 103.386 A 1.93 1.93 0 0 0 174.61 103.187 Q 173.884 102.964 172.53 102.964 Z M 168.719 95.875 A 2.177 2.177 0 0 0 169.062 96.272 Q 169.78 96.923 171.005 96.988 A 5.238 5.238 0 0 0 171.28 96.995 Q 173.631 96.995 174.126 95.193 A 4.121 4.121 0 0 0 174.258 94.103 A 4.375 4.375 0 0 0 174.109 92.905 Q 173.726 91.561 172.36 91.205 A 4.425 4.425 0 0 0 171.243 91.075 Q 169.81 91.075 169.037 91.848 Q 168.382 92.503 168.283 93.696 A 5.352 5.352 0 0 0 168.265 94.139 Q 168.265 95.203 168.719 95.875 Z M 160.36 86.198 Q 160.36 85.499 160.703 85.174 A 1.176 1.176 0 0 1 161.459 84.853 A 1.553 1.553 0 0 1 161.561 84.849 A 1.199 1.199 0 0 1 162.407 85.18 A 1.027 1.027 0 0 1 162.678 85.612 Q 162.762 85.863 162.762 86.198 A 2.105 2.105 0 0 1 162.729 86.583 Q 162.689 86.798 162.601 86.964 A 0.993 0.993 0 0 1 162.407 87.221 A 1.187 1.187 0 0 1 161.561 87.558 A 1.292 1.292 0 0 1 161.116 87.484 A 1.141 1.141 0 0 1 160.703 87.221 A 1.05 1.05 0 0 1 160.447 86.801 Q 160.391 86.633 160.371 86.427 A 2.402 2.402 0 0 1 160.36 86.198 Z" id="right_labelLayer" stroke="#777777" fill="#777777" style="stroke:#777777;fill:#777777" vector-effect="non-scaling-stroke"/><path d="M 275 261.354 L 275 258.5 L 289.5 258.5 L 289.5 261.354 L 289.646 261.5 L 304.854 261.5 L 305 261.354 L 305 258.5 L 319.5 258.5 L 319.5 261.354 L 319.646 261.5 L 334.854 261.5 L 335 261.354 L 335 258.5 L 349.354 258.5 L 349.5 258.354 L 349.5 236.5 L 352.354 236.5 L 352.5 236.354 L 352.5 221.146 L 352.354 221 L 349.5 221 L 349.5 206.5 L 352.354 206.5 L 352.5 206.354 L 352.5 191.146 L 352.354 191 L 349.5 191 L 349.5 176.5 L 352.354 176.5 L 352.5 176.354 L 352.5 161.146 L 352.354 161 L 349.5 161 L 349.5 139.146 L 349.354 139 L 335 139 L 335 136.146 L 334.854 136 L 319.646 136 L 319.5 136.146 L 319.5 139 L 305 139 L 305 136.146 L 304.854 136 L 289.646 136 L 289.5 136.146 L 289.5 139 L 275 139 L 275 136.146 L 274.854 136 L 259.646 136 L 259.5 136.146 L 259.5 139 L 245.146 139 L 245 139.146 L 245 161 L 242.146 161 L 242 161.146 L 242 176.354 L 242.146 176.5 L 245 176.5 L 245 191 L 242.146 191 L 242 191.146 L 242 206.354 L 242.146 206.5 L 245 206.5 L 245 221 L 242.146 221 L 242 221.146 L 242 236.354 L 242.146 236.5 L 245 236.5 L 245 258.354 L 245.146 258.5 L 259.5 258.5 L 259.5 261.354 L 259.646 261.5 L 274.854 261.5 L 275 261.354 Z" id="bottom_outsideCutPath" stroke="#FF0000" stroke-width="0.1" style="stroke:#FF0000;stroke-width:0.1" vector-effect="non-scaling-stroke"/><path d="M 333.605 207.037 L 331.814 207.037 L 331.814 199.343 A 5.284 5.284 0 0 0 331.76 198.566 Q 331.701 198.169 331.576 197.849 A 2.165 2.165 0 0 0 331.209 197.223 A 1.885 1.885 0 0 0 330.333 196.656 Q 329.899 196.516 329.332 196.516 A 4.609 4.609 0 0 0 328.394 196.605 Q 327.836 196.721 327.416 196.988 A 2.372 2.372 0 0 0 326.86 197.476 A 2.96 2.96 0 0 0 326.358 198.385 Q 326.062 199.217 326.062 200.433 L 326.062 207.037 L 324.271 207.037 L 324.271 199.343 A 5.284 5.284 0 0 0 324.217 198.566 Q 324.158 198.169 324.033 197.849 A 2.165 2.165 0 0 0 323.666 197.223 Q 323.143 196.611 322.111 196.529 A 4.195 4.195 0 0 0 321.778 196.516 A 4.449 4.449 0 0 0 320.858 196.605 Q 319.862 196.816 319.312 197.525 Q 318.53 198.534 318.53 200.832 L 318.53 207.037 L 316.739 207.037 L 316.739 195.21 L 318.195 195.21 L 318.487 196.829 L 318.573 196.829 A 3.521 3.521 0 0 1 320.003 195.48 A 4.253 4.253 0 0 1 321.683 195.009 A 5.137 5.137 0 0 1 322.069 194.994 A 5.865 5.865 0 0 1 323.389 195.132 Q 325.066 195.52 325.695 197.002 L 325.781 197.002 A 3.74 3.74 0 0 1 327.19 195.603 A 4.493 4.493 0 0 1 327.314 195.534 A 4.534 4.534 0 0 1 328.977 195.028 A 5.653 5.653 0 0 1 329.601 194.994 A 6.227 6.227 0 0 1 330.731 195.09 Q 331.359 195.206 331.849 195.463 A 2.952 2.952 0 0 1 332.607 196.025 A 3.085 3.085 0 0 1 333.269 197.108 Q 333.447 197.586 333.531 198.181 A 8.216 8.216 0 0 1 333.605 199.322 L 333.605 207.037 Z M 262.686 205.516 L 262.557 205.516 L 262.179 207.037 L 260.895 207.037 L 260.895 190.246 L 262.686 190.246 L 262.686 194.325 Q 262.686 195.652 262.605 196.715 A 22.374 22.374 0 0 1 262.6 196.786 L 262.686 196.786 A 4.073 4.073 0 0 1 265.659 195.059 A 6.118 6.118 0 0 1 266.398 195.016 A 5.475 5.475 0 0 1 267.939 195.222 A 4.098 4.098 0 0 1 270.019 196.608 A 5.278 5.278 0 0 1 270.944 198.39 Q 271.172 199.125 271.257 200.005 A 11.498 11.498 0 0 1 271.308 201.113 A 10.503 10.503 0 0 1 271.169 202.88 Q 271.008 203.822 270.661 204.577 A 5.035 5.035 0 0 1 270.008 205.64 A 4.241 4.241 0 0 1 266.994 207.225 A 6.076 6.076 0 0 1 266.398 207.253 A 5.433 5.433 0 0 1 265.033 207.087 A 4.728 4.728 0 0 1 264.289 206.827 Q 263.334 206.401 262.686 205.516 Z M 293.225 205.559 L 293.225 206.929 Q 292.962 207.056 292.474 207.143 A 6.699 6.699 0 0 1 292.367 207.161 Q 291.838 207.247 291.408 207.253 A 4.593 4.593 0 0 1 291.347 207.253 A 4.679 4.679 0 0 1 289.968 207.067 Q 287.916 206.434 287.916 203.638 L 287.916 196.602 L 286.222 196.602 L 286.222 195.739 L 287.916 194.994 L 288.671 192.469 L 289.707 192.469 L 289.707 195.21 L 293.139 195.21 L 293.139 196.602 L 289.707 196.602 L 289.707 203.563 A 3.607 3.607 0 0 0 289.759 204.196 Q 289.821 204.544 289.957 204.819 A 1.738 1.738 0 0 0 290.214 205.203 Q 290.721 205.775 291.606 205.775 A 5.883 5.883 0 0 0 292.468 205.713 A 5.422 5.422 0 0 0 292.523 205.705 Q 292.946 205.638 293.201 205.566 A 2.691 2.691 0 0 0 293.225 205.559 Z M 301.027 205.559 L 301.027 206.929 Q 300.764 207.056 300.276 207.143 A 6.699 6.699 0 0 1 300.169 207.161 Q 299.64 207.247 299.21 207.253 A 4.593 4.593 0 0 1 299.149 207.253 A 4.679 4.679 0 0 1 297.77 207.067 Q 295.718 206.434 295.718 203.638 L 295.718 196.602 L 294.023 196.602 L 294.023 195.739 L 295.718 194.994 L 296.473 192.469 L 297.509 192.469 L 297.509 195.21 L 300.94 195.21 L 300.94 196.602 L 297.509 196.602 L 297.509 203.563 A 3.607 3.607 0 0 0 297.561 204.196 Q 297.623 204.544 297.759 204.819 A 1.738 1.738 0 0 0 298.016 205.203 Q 298.523 205.775 299.408 205.775 A 5.883 5.883 0 0 0 300.27 205.713 A 5.422 5.422 0 0 0 300.325 205.705 Q 300.748 205.638 301.003 205.566 A 2.691 2.691 0 0 0 301.027 205.559 Z M 284.482 202.913 A 9.253 9.253 0 0 0 284.646 201.113 A 10.513 10.513 0 0 0 284.642 200.829 Q 284.571 198.212 283.184 196.645 A 4.689 4.689 0 0 0 281.007 195.241 A 6.019 6.019 0 0 0 279.24 194.994 Q 276.671 194.994 275.225 196.608 A 4.949 4.949 0 0 0 274.618 197.451 Q 274.149 198.267 273.943 199.314 A 9.301 9.301 0 0 0 273.779 201.113 A 8.961 8.961 0 0 0 273.892 202.564 A 6.627 6.627 0 0 0 274.449 204.372 A 5.888 5.888 0 0 0 274.579 204.627 A 4.85 4.85 0 0 0 276.348 206.508 A 4.988 4.988 0 0 0 277.493 207.018 A 5.752 5.752 0 0 0 279.164 207.253 A 6.956 6.956 0 0 0 280.379 207.152 A 4.776 4.776 0 0 0 283.189 205.629 Q 284.157 204.551 284.482 202.913 Z M 313.434 202.913 A 9.253 9.253 0 0 0 313.598 201.113 A 10.513 10.513 0 0 0 313.595 200.829 Q 313.524 198.212 312.136 196.645 A 4.689 4.689 0 0 0 309.959 195.241 A 6.019 6.019 0 0 0 308.192 194.994 Q 305.624 194.994 304.178 196.608 A 4.949 4.949 0 0 0 303.57 197.451 Q 303.102 198.267 302.895 199.314 A 9.301 9.301 0 0 0 302.732 201.113 A 8.961 8.961 0 0 0 302.844 202.564 A 6.627 6.627 0 0 0 303.401 204.372 A 5.888 5.888 0 0 0 303.531 204.627 A 4.85 4.85 0 0 0 305.3 206.508 A 4.988 4.988 0 0 0 306.445 207.018 A 5.752 5.752 0 0 0 308.117 207.253 A 6.956 6.956 0 0 0 309.331 207.152 A 4.776 4.776 0 0 0 312.142 205.629 Q 313.109 204.551 313.434 202.913 Z M 275.636 201.113 A 9.071 9.071 0 0 0 275.722 202.409 Q 275.817 203.067 276.017 203.6 A 3.758 3.758 0 0 0 276.542 204.566 A 2.936 2.936 0 0 0 278.454 205.692 A 4.449 4.449 0 0 0 279.207 205.753 A 4.161 4.161 0 0 0 280.305 205.617 A 2.896 2.896 0 0 0 281.878 204.571 A 3.845 3.845 0 0 0 282.477 203.405 Q 282.79 202.447 282.79 201.113 A 8.938 8.938 0 0 0 282.705 199.839 Q 282.512 198.501 281.878 197.687 Q 280.966 196.516 279.186 196.516 A 4.263 4.263 0 0 0 278.124 196.64 A 2.853 2.853 0 0 0 276.531 197.671 Q 275.636 198.825 275.636 201.113 Z M 304.588 201.113 A 9.071 9.071 0 0 0 304.674 202.409 Q 304.769 203.067 304.97 203.6 A 3.758 3.758 0 0 0 305.494 204.566 A 2.936 2.936 0 0 0 307.406 205.692 A 4.449 4.449 0 0 0 308.16 205.753 A 4.161 4.161 0 0 0 309.257 205.617 A 2.896 2.896 0 0 0 310.83 204.571 A 3.845 3.845 0 0 0 311.429 203.405 Q 311.742 202.447 311.742 201.113 A 8.938 8.938 0 0 0 311.658 199.839 Q 311.464 198.501 310.83 197.687 Q 309.919 196.516 308.138 196.516 A 4.263 4.263 0 0 0 307.077 196.64 A 2.853 2.853 0 0 0 305.483 197.671 Q 304.588 198.825 304.588 201.113 Z M 266.139 196.516 A 5.034 5.034 0 0 0 265.165 196.604 Q 264.071 196.82 263.496 197.568 A 3.066 3.066 0 0 0 263.052 198.414 Q 262.686 199.438 262.686 201.113 A 11.844 11.844 0 0 0 262.745 202.337 Q 262.907 203.891 263.517 204.679 Q 264.262 205.642 265.814 205.742 A 5.76 5.76 0 0 0 266.183 205.753 A 3.571 3.571 0 0 0 267.197 205.617 A 2.576 2.576 0 0 0 268.643 204.55 A 4.112 4.112 0 0 0 269.152 203.449 Q 269.452 202.466 269.452 201.091 Q 269.452 198.902 268.725 197.77 A 2.972 2.972 0 0 0 268.643 197.649 A 2.612 2.612 0 0 0 266.98 196.597 A 4.143 4.143 0 0 0 266.139 196.516 Z" id="bottom_labelLayer" stroke="#777777" fill="#777777" style="stroke:#777777;fill:#777777" vector-effect="non-scaling-stroke"/></g></svg>