999
"DXF R12 Output" (www.mydxf.blogspot.com)
 0 
SECTION
 2 
HEADER
 9 
$ACADVER
 1 
AC1009
 9 
$EXTMIN
 10 
 0 
 20 
 0 
 9 
$EXTMAX
 10 
 8.5 
 20 
 11 
 0 
ENDSEC
 0 
SECTION
 2 
ENTITIES
0
LINE
8
Layer 1
10
695.359000
20
148.292000
11
695.359000
21
151.233000
0
LINE
8
Layer 1
10
695.359000
20
151.233000
11
680.559000
21
151.233000
0
LINE
8
Layer 1
10
680.559000
20
151.233000
11
680.559000
21
148.292000
0
LINE
8
Layer 1
10
680.559000
20
148.292000
11
680.500000
21
148.233000
0
LINE
8
Layer 1
10
680.500000
20
148.233000
11
665.418000
21
148.233000
0
LINE
8
Layer 1
10
665.418000
20
148.233000
11
665.359000
21
148.292000
0
LINE
8
Layer 1
10
665.359000
20
148.292000
11
665.359000
21
151.233000
0
LINE
8
Layer 1
10
665.359000
20
151.233000
11
650.559000
21
151.233000
0
LINE
8
Layer 1
10
650.559000
20
151.233000
11
650.559000
21
148.292000
0
LINE
8
Layer 1
10
650.559000
20
148.292000
11
650.500000
21
148.233000
0
LINE
8
Layer 1
10
650.500000
20
148.233000
11
635.418000
21
148.233000
0
LINE
8
Layer 1
10
635.418000
20
148.233000
11
635.359000
21
148.292000
0
LINE
8
Layer 1
10
635.359000
20
148.292000
11
635.359000
21
151.233000
0
LINE
8
Layer 1
10
635.359000
20
151.233000
11
620.918000
21
151.233000
0
LINE
8
Layer 1
10
620.918000
20
151.233000
11
620.859000
21
151.292000
0
LINE
8
Layer 1
10
620.859000
20
151.292000
11
620.859000
21
173.233000
0
LINE
8
Layer 1
10
620.859000
20
173.233000
11
617.918000
21
173.233000
0
LINE
8
Layer 1
10
617.918000
20
173.233000
11
617.859000
21
173.292000
0
LINE
8
Layer 1
10
617.859000
20
173.292000
11
617.859000
21
188.374000
0
LINE
8
Layer 1
10
617.859000
20
188.374000
11
617.918000
21
188.433000
0
LINE
8
Layer 1
10
617.918000
20
188.433000
11
620.859000
21
188.433000
0
LINE
8
Layer 1
10
620.859000
20
188.433000
11
620.859000
21
203.233000
0
LINE
8
Layer 1
10
620.859000
20
203.233000
11
617.918000
21
203.233000
0
LINE
8
Layer 1
10
617.918000
20
203.233000
11
617.859000
21
203.292000
0
LINE
8
Layer 1
10
617.859000
20
203.292000
11
617.859000
21
218.374000
0
LINE
8
Layer 1
10
617.859000
20
218.374000
11
617.918000
21
218.433000
0
LINE
8
Layer 1
10
617.918000
20
218.433000
11
620.859000
21
218.433000
0
LINE
8
Layer 1
10
620.859000
20
218.433000
11
620.859000
21
233.233000
0
LINE
8
Layer 1
10
620.859000
20
233.233000
11
617.918000
21
233.233000
0
LINE
8
Layer 1
10
617.918000
20
233.233000
11
617.859000
21
233.292000
0
LINE
8
Layer 1
10
617.859000
20
233.292000
11
617.859000
21
248.374000
0
LINE
8
Layer 1
10
617.859000
20
248.374000
11
617.918000
21
248.433000
0
LINE
8
Layer 1
10
617.918000
20
248.433000
11
620.859000
21
248.433000
0
LINE
8
Layer 1
10
620.859000
20
248.433000
11
620.859000
21
270.374000
0
LINE
8
Layer 1
10
620.859000
20
270.374000
11
620.918000
21
270.433000
0
LINE
8
Layer 1
10
620.918000
20
270.433000
11
635.359000
21
270.433000
0
LINE
8
Layer 1
10
635.359000
20
270.433000
11
635.359000
21
273.374000
0
LINE
8
Layer 1
10
635.359000
20
273.374000
11
635.418000
21
273.433000
0
LINE
8
Layer 1
10
635.418000
20
273.433000
11
650.500000
21
273.433000
0
LINE
8
Layer 1
10
650.500000
20
273.433000
11
650.559000
21
273.374000
0
LINE
8
Layer 1
10
650.559000
20
273.374000
11
650.559000
21
270.433000
0
LINE
8
Layer 1
10
650.559000
20
270.433000
11
665.359000
21
270.433000
0
LINE
8
Layer 1
10
665.359000
20
270.433000
11
665.359000
21
273.374000
0
LINE
8
Layer 1
10
665.359000
20
273.374000
11
665.418000
21
273.433000
0
LINE
8
Layer 1
10
665.418000
20
273.433000
11
680.500000
21
273.433000
0
LINE
8
Layer 1
10
680.500000
20
273.433000
11
680.559000
21
273.374000
0
LINE
8
Layer 1
10
680.559000
20
273.374000
11
680.559000
21
270.433000
0
LINE
8
Layer 1
10
680.559000
20
270.433000
11
695.359000
21
270.433000
0
LINE
8
Layer 1
10
695.359000
20
270.433000
11
695.359000
21
273.374000
0
LINE
8
Layer 1
10
695.359000
20
273.374000
11
695.418000
21
273.433000
0
LINE
8
Layer 1
10
695.418000
20
273.433000
11
710.500000
21
273.433000
0
LINE
8
Layer 1
10
710.500000
20
273.433000
11
710.559000
21
273.374000
0
LINE
8
Layer 1
10
710.559000
20
273.374000
11
710.559000
21
270.433000
0
LINE
8
Layer 1
10
710.559000
20
270.433000
11
725.000000
21
270.433000
0
LINE
8
Layer 1
10
725.000000
20
270.433000
11
725.059000
21
270.374000
0
LINE
8
Layer 1
10
725.059000
20
270.374000
11
725.059000
21
248.433000
0
LINE
8
Layer 1
10
725.059000
20
248.433000
11
728.000000
21
248.433000
0
LINE
8
Layer 1
10
728.000000
20
248.433000
11
728.059000
21
248.374000
0
LINE
8
Layer 1
10
728.059000
20
248.374000
11
728.059000
21
233.292000
0
LINE
8
Layer 1
10
728.059000
20
233.292000
11
728.000000
21
233.233000
0
LINE
8
Layer 1
10
728.000000
20
233.233000
11
725.059000
21
233.233000
0
LINE
8
Layer 1
10
725.059000
20
233.233000
11
725.059000
21
218.433000
0
LINE
8
Layer 1
10
725.059000
20
218.433000
11
728.000000
21
218.433000
0
LINE
8
Layer 1
10
728.000000
20
218.433000
11
728.059000
21
218.374000
0
LINE
8
Layer 1
10
728.059000
20
218.374000
11
728.059000
21
203.292000
0
LINE
8
Layer 1
10
728.059000
20
203.292000
11
728.000000
21
203.233000
0
LINE
8
Layer 1
10
728.000000
20
203.233000
11
725.059000
21
203.233000
0
LINE
8
Layer 1
10
725.059000
20
203.233000
11
725.059000
21
188.433000
0
LINE
8
Layer 1
10
725.059000
20
188.433000
11
728.000000
21
188.433000
0
LINE
8
Layer 1
10
728.000000
20
188.433000
11
728.059000
21
188.374000
0
LINE
8
Layer 1
10
728.059000
20
188.374000
11
728.059000
21
173.292000
0
LINE
8
Layer 1
10
728.059000
20
173.292000
11
728.000000
21
173.233000
0
LINE
8
Layer 1
10
728.000000
20
173.233000
11
725.059000
21
173.233000
0
LINE
8
Layer 1
10
725.059000
20
173.233000
11
725.059000
21
151.292000
0
LINE
8
Layer 1
10
725.059000
20
151.292000
11
725.000000
21
151.233000
0
LINE
8
Layer 1
10
725.000000
20
151.233000
11
710.559000
21
151.233000
0
LINE
8
Layer 1
10
710.559000
20
151.233000
11
710.559000
21
148.292000
0
LINE
8
Layer 1
10
710.559000
20
148.292000
11
710.500000
21
148.233000
0
LINE
8
Layer 1
10
710.500000
20
148.233000
11
695.418000
21
148.233000
0
LINE
8
Layer 1
10
695.418000
20
148.233000
11
695.359000
21
148.292000
0
LINE
8
Layer 1
10
15.710800
20
31.548100
11
18.651800
21
31.548100
0
LINE
8
Layer 1
10
18.651800
20
31.548100
11
18.651800
21
46.348100
0
LINE
8
Layer 1
10
18.651800
20
46.348100
11
15.710800
21
46.348100
0
LINE
8
Layer 1
10
15.710800
20
46.348100
11
15.651800
21
46.407100
0
LINE
8
Layer 1
10
15.651800
20
46.407100
11
15.651800
21
61.489100
0
LINE
8
Layer 1
10
15.651800
20
61.489100
11
15.710800
21
61.548100
0
LINE
8
Layer 1
10
15.710800
20
61.548100
11
18.651800
21
61.548100
0
LINE
8
Layer 1
10
18.651800
20
61.548100
11
18.651800
21
76.348100
0
LINE
8
Layer 1
10
18.651800
20
76.348100
11
15.710800
21
76.348100
0
LINE
8
Layer 1
10
15.710800
20
76.348100
11
15.651800
21
76.407100
0
LINE
8
Layer 1
10
15.651800
20
76.407100
11
15.651800
21
91.489100
0
LINE
8
Layer 1
10
15.651800
20
91.489100
11
15.710800
21
91.548100
0
LINE
8
Layer 1
10
15.710800
20
91.548100
11
18.651800
21
91.548100
0
LINE
8
Layer 1
10
18.651800
20
91.548100
11
18.651800
21
106.348100
0
LINE
8
Layer 1
10
18.651800
20
106.348100
11
15.710800
21
106.348100
0
LINE
8
Layer 1
10
15.710800
20
106.348100
11
15.651800
21
106.407100
0
LINE
8
Layer 1
10
15.651800
20
106.407100
11
15.651800
21
123.989100
0
LINE
8
Layer 1
10
15.651800
20
123.989100
11
15.710800
21
124.048100
0
LINE
8
Layer 1
10
15.710800
20
124.048100
11
29.792800
21
124.048100
0
LINE
8
Layer 1
10
29.792800
20
124.048100
11
29.851800
21
123.989100
0
LINE
8
Layer 1
10
29.851800
20
123.989100
11
29.851800
21
121.048100
0
LINE
8
Layer 1
10
29.851800
20
121.048100
11
44.651800
21
121.048100
0
LINE
8
Layer 1
10
44.651800
20
121.048100
11
44.651800
21
123.989100
0
LINE
8
Layer 1
10
44.651800
20
123.989100
11
44.710800
21
124.048100
0
LINE
8
Layer 1
10
44.710800
20
124.048100
11
59.792800
21
124.048100
0
LINE
8
Layer 1
10
59.792800
20
124.048100
11
59.851800
21
123.989100
0
LINE
8
Layer 1
10
59.851800
20
123.989100
11
59.851800
21
121.048100
0
LINE
8
Layer 1
10
59.851800
20
121.048100
11
74.651800
21
121.048100
0
LINE
8
Layer 1
10
74.651800
20
121.048100
11
74.651800
21
123.989100
0
LINE
8
Layer 1
10
74.651800
20
123.989100
11
74.710800
21
124.048100
0
LINE
8
Layer 1
10
74.710800
20
124.048100
11
89.792800
21
124.048100
0
LINE
8
Layer 1
10
89.792800
20
124.048100
11
89.851800
21
123.989100
0
LINE
8
Layer 1
10
89.851800
20
123.989100
11
89.851800
21
121.048100
0
LINE
8
Layer 1
10
89.851800
20
121.048100
11
104.651800
21
121.048100
0
LINE
8
Layer 1
10
104.651800
20
121.048100
11
104.651800
21
123.989100
0
LINE
8
Layer 1
10
104.651800
20
123.989100
11
104.710800
21
124.048100
0
LINE
8
Layer 1
10
104.710800
20
124.048100
11
119.792800
21
124.048100
0
LINE
8
Layer 1
10
119.792800
20
124.048100
11
119.851800
21
123.989100
0
LINE
8
Layer 1
10
119.851800
20
123.989100
11
119.851800
21
121.048100
0
LINE
8
Layer 1
10
119.851800
20
121.048100
11
134.651800
21
121.048100
0
LINE
8
Layer 1
10
134.651800
20
121.048100
11
134.651800
21
123.989100
0
LINE
8
Layer 1
10
134.651800
20
123.989100
11
134.710800
21
124.048100
0
LINE
8
Layer 1
10
134.710800
20
124.048100
11
149.792800
21
124.048100
0
LINE
8
Layer 1
10
149.792800
20
124.048100
11
149.851800
21
123.989100
0
LINE
8
Layer 1
10
149.851800
20
123.989100
11
149.851800
21
121.048100
0
LINE
8
Layer 1
10
149.851800
20
121.048100
11
164.651800
21
121.048100
0
LINE
8
Layer 1
10
164.651800
20
121.048100
11
164.651800
21
123.989100
0
LINE
8
Layer 1
10
164.651800
20
123.989100
11
164.710800
21
124.048100
0
LINE
8
Layer 1
10
164.710800
20
124.048100
11
179.792800
21
124.048100
0
LINE
8
Layer 1
10
179.792800
20
124.048100
11
179.851800
21
123.989100
0
LINE
8
Layer 1
10
179.851800
20
123.989100
11
179.851800
21
121.048100
0
LINE
8
Layer 1
10
179.851800
20
121.048100
11
194.651800
21
121.048100
0
LINE
8
Layer 1
10
194.651800
20
121.048100
11
194.651800
21
123.989100
0
LINE
8
Layer 1
10
194.651800
20
123.989100
11
194.710800
21
124.048100
0
LINE
8
Layer 1
10
194.710800
20
124.048100
11
208.792800
21
124.048100
0
LINE
8
Layer 1
10
208.792800
20
124.048100
11
208.851800
21
123.989100
0
LINE
8
Layer 1
10
208.851800
20
123.989100
11
208.851800
21
106.407100
0
LINE
8
Layer 1
10
208.851800
20
106.407100
11
208.792800
21
106.348100
0
LINE
8
Layer 1
10
208.792800
20
106.348100
11
202.852000
21
106.348100
0
LINE
8
Layer 1
10
202.852000
20
106.348100
11
202.852000
21
91.548100
0
LINE
8
Layer 1
10
202.852000
20
91.548100
11
208.792770
21
91.548100
0
LINE
8
Layer 1
10
208.792770
20
91.548100
11
208.851770
21
91.489100
0
LINE
8
Layer 1
10
208.851770
20
91.489100
11
208.851770
21
76.407100
0
LINE
8
Layer 1
10
208.851770
20
76.407100
11
208.792770
21
76.348100
0
LINE
8
Layer 1
10
208.792770
20
76.348100
11
202.852000
21
76.348100
0
LINE
8
Layer 1
10
202.852000
20
76.348100
11
202.852000
21
61.548100
0
LINE
8
Layer 1
10
202.852000
20
61.548100
11
208.792770
21
61.548100
0
LINE
8
Layer 1
10
208.792770
20
61.548100
11
208.851770
21
61.489100
0
LINE
8
Layer 1
10
208.851770
20
61.489100
11
208.851770
21
46.407100
0
LINE
8
Layer 1
10
208.851770
20
46.407100
11
208.792770
21
46.348100
0
LINE
8
Layer 1
10
208.792770
20
46.348100
11
202.852000
21
46.348100
0
LINE
8
Layer 1
10
202.852000
20
46.348100
11
202.852000
21
31.548100
0
LINE
8
Layer 1
10
202.852000
20
31.548100
11
208.792770
21
31.548100
0
LINE
8
Layer 1
10
208.792770
20
31.548100
11
208.851770
21
31.489100
0
LINE
8
Layer 1
10
208.851770
20
31.489100
11
208.851770
21
13.907100
0
LINE
8
Layer 1
10
208.851770
20
13.907100
11
208.792770
21
13.848100
0
LINE
8
Layer 1
10
208.792770
20
13.848100
11
194.710770
21
13.848100
0
LINE
8
Layer 1
10
194.710770
20
13.848100
11
194.651770
21
13.907100
0
LINE
8
Layer 1
10
194.651770
20
13.907100
11
194.651770
21
16.848100
0
LINE
8
Layer 1
10
194.651770
20
16.848100
11
179.851770
21
16.848100
0
LINE
8
Layer 1
10
179.851770
20
16.848100
11
179.851770
21
13.907100
0
LINE
8
Layer 1
10
179.851770
20
13.907100
11
179.792770
21
13.848100
0
LINE
8
Layer 1
10
179.792770
20
13.848100
11
164.710770
21
13.848100
0
LINE
8
Layer 1
10
164.710770
20
13.848100
11
164.651770
21
13.907100
0
LINE
8
Layer 1
10
164.651770
20
13.907100
11
164.651770
21
16.848100
0
LINE
8
Layer 1
10
164.651770
20
16.848100
11
149.851770
21
16.848100
0
LINE
8
Layer 1
10
149.851770
20
16.848100
11
149.851770
21
13.907100
0
LINE
8
Layer 1
10
149.851770
20
13.907100
11
149.792770
21
13.848100
0
LINE
8
Layer 1
10
149.792770
20
13.848100
11
134.710770
21
13.848100
0
LINE
8
Layer 1
10
134.710770
20
13.848100
11
134.651770
21
13.907100
0
LINE
8
Layer 1
10
134.651770
20
13.907100
11
134.651770
21
16.848100
0
LINE
8
Layer 1
10
134.651770
20
16.848100
11
119.851770
21
16.848100
0
LINE
8
Layer 1
10
119.851770
20
16.848100
11
119.851770
21
13.907100
0
LINE
8
Layer 1
10
119.851770
20
13.907100
11
119.792770
21
13.848100
0
LINE
8
Layer 1
10
119.792770
20
13.848100
11
104.710770
21
13.848100
0
LINE
8
Layer 1
10
104.710770
20
13.848100
11
104.651770
21
13.907100
0
LINE
8
Layer 1
10
104.651770
20
13.907100
11
104.651770
21
16.848100
0
LINE
8
Layer 1
10
104.651770
20
16.848100
11
89.851800
21
16.848100
0
LINE
8
Layer 1
10
89.851800
20
16.848100
11
89.851800
21
13.907100
0
LINE
8
Layer 1
10
89.851800
20
13.907100
11
89.792800
21
13.848100
0
LINE
8
Layer 1
10
89.792800
20
13.848100
11
74.710800
21
13.848100
0
LINE
8
Layer 1
10
74.710800
20
13.848100
11
74.651800
21
13.907100
0
LINE
8
Layer 1
10
74.651800
20
13.907100
11
74.651800
21
16.848100
0
LINE
8
Layer 1
10
74.651800
20
16.848100
11
59.851800
21
16.848100
0
LINE
8
Layer 1
10
59.851800
20
16.848100
11
59.851800
21
13.907100
0
LINE
8
Layer 1
10
59.851800
20
13.907100
11
59.792800
21
13.848100
0
LINE
8
Layer 1
10
59.792800
20
13.848100
11
44.710800
21
13.848100
0
LINE
8
Layer 1
10
44.710800
20
13.848100
11
44.651800
21
13.907100
0
LINE
8
Layer 1
10
44.651800
20
13.907100
11
44.651800
21
16.848100
0
LINE
8
Layer 1
10
44.651800
20
16.848100
11
29.851800
21
16.848100
0
LINE
8
Layer 1
10
29.851800
20
16.848100
11
29.851800
21
13.907100
0
LINE
8
Layer 1
10
29.851800
20
13.907100
11
29.792800
21
13.848100
0
LINE
8
Layer 1
10
29.792800
20
13.848100
11
15.710800
21
13.848100
0
LINE
8
Layer 1
10
15.710800
20
13.848100
11
15.651800
21
13.907100
0
LINE
8
Layer 1
10
15.651800
20
13.907100
11
15.651800
21
31.489100
0
LINE
8
Layer 1
10
15.651800
20
31.489100
11
15.710800
21
31.548100
0
LINE
8
Layer 1
10
12.525400
20
286.535000
11
15.466400
21
286.535000
0
LINE
8
Layer 1
10
15.466400
20
286.535000
11
15.466400
21
301.335000
0
LINE
8
Layer 1
10
15.466400
20
301.335000
11
12.525400
21
301.335000
0
LINE
8
Layer 1
10
12.525400
20
301.335000
11
12.466400
21
301.394000
0
LINE
8
Layer 1
10
12.466400
20
301.394000
11
12.466400
21
316.476000
0
LINE
8
Layer 1
10
12.466400
20
316.476000
11
12.525400
21
316.535000
0
LINE
8
Layer 1
10
12.525400
20
316.535000
11
15.466400
21
316.535000
0
LINE
8
Layer 1
10
15.466400
20
316.535000
11
15.466400
21
331.335000
0
LINE
8
Layer 1
10
15.466400
20
331.335000
11
12.525400
21
331.335000
0
LINE
8
Layer 1
10
12.525400
20
331.335000
11
12.466400
21
331.394000
0
LINE
8
Layer 1
10
12.466400
20
331.394000
11
12.466400
21
346.476000
0
LINE
8
Layer 1
10
12.466400
20
346.476000
11
12.525400
21
346.535000
0
LINE
8
Layer 1
10
12.525400
20
346.535000
11
15.466400
21
346.535000
0
LINE
8
Layer 1
10
15.466400
20
346.535000
11
15.466400
21
361.335000
0
LINE
8
Layer 1
10
15.466400
20
361.335000
11
12.525400
21
361.335000
0
LINE
8
Layer 1
10
12.525400
20
361.335000
11
12.466400
21
361.394000
0
LINE
8
Layer 1
10
12.466400
20
361.394000
11
12.466400
21
383.476000
0
LINE
8
Layer 1
10
12.466400
20
383.476000
11
12.525400
21
383.535000
0
LINE
8
Layer 1
10
12.525400
20
383.535000
11
26.466400
21
383.535000
0
LINE
8
Layer 1
10
26.466400
20
383.535000
11
26.466400
21
386.476000
0
LINE
8
Layer 1
10
26.466400
20
386.476000
11
26.525400
21
386.535000
0
LINE
8
Layer 1
10
26.525400
20
386.535000
11
41.607400
21
386.535000
0
LINE
8
Layer 1
10
41.607400
20
386.535000
11
41.666400
21
386.476000
0
LINE
8
Layer 1
10
41.666400
20
386.476000
11
41.666400
21
383.535000
0
LINE
8
Layer 1
10
41.666400
20
383.535000
11
56.466400
21
383.535000
0
LINE
8
Layer 1
10
56.466400
20
383.535000
11
56.466400
21
386.476000
0
LINE
8
Layer 1
10
56.466400
20
386.476000
11
56.525400
21
386.535000
0
LINE
8
Layer 1
10
56.525400
20
386.535000
11
71.607400
21
386.535000
0
LINE
8
Layer 1
10
71.607400
20
386.535000
11
71.666400
21
386.476000
0
LINE
8
Layer 1
10
71.666400
20
386.476000
11
71.666400
21
383.535000
0
LINE
8
Layer 1
10
71.666400
20
383.535000
11
86.466400
21
383.535000
0
LINE
8
Layer 1
10
86.466400
20
383.535000
11
86.466400
21
386.476000
0
LINE
8
Layer 1
10
86.466400
20
386.476000
11
86.525400
21
386.535000
0
LINE
8
Layer 1
10
86.525400
20
386.535000
11
101.607400
21
386.535000
0
LINE
8
Layer 1
10
101.607400
20
386.535000
11
101.666400
21
386.476000
0
LINE
8
Layer 1
10
101.666400
20
386.476000
11
101.666400
21
383.535000
0
LINE
8
Layer 1
10
101.666400
20
383.535000
11
116.466400
21
383.535000
0
LINE
8
Layer 1
10
116.466400
20
383.535000
11
116.466400
21
386.476000
0
LINE
8
Layer 1
10
116.466400
20
386.476000
11
116.525400
21
386.535000
0
LINE
8
Layer 1
10
116.525400
20
386.535000
11
131.607400
21
386.535000
0
LINE
8
Layer 1
10
131.607400
20
386.535000
11
131.666400
21
386.476000
0
LINE
8
Layer 1
10
131.666400
20
386.476000
11
131.666400
21
383.535000
0
LINE
8
Layer 1
10
131.666400
20
383.535000
11
146.466400
21
383.535000
0
LINE
8
Layer 1
10
146.466400
20
383.535000
11
146.466400
21
386.476000
0
LINE
8
Layer 1
10
146.466400
20
386.476000
11
146.525400
21
386.535000
0
LINE
8
Layer 1
10
146.525400
20
386.535000
11
161.607400
21
386.535000
0
LINE
8
Layer 1
10
161.607400
20
386.535000
11
161.666400
21
386.476000
0
LINE
8
Layer 1
10
161.666400
20
386.476000
11
161.666400
21
383.535000
0
LINE
8
Layer 1
10
161.666400
20
383.535000
11
176.466400
21
383.535000
0
LINE
8
Layer 1
10
176.466400
20
383.535000
11
176.466400
21
386.476000
0
LINE
8
Layer 1
10
176.466400
20
386.476000
11
176.525400
21
386.535000
0
LINE
8
Layer 1
10
176.525400
20
386.535000
11
191.607400
21
386.535000
0
LINE
8
Layer 1
10
191.607400
20
386.535000
11
191.666400
21
386.476000
0
LINE
8
Layer 1
10
191.666400
20
386.476000
11
191.666400
21
383.535000
0
LINE
8
Layer 1
10
191.666400
20
383.535000
11
205.607400
21
383.535000
0
LINE
8
Layer 1
10
205.607400
20
383.535000
11
205.666400
21
383.476000
0
LINE
8
Layer 1
10
205.666400
20
383.476000
11
205.666400
21
361.394000
0
LINE
8
Layer 1
10
205.666400
20
361.394000
11
205.607400
21
361.335000
0
LINE
8
Layer 1
10
205.607400
20
361.335000
11
199.666000
21
361.335000
0
LINE
8
Layer 1
10
199.666000
20
361.335000
11
199.666000
21
346.535000
0
LINE
8
Layer 1
10
199.666000
20
346.535000
11
205.607450
21
346.535000
0
LINE
8
Layer 1
10
205.607450
20
346.535000
11
205.666450
21
346.476000
0
LINE
8
Layer 1
10
205.666450
20
346.476000
11
205.666450
21
331.394000
0
LINE
8
Layer 1
10
205.666450
20
331.394000
11
205.607450
21
331.335000
0
LINE
8
Layer 1
10
205.607450
20
331.335000
11
199.666000
21
331.335000
0
LINE
8
Layer 1
10
199.666000
20
331.335000
11
199.666000
21
316.535000
0
LINE
8
Layer 1
10
199.666000
20
316.535000
11
205.607450
21
316.535000
0
LINE
8
Layer 1
10
205.607450
20
316.535000
11
205.666450
21
316.476000
0
LINE
8
Layer 1
10
205.666450
20
316.476000
11
205.666450
21
301.394000
0
LINE
8
Layer 1
10
205.666450
20
301.394000
11
205.607450
21
301.335000
0
LINE
8
Layer 1
10
205.607450
20
301.335000
11
199.666000
21
301.335000
0
LINE
8
Layer 1
10
199.666000
20
301.335000
11
199.666000
21
286.535000
0
LINE
8
Layer 1
10
199.666000
20
286.535000
11
205.607450
21
286.535000
0
LINE
8
Layer 1
10
205.607450
20
286.535000
11
205.666450
21
286.476000
0
LINE
8
Layer 1
10
205.666450
20
286.476000
11
205.666450
21
264.394000
0
LINE
8
Layer 1
10
205.666450
20
264.394000
11
205.607450
21
264.335000
0
LINE
8
Layer 1
10
205.607450
20
264.335000
11
191.666450
21
264.335000
0
LINE
8
Layer 1
10
191.666450
20
264.335000
11
191.666450
21
261.394000
0
LINE
8
Layer 1
10
191.666450
20
261.394000
11
191.607450
21
261.335000
0
LINE
8
Layer 1
10
191.607450
20
261.335000
11
176.525450
21
261.335000
0
LINE
8
Layer 1
10
176.525450
20
261.335000
11
176.466450
21
261.394000
0
LINE
8
Layer 1
10
176.466450
20
261.394000
11
176.466450
21
264.335000
0
LINE
8
Layer 1
10
176.466450
20
264.335000
11
161.666450
21
264.335000
0
LINE
8
Layer 1
10
161.666450
20
264.335000
11
161.666450
21
261.394000
0
LINE
8
Layer 1
10
161.666450
20
261.394000
11
161.607450
21
261.335000
0
LINE
8
Layer 1
10
161.607450
20
261.335000
11
146.525450
21
261.335000
0
LINE
8
Layer 1
10
146.525450
20
261.335000
11
146.466450
21
261.394000
0
LINE
8
Layer 1
10
146.466450
20
261.394000
11
146.466450
21
264.335000
0
LINE
8
Layer 1
10
146.466450
20
264.335000
11
131.666450
21
264.335000
0
LINE
8
Layer 1
10
131.666450
20
264.335000
11
131.666450
21
261.394000
0
LINE
8
Layer 1
10
131.666450
20
261.394000
11
131.607450
21
261.335000
0
LINE
8
Layer 1
10
131.607450
20
261.335000
11
116.525450
21
261.335000
0
LINE
8
Layer 1
10
116.525450
20
261.335000
11
116.466450
21
261.394000
0
LINE
8
Layer 1
10
116.466450
20
261.394000
11
116.466450
21
264.335000
0
LINE
8
Layer 1
10
116.466450
20
264.335000
11
101.666450
21
264.335000
0
LINE
8
Layer 1
10
101.666450
20
264.335000
11
101.666450
21
261.394000
0
LINE
8
Layer 1
10
101.666450
20
261.394000
11
101.607450
21
261.335000
0
LINE
8
Layer 1
10
101.607450
20
261.335000
11
86.525500
21
261.335000
0
LINE
8
Layer 1
10
86.525500
20
261.335000
11
86.466500
21
261.394000
0
LINE
8
Layer 1
10
86.466500
20
261.394000
11
86.466500
21
264.335000
0
LINE
8
Layer 1
10
86.466500
20
264.335000
11
71.666500
21
264.335000
0
LINE
8
Layer 1
10
71.666500
20
264.335000
11
71.666500
21
261.394000
0
LINE
8
Layer 1
10
71.666500
20
261.394000
11
71.607500
21
261.335000
0
LINE
8
Layer 1
10
71.607500
20
261.335000
11
56.525500
21
261.335000
0
LINE
8
Layer 1
10
56.525500
20
261.335000
11
56.466500
21
261.394000
0
LINE
8
Layer 1
10
56.466500
20
261.394000
11
56.466500
21
264.335000
0
LINE
8
Layer 1
10
56.466500
20
264.335000
11
41.666500
21
264.335000
0
LINE
8
Layer 1
10
41.666500
20
264.335000
11
41.666500
21
261.394000
0
LINE
8
Layer 1
10
41.666500
20
261.394000
11
41.607500
21
261.335000
0
LINE
8
Layer 1
10
41.607500
20
261.335000
11
26.525500
21
261.335000
0
LINE
8
Layer 1
10
26.525500
20
261.335000
11
26.466500
21
261.394000
0
LINE
8
Layer 1
10
26.466500
20
261.394000
11
26.466500
21
264.335000
0
LINE
8
Layer 1
10
26.466500
20
264.335000
11
12.525500
21
264.335000
0
LINE
8
Layer 1
10
12.525500
20
264.335000
11
12.466500
21
264.394000
0
LINE
8
Layer 1
10
12.466500
20
264.394000
11
12.466500
21
286.476000
0
LINE
8
Layer 1
10
12.466500
20
286.476000
11
12.525400
21
286.535000
0
LINE
8
Layer 1
10
672.839000
20
192.465000
11
670.026231
21
192.700499
0
LINE
8
Layer 1
10
670.026231
20
192.700499
11
667.282750
21
193.364160
0
LINE
8
Layer 1
10
667.282750
20
193.364160
11
655.489650
21
205.157260
0
LINE
8
Layer 1
10
655.489650
20
205.157260
11
654.816446
21
207.959922
0
LINE
8
Layer 1
10
654.816446
20
207.959922
11
654.589960
21
210.833390
0
LINE
8
Layer 1
10
654.589960
20
210.833390
11
654.816404
21
213.707127
0
LINE
8
Layer 1
10
654.816404
20
213.707127
11
655.489650
21
216.510050
0
LINE
8
Layer 1
10
655.489650
20
216.510050
11
667.283250
21
228.303650
0
LINE
8
Layer 1
10
667.283250
20
228.303650
11
670.085696
21
228.976292
0
LINE
8
Layer 1
10
670.085696
20
228.976292
11
672.958860
21
229.202310
0
LINE
8
Layer 1
10
672.958860
20
229.202310
11
675.832322
21
228.976088
0
LINE
8
Layer 1
10
675.832322
20
228.976088
11
678.635020
21
228.303150
0
LINE
8
Layer 1
10
678.635020
20
228.303150
11
690.428620
21
216.509550
0
LINE
8
Layer 1
10
690.428620
20
216.509550
11
691.101556
21
213.706867
0
LINE
8
Layer 1
10
691.101556
20
213.706867
11
691.327780
21
210.833420
0
LINE
8
Layer 1
10
691.327780
20
210.833420
11
691.101336
21
207.959683
0
LINE
8
Layer 1
10
691.101336
20
207.959683
11
690.428090
21
205.156760
0
LINE
8
Layer 1
10
690.428090
20
205.156760
11
678.635000
21
193.363000
0
LINE
8
Layer 1
10
678.635000
20
193.363000
11
675.832282
21
192.690320
0
LINE
8
Layer 1
10
675.832282
20
192.690320
11
672.958840
21
192.464350
0
LINE
8
Layer 1
10
672.958840
20
192.464350
11
672.838950
21
192.464350
0
LINE
8
Layer 1
10
672.838950
20
192.464350
11
672.839000
21
192.465000
0
LINE
8
Layer 1
10
397.804000
20
35.029200
11
400.658000
21
35.029200
0
LINE
8
Layer 1
10
400.658000
20
35.029200
11
400.658000
21
49.529200
0
LINE
8
Layer 1
10
400.658000
20
49.529200
11
397.804000
21
49.529200
0
LINE
8
Layer 1
10
397.804000
20
49.529200
11
397.658000
21
49.675200
0
LINE
8
Layer 1
10
397.658000
20
49.675200
11
397.658000
21
64.883200
0
LINE
8
Layer 1
10
397.658000
20
64.883200
11
397.804000
21
65.029200
0
LINE
8
Layer 1
10
397.804000
20
65.029200
11
400.658000
21
65.029200
0
LINE
8
Layer 1
10
400.658000
20
65.029200
11
400.658000
21
79.529200
0
LINE
8
Layer 1
10
400.658000
20
79.529200
11
397.804000
21
79.529200
0
LINE
8
Layer 1
10
397.804000
20
79.529200
11
397.658000
21
79.675200
0
LINE
8
Layer 1
10
397.658000
20
79.675200
11
397.658000
21
94.883200
0
LINE
8
Layer 1
10
397.658000
20
94.883200
11
397.804000
21
95.029200
0
LINE
8
Layer 1
10
397.804000
20
95.029200
11
400.658000
21
95.029200
0
LINE
8
Layer 1
10
400.658000
20
95.029200
11
400.658000
21
109.529200
0
LINE
8
Layer 1
10
400.658000
20
109.529200
11
397.804000
21
109.529200
0
LINE
8
Layer 1
10
397.804000
20
109.529200
11
397.658000
21
109.675200
0
LINE
8
Layer 1
10
397.658000
20
109.675200
11
397.658000
21
131.883200
0
LINE
8
Layer 1
10
397.658000
20
131.883200
11
397.804000
21
132.029200
0
LINE
8
Layer 1
10
397.804000
20
132.029200
11
411.658000
21
132.029200
0
LINE
8
Layer 1
10
411.658000
20
132.029200
11
411.658000
21
134.883200
0
LINE
8
Layer 1
10
411.658000
20
134.883200
11
411.804000
21
135.029200
0
LINE
8
Layer 1
10
411.804000
20
135.029200
11
427.012000
21
135.029200
0
LINE
8
Layer 1
10
427.012000
20
135.029200
11
427.158000
21
134.883200
0
LINE
8
Layer 1
10
427.158000
20
134.883200
11
427.158000
21
132.029200
0
LINE
8
Layer 1
10
427.158000
20
132.029200
11
441.658000
21
132.029200
0
LINE
8
Layer 1
10
441.658000
20
132.029200
11
441.658000
21
134.883200
0
LINE
8
Layer 1
10
441.658000
20
134.883200
11
441.804000
21
135.029200
0
LINE
8
Layer 1
10
441.804000
20
135.029200
11
457.012000
21
135.029200
0
LINE
8
Layer 1
10
457.012000
20
135.029200
11
457.158000
21
134.883200
0
LINE
8
Layer 1
10
457.158000
20
134.883200
11
457.158000
21
132.029200
0
LINE
8
Layer 1
10
457.158000
20
132.029200
11
471.658000
21
132.029200
0
LINE
8
Layer 1
10
471.658000
20
132.029200
11
471.658000
21
134.883200
0
LINE
8
Layer 1
10
471.658000
20
134.883200
11
471.804000
21
135.029200
0
LINE
8
Layer 1
10
471.804000
20
135.029200
11
487.012000
21
135.029200
0
LINE
8
Layer 1
10
487.012000
20
135.029200
11
487.158000
21
134.883200
0
LINE
8
Layer 1
10
487.158000
20
134.883200
11
487.158000
21
132.029200
0
LINE
8
Layer 1
10
487.158000
20
132.029200
11
501.658000
21
132.029200
0
LINE
8
Layer 1
10
501.658000
20
132.029200
11
501.658000
21
134.883200
0
LINE
8
Layer 1
10
501.658000
20
134.883200
11
501.804000
21
135.029200
0
LINE
8
Layer 1
10
501.804000
20
135.029200
11
517.012000
21
135.029200
0
LINE
8
Layer 1
10
517.012000
20
135.029200
11
517.158000
21
134.883200
0
LINE
8
Layer 1
10
517.158000
20
134.883200
11
517.158000
21
132.029200
0
LINE
8
Layer 1
10
517.158000
20
132.029200
11
531.658000
21
132.029200
0
LINE
8
Layer 1
10
531.658000
20
132.029200
11
531.658000
21
134.883200
0
LINE
8
Layer 1
10
531.658000
20
134.883200
11
531.804000
21
135.029200
0
LINE
8
Layer 1
10
531.804000
20
135.029200
11
547.012000
21
135.029200
0
LINE
8
Layer 1
10
547.012000
20
135.029200
11
547.158000
21
134.883200
0
LINE
8
Layer 1
10
547.158000
20
134.883200
11
547.158000
21
132.029200
0
LINE
8
Layer 1
10
547.158000
20
132.029200
11
561.658000
21
132.029200
0
LINE
8
Layer 1
10
561.658000
20
132.029200
11
561.658000
21
134.883200
0
LINE
8
Layer 1
10
561.658000
20
134.883200
11
561.804000
21
135.029200
0
LINE
8
Layer 1
10
561.804000
20
135.029200
11
577.012000
21
135.029200
0
LINE
8
Layer 1
10
577.012000
20
135.029200
11
577.158000
21
134.883200
0
LINE
8
Layer 1
10
577.158000
20
134.883200
11
577.158000
21
132.029200
0
LINE
8
Layer 1
10
577.158000
20
132.029200
11
591.012000
21
132.029200
0
LINE
8
Layer 1
10
591.012000
20
132.029200
11
591.158000
21
131.883200
0
LINE
8
Layer 1
10
591.158000
20
131.883200
11
591.158000
21
109.675200
0
LINE
8
Layer 1
10
591.158000
20
109.675200
11
591.012000
21
109.529200
0
LINE
8
Layer 1
10
591.012000
20
109.529200
11
585.158000
21
109.529200
0
LINE
8
Layer 1
10
585.158000
20
109.529200
11
585.158000
21
95.029200
0
LINE
8
Layer 1
10
585.158000
20
95.029200
11
591.012000
21
95.029200
0
LINE
8
Layer 1
10
591.012000
20
95.029200
11
591.158000
21
94.883200
0
LINE
8
Layer 1
10
591.158000
20
94.883200
11
591.158000
21
79.675200
0
LINE
8
Layer 1
10
591.158000
20
79.675200
11
591.012000
21
79.529200
0
LINE
8
Layer 1
10
591.012000
20
79.529200
11
585.158000
21
79.529200
0
LINE
8
Layer 1
10
585.158000
20
79.529200
11
585.158000
21
65.029200
0
LINE
8
Layer 1
10
585.158000
20
65.029200
11
591.012000
21
65.029200
0
LINE
8
Layer 1
10
591.012000
20
65.029200
11
591.158000
21
64.883200
0
LINE
8
Layer 1
10
591.158000
20
64.883200
11
591.158000
21
49.675200
0
LINE
8
Layer 1
10
591.158000
20
49.675200
11
591.012000
21
49.529200
0
LINE
8
Layer 1
10
591.012000
20
49.529200
11
585.158000
21
49.529200
0
LINE
8
Layer 1
10
585.158000
20
49.529200
11
585.158000
21
35.029200
0
LINE
8
Layer 1
10
585.158000
20
35.029200
11
591.012000
21
35.029200
0
LINE
8
Layer 1
10
591.012000
20
35.029200
11
591.158000
21
34.883200
0
LINE
8
Layer 1
10
591.158000
20
34.883200
11
591.158000
21
12.675200
0
LINE
8
Layer 1
10
591.158000
20
12.675200
11
591.012000
21
12.529200
0
LINE
8
Layer 1
10
591.012000
20
12.529200
11
577.158000
21
12.529200
0
LINE
8
Layer 1
10
577.158000
20
12.529200
11
577.158000
21
9.675200
0
LINE
8
Layer 1
10
577.158000
20
9.675200
11
577.012000
21
9.529200
0
LINE
8
Layer 1
10
577.012000
20
9.529200
11
561.804000
21
9.529200
0
LINE
8
Layer 1
10
561.804000
20
9.529200
11
561.658000
21
9.675200
0
LINE
8
Layer 1
10
561.658000
20
9.675200
11
561.658000
21
12.529200
0
LINE
8
Layer 1
10
561.658000
20
12.529200
11
547.158000
21
12.529200
0
LINE
8
Layer 1
10
547.158000
20
12.529200
11
547.158000
21
9.675200
0
LINE
8
Layer 1
10
547.158000
20
9.675200
11
547.012000
21
9.529200
0
LINE
8
Layer 1
10
547.012000
20
9.529200
11
531.804000
21
9.529200
0
LINE
8
Layer 1
10
531.804000
20
9.529200
11
531.658000
21
9.675200
0
LINE
8
Layer 1
10
531.658000
20
9.675200
11
531.658000
21
12.529200
0
LINE
8
Layer 1
10
531.658000
20
12.529200
11
517.158000
21
12.529200
0
LINE
8
Layer 1
10
517.158000
20
12.529200
11
517.158000
21
9.675200
0
LINE
8
Layer 1
10
517.158000
20
9.675200
11
517.012000
21
9.529200
0
LINE
8
Layer 1
10
517.012000
20
9.529200
11
501.804000
21
9.529200
0
LINE
8
Layer 1
10
501.804000
20
9.529200
11
501.658000
21
9.675200
0
LINE
8
Layer 1
10
501.658000
20
9.675200
11
501.658000
21
12.529200
0
LINE
8
Layer 1
10
501.658000
20
12.529200
11
487.158000
21
12.529200
0
LINE
8
Layer 1
10
487.158000
20
12.529200
11
487.158000
21
9.675200
0
LINE
8
Layer 1
10
487.158000
20
9.675200
11
487.012000
21
9.529200
0
LINE
8
Layer 1
10
487.012000
20
9.529200
11
471.804000
21
9.529200
0
LINE
8
Layer 1
10
471.804000
20
9.529200
11
471.658000
21
9.675200
0
LINE
8
Layer 1
10
471.658000
20
9.675200
11
471.658000
21
12.529200
0
LINE
8
Layer 1
10
471.658000
20
12.529200
11
457.158000
21
12.529200
0
LINE
8
Layer 1
10
457.158000
20
12.529200
11
457.158000
21
9.675200
0
LINE
8
Layer 1
10
457.158000
20
9.675200
11
457.012000
21
9.529200
0
LINE
8
Layer 1
10
457.012000
20
9.529200
11
441.804000
21
9.529200
0
LINE
8
Layer 1
10
441.804000
20
9.529200
11
441.658000
21
9.675200
0
LINE
8
Layer 1
10
441.658000
20
9.675200
11
441.658000
21
12.529200
0
LINE
8
Layer 1
10
441.658000
20
12.529200
11
427.158000
21
12.529200
0
LINE
8
Layer 1
10
427.158000
20
12.529200
11
427.158000
21
9.675200
0
LINE
8
Layer 1
10
427.158000
20
9.675200
11
427.012000
21
9.529200
0
LINE
8
Layer 1
10
427.012000
20
9.529200
11
411.804000
21
9.529200
0
LINE
8
Layer 1
10
411.804000
20
9.529200
11
411.658000
21
9.675200
0
LINE
8
Layer 1
10
411.658000
20
9.675200
11
411.658000
21
12.529200
0
LINE
8
Layer 1
10
411.658000
20
12.529200
11
397.804000
21
12.529200
0
LINE
8
Layer 1
10
397.804000
20
12.529200
11
397.658000
21
12.675200
0
LINE
8
Layer 1
10
397.658000
20
12.675200
11
397.658000
21
34.883200
0
LINE
8
Layer 1
10
397.658000
20
34.883200
11
397.804000
21
35.029200
0
LINE
8
Layer 1
10
175.782000
20
112.417000
11
175.782000
21
98.948800
0
LINE
8
Layer 1
10
189.751000
20
98.917200
11
175.782000
21
98.917200
0
LINE
8
Layer 1
10
175.782000
20
98.917200
11
175.782000
21
85.449000
0
LINE
8
Layer 1
10
175.782000
20
85.449000
11
189.751100
21
85.449000
0
LINE
8
Layer 1
10
12.317400
20
230.151000
11
12.258400
21
230.151000
0
LINE
8
Layer 1
10
12.258400
20
230.151000
11
12.258400
21
247.733000
0
LINE
8
Layer 1
10
12.258400
20
247.733000
11
12.317400
21
247.792000
0
LINE
8
Layer 1
10
12.317400
20
247.792000
11
26.399400
21
247.792000
0
LINE
8
Layer 1
10
26.399400
20
247.792000
11
26.458400
21
247.733000
0
LINE
8
Layer 1
10
26.458400
20
247.733000
11
26.458400
21
244.792000
0
LINE
8
Layer 1
10
26.458400
20
244.792000
11
41.258400
21
244.792000
0
LINE
8
Layer 1
10
41.258400
20
244.792000
11
41.258400
21
247.733000
0
LINE
8
Layer 1
10
41.258400
20
247.733000
11
41.317400
21
247.792000
0
LINE
8
Layer 1
10
41.317400
20
247.792000
11
56.399400
21
247.792000
0
LINE
8
Layer 1
10
56.399400
20
247.792000
11
56.458400
21
247.733000
0
LINE
8
Layer 1
10
56.458400
20
247.733000
11
56.458400
21
244.792000
0
LINE
8
Layer 1
10
56.458400
20
244.792000
11
71.258400
21
244.792000
0
LINE
8
Layer 1
10
71.258400
20
244.792000
11
71.258400
21
247.733000
0
LINE
8
Layer 1
10
71.258400
20
247.733000
11
71.317400
21
247.792000
0
LINE
8
Layer 1
10
71.317400
20
247.792000
11
86.399400
21
247.792000
0
LINE
8
Layer 1
10
86.399400
20
247.792000
11
86.458400
21
247.733000
0
LINE
8
Layer 1
10
86.458400
20
247.733000
11
86.458400
21
244.792000
0
LINE
8
Layer 1
10
86.458400
20
244.792000
11
101.258400
21
244.792000
0
LINE
8
Layer 1
10
101.258400
20
244.792000
11
101.258400
21
247.733000
0
LINE
8
Layer 1
10
101.258400
20
247.733000
11
101.317400
21
247.792000
0
LINE
8
Layer 1
10
101.317400
20
247.792000
11
116.399400
21
247.792000
0
LINE
8
Layer 1
10
116.399400
20
247.792000
11
116.458400
21
247.733000
0
LINE
8
Layer 1
10
116.458400
20
247.733000
11
116.458400
21
244.792000
0
LINE
8
Layer 1
10
116.458400
20
244.792000
11
131.258400
21
244.792000
0
LINE
8
Layer 1
10
131.258400
20
244.792000
11
131.258400
21
247.733000
0
LINE
8
Layer 1
10
131.258400
20
247.733000
11
131.317400
21
247.792000
0
LINE
8
Layer 1
10
131.317400
20
247.792000
11
146.399400
21
247.792000
0
LINE
8
Layer 1
10
146.399400
20
247.792000
11
146.458400
21
247.733000
0
LINE
8
Layer 1
10
146.458400
20
247.733000
11
146.458400
21
244.792000
0
LINE
8
Layer 1
10
146.458400
20
244.792000
11
161.258400
21
244.792000
0
LINE
8
Layer 1
10
161.258400
20
244.792000
11
161.258400
21
247.733000
0
LINE
8
Layer 1
10
161.258400
20
247.733000
11
161.317400
21
247.792000
0
LINE
8
Layer 1
10
161.317400
20
247.792000
11
176.399400
21
247.792000
0
LINE
8
Layer 1
10
176.399400
20
247.792000
11
176.458400
21
247.733000
0
LINE
8
Layer 1
10
176.458400
20
247.733000
11
176.458400
21
244.792000
0
LINE
8
Layer 1
10
176.458400
20
244.792000
11
191.258400
21
244.792000
0
LINE
8
Layer 1
10
191.258400
20
244.792000
11
191.258400
21
247.733000
0
LINE
8
Layer 1
10
191.258400
20
247.733000
11
191.317400
21
247.792000
0
LINE
8
Layer 1
10
191.317400
20
247.792000
11
205.399400
21
247.792000
0
LINE
8
Layer 1
10
205.399400
20
247.792000
11
205.458400
21
247.733000
0
LINE
8
Layer 1
10
205.458400
20
247.733000
11
205.458400
21
230.151000
0
LINE
8
Layer 1
10
205.458400
20
230.151000
11
205.399400
21
230.092000
0
LINE
8
Layer 1
10
205.399400
20
230.092000
11
199.458000
21
230.092000
0
LINE
8
Layer 1
10
199.458000
20
230.092000
11
199.458000
21
215.292000
0
LINE
8
Layer 1
10
199.458000
20
215.292000
11
205.399460
21
215.292000
0
LINE
8
Layer 1
10
205.399460
20
215.292000
11
205.458460
21
215.233000
0
LINE
8
Layer 1
10
205.458460
20
215.233000
11
205.458460
21
200.151000
0
LINE
8
Layer 1
10
205.458460
20
200.151000
11
205.399460
21
200.092000
0
LINE
8
Layer 1
10
205.399460
20
200.092000
11
199.458000
21
200.092000
0
LINE
8
Layer 1
10
199.458000
20
200.092000
11
199.458000
21
185.292000
0
LINE
8
Layer 1
10
199.458000
20
185.292000
11
205.399460
21
185.292000
0
LINE
8
Layer 1
10
205.399460
20
185.292000
11
205.458460
21
185.233000
0
LINE
8
Layer 1
10
205.458460
20
185.233000
11
205.458460
21
170.151000
0
LINE
8
Layer 1
10
205.458460
20
170.151000
11
205.399460
21
170.092000
0
LINE
8
Layer 1
10
205.399460
20
170.092000
11
199.458000
21
170.092000
0
LINE
8
Layer 1
10
199.458000
20
170.092000
11
199.458000
21
155.292000
0
LINE
8
Layer 1
10
199.458000
20
155.292000
11
205.399460
21
155.292000
0
LINE
8
Layer 1
10
205.399460
20
155.292000
11
205.458460
21
155.233000
0
LINE
8
Layer 1
10
205.458460
20
155.233000
11
205.458460
21
137.651000
0
LINE
8
Layer 1
10
205.458460
20
137.651000
11
205.399460
21
137.592000
0
LINE
8
Layer 1
10
205.399460
20
137.592000
11
191.317460
21
137.592000
0
LINE
8
Layer 1
10
191.317460
20
137.592000
11
191.258460
21
137.651000
0
LINE
8
Layer 1
10
191.258460
20
137.651000
11
191.258460
21
140.592000
0
LINE
8
Layer 1
10
191.258460
20
140.592000
11
176.458460
21
140.592000
0
LINE
8
Layer 1
10
176.458460
20
140.592000
11
176.458460
21
137.651000
0
LINE
8
Layer 1
10
176.458460
20
137.651000
11
176.399460
21
137.592000
0
LINE
8
Layer 1
10
176.399460
20
137.592000
11
161.317460
21
137.592000
0
LINE
8
Layer 1
10
161.317460
20
137.592000
11
161.258460
21
137.651000
0
LINE
8
Layer 1
10
161.258460
20
137.651000
11
161.258460
21
140.592000
0
LINE
8
Layer 1
10
161.258460
20
140.592000
11
146.458460
21
140.592000
0
LINE
8
Layer 1
10
146.458460
20
140.592000
11
146.458460
21
137.651000
0
LINE
8
Layer 1
10
146.458460
20
137.651000
11
146.399460
21
137.592000
0
LINE
8
Layer 1
10
146.399460
20
137.592000
11
131.317460
21
137.592000
0
LINE
8
Layer 1
10
131.317460
20
137.592000
11
131.258460
21
137.651000
0
LINE
8
Layer 1
10
131.258460
20
137.651000
11
131.258460
21
140.592000
0
LINE
8
Layer 1
10
131.258460
20
140.592000
11
116.458460
21
140.592000
0
LINE
8
Layer 1
10
116.458460
20
140.592000
11
116.458460
21
137.651000
0
LINE
8
Layer 1
10
116.458460
20
137.651000
11
116.399460
21
137.592000
0
LINE
8
Layer 1
10
116.399460
20
137.592000
11
101.317460
21
137.592000
0
LINE
8
Layer 1
10
101.317460
20
137.592000
11
101.258460
21
137.651000
0
LINE
8
Layer 1
10
101.258460
20
137.651000
11
101.258460
21
140.592000
0
LINE
8
Layer 1
10
101.258460
20
140.592000
11
86.458500
21
140.592000
0
LINE
8
Layer 1
10
86.458500
20
140.592000
11
86.458500
21
137.651000
0
LINE
8
Layer 1
10
86.458500
20
137.651000
11
86.399500
21
137.592000
0
LINE
8
Layer 1
10
86.399500
20
137.592000
11
71.317500
21
137.592000
0
LINE
8
Layer 1
10
71.317500
20
137.592000
11
71.258500
21
137.651000
0
LINE
8
Layer 1
10
71.258500
20
137.651000
11
71.258500
21
140.592000
0
LINE
8
Layer 1
10
71.258500
20
140.592000
11
56.458500
21
140.592000
0
LINE
8
Layer 1
10
56.458500
20
140.592000
11
56.458500
21
137.651000
0
LINE
8
Layer 1
10
56.458500
20
137.651000
11
56.399500
21
137.592000
0
LINE
8
Layer 1
10
56.399500
20
137.592000
11
41.317500
21
137.592000
0
LINE
8
Layer 1
10
41.317500
20
137.592000
11
41.258500
21
137.651000
0
LINE
8
Layer 1
10
41.258500
20
137.651000
11
41.258500
21
140.592000
0
LINE
8
Layer 1
10
41.258500
20
140.592000
11
26.458500
21
140.592000
0
LINE
8
Layer 1
10
26.458500
20
140.592000
11
26.458500
21
137.651000
0
LINE
8
Layer 1
10
26.458500
20
137.651000
11
26.399500
21
137.592000
0
LINE
8
Layer 1
10
26.399500
20
137.592000
11
12.317400
21
137.592000
0
LINE
8
Layer 1
10
12.317400
20
137.592000
11
12.258400
21
137.651000
0
LINE
8
Layer 1
10
12.258400
20
137.651000
11
12.258400
21
155.233000
0
LINE
8
Layer 1
10
12.258400
20
155.233000
11
12.317410
21
155.292000
0
LINE
8
Layer 1
10
12.317410
20
155.292000
11
15.258410
21
155.292000
0
LINE
8
Layer 1
10
15.258410
20
155.292000
11
15.258410
21
170.092000
0
LINE
8
Layer 1
10
15.258410
20
170.092000
11
12.317410
21
170.092000
0
LINE
8
Layer 1
10
12.317410
20
170.092000
11
12.258410
21
170.151000
0
LINE
8
Layer 1
10
12.258410
20
170.151000
11
12.258410
21
185.233000
0
LINE
8
Layer 1
10
12.258410
20
185.233000
11
12.317410
21
185.292000
0
LINE
8
Layer 1
10
12.317410
20
185.292000
11
15.258410
21
185.292000
0
LINE
8
Layer 1
10
15.258410
20
185.292000
11
15.258410
21
200.092000
0
LINE
8
Layer 1
10
15.258410
20
200.092000
11
12.317410
21
200.092000
0
LINE
8
Layer 1
10
12.317410
20
200.092000
11
12.258410
21
200.151000
0
LINE
8
Layer 1
10
12.258410
20
200.151000
11
12.258410
21
215.233000
0
LINE
8
Layer 1
10
12.258410
20
215.233000
11
12.317410
21
215.233000
0
LINE
8
Layer 1
10
12.317410
20
215.233000
11
15.183410
21
215.233000
0
LINE
8
Layer 1
10
15.183410
20
215.233000
11
22.307320
21
215.233000
0
LINE
8
Layer 1
10
22.307320
20
215.233000
11
23.757408
21
215.394188
0
LINE
8
Layer 1
10
23.757408
20
215.394188
11
25.108024
21
215.854366
0
LINE
8
Layer 1
10
25.108024
20
215.854366
11
26.330236
21
216.578454
0
LINE
8
Layer 1
10
26.330236
20
216.578454
11
27.395109
21
217.531373
0
LINE
8
Layer 1
10
27.395109
20
217.531373
11
28.273709
21
218.678041
0
LINE
8
Layer 1
10
28.273709
20
218.678041
11
28.937104
21
219.983380
0
LINE
8
Layer 1
10
28.937104
20
219.983380
11
29.356359
21
221.412310
0
LINE
8
Layer 1
10
29.356359
20
221.412310
11
29.502540
21
222.929750
0
LINE
8
Layer 1
10
29.502540
20
222.929750
11
29.356359
21
224.426761
0
LINE
8
Layer 1
10
29.356359
20
224.426761
11
28.937104
21
225.801826
0
LINE
8
Layer 1
10
28.937104
20
225.801826
11
28.273709
21
227.031009
0
LINE
8
Layer 1
10
28.273709
20
227.031009
11
27.395109
21
228.090376
0
LINE
8
Layer 1
10
27.395109
20
228.090376
11
26.330236
21
228.955993
0
LINE
8
Layer 1
10
26.330236
20
228.955993
11
25.108024
21
229.603924
0
LINE
8
Layer 1
10
25.108024
20
229.603924
11
23.757408
21
230.010234
0
LINE
8
Layer 1
10
23.757408
20
230.010234
11
22.307320
21
230.150990
0
LINE
8
Layer 1
10
22.307320
20
230.150990
11
15.183410
21
230.150990
0
LINE
8
Layer 1
10
15.183410
20
230.150990
11
12.317400
21
230.151000
0
LINE
8
Layer 1
10
239.479000
20
208.034000
11
239.479000
21
205.093000
0
LINE
8
Layer 1
10
239.479000
20
205.093000
11
254.279000
21
205.093000
0
LINE
8
Layer 1
10
254.279000
20
205.093000
11
254.279000
21
208.034000
0
LINE
8
Layer 1
10
254.279000
20
208.034000
11
254.338000
21
208.093000
0
LINE
8
Layer 1
10
254.338000
20
208.093000
11
269.420000
21
208.093000
0
LINE
8
Layer 1
10
269.420000
20
208.093000
11
269.479000
21
208.034000
0
LINE
8
Layer 1
10
269.479000
20
208.034000
11
269.479000
21
205.093000
0
LINE
8
Layer 1
10
269.479000
20
205.093000
11
284.279000
21
205.093000
0
LINE
8
Layer 1
10
284.279000
20
205.093000
11
284.279000
21
208.034000
0
LINE
8
Layer 1
10
284.279000
20
208.034000
11
284.338000
21
208.093000
0
LINE
8
Layer 1
10
284.338000
20
208.093000
11
299.420000
21
208.093000
0
LINE
8
Layer 1
10
299.420000
20
208.093000
11
299.479000
21
208.034000
0
LINE
8
Layer 1
10
299.479000
20
208.034000
11
299.479000
21
205.093000
0
LINE
8
Layer 1
10
299.479000
20
205.093000
11
314.279000
21
205.093000
0
LINE
8
Layer 1
10
314.279000
20
205.093000
11
314.279000
21
208.034000
0
LINE
8
Layer 1
10
314.279000
20
208.034000
11
314.338000
21
208.093000
0
LINE
8
Layer 1
10
314.338000
20
208.093000
11
336.420000
21
208.093000
0
LINE
8
Layer 1
10
336.420000
20
208.093000
11
336.479000
21
208.034000
0
LINE
8
Layer 1
10
336.479000
20
208.034000
11
336.479000
21
194.093000
0
LINE
8
Layer 1
10
336.479000
20
194.093000
11
339.420000
21
194.093000
0
LINE
8
Layer 1
10
339.420000
20
194.093000
11
339.479000
21
194.034000
0
LINE
8
Layer 1
10
339.479000
20
194.034000
11
339.479000
21
178.952000
0
LINE
8
Layer 1
10
339.479000
20
178.952000
11
339.420000
21
178.893000
0
LINE
8
Layer 1
10
339.420000
20
178.893000
11
336.479000
21
178.893000
0
LINE
8
Layer 1
10
336.479000
20
178.893000
11
336.479000
21
164.093000
0
LINE
8
Layer 1
10
336.479000
20
164.093000
11
339.420000
21
164.093000
0
LINE
8
Layer 1
10
339.420000
20
164.093000
11
339.479000
21
164.034000
0
LINE
8
Layer 1
10
339.479000
20
164.034000
11
339.479000
21
148.952000
0
LINE
8
Layer 1
10
339.479000
20
148.952000
11
339.420000
21
148.893000
0
LINE
8
Layer 1
10
339.420000
20
148.893000
11
336.479000
21
148.893000
0
LINE
8
Layer 1
10
336.479000
20
148.893000
11
336.479000
21
134.093000
0
LINE
8
Layer 1
10
336.479000
20
134.093000
11
339.420000
21
134.093000
0
LINE
8
Layer 1
10
339.420000
20
134.093000
11
339.479000
21
134.034000
0
LINE
8
Layer 1
10
339.479000
20
134.034000
11
339.479000
21
118.952000
0
LINE
8
Layer 1
10
339.479000
20
118.952000
11
339.420000
21
118.893000
0
LINE
8
Layer 1
10
339.420000
20
118.893000
11
336.479000
21
118.893000
0
LINE
8
Layer 1
10
336.479000
20
118.893000
11
336.479000
21
104.093000
0
LINE
8
Layer 1
10
336.479000
20
104.093000
11
339.420000
21
104.093000
0
LINE
8
Layer 1
10
339.420000
20
104.093000
11
339.479000
21
104.034000
0
LINE
8
Layer 1
10
339.479000
20
104.034000
11
339.479000
21
88.951600
0
LINE
8
Layer 1
10
339.479000
20
88.951600
11
339.420000
21
88.892600
0
LINE
8
Layer 1
10
339.420000
20
88.892600
11
336.479000
21
88.892600
0
LINE
8
Layer 1
10
336.479000
20
88.892600
11
336.479000
21
74.092600
0
LINE
8
Layer 1
10
336.479000
20
74.092600
11
339.420000
21
74.092600
0
LINE
8
Layer 1
10
339.420000
20
74.092600
11
339.479000
21
74.033600
0
LINE
8
Layer 1
10
339.479000
20
74.033600
11
339.479000
21
58.951600
0
LINE
8
Layer 1
10
339.479000
20
58.951600
11
339.420000
21
58.892600
0
LINE
8
Layer 1
10
339.420000
20
58.892600
11
336.479000
21
58.892600
0
LINE
8
Layer 1
10
336.479000
20
58.892600
11
336.479000
21
44.092600
0
LINE
8
Layer 1
10
336.479000
20
44.092600
11
339.420000
21
44.092600
0
LINE
8
Layer 1
10
339.420000
20
44.092600
11
339.479000
21
44.033600
0
LINE
8
Layer 1
10
339.479000
20
44.033600
11
339.479000
21
28.951600
0
LINE
8
Layer 1
10
339.479000
20
28.951600
11
339.420000
21
28.892600
0
LINE
8
Layer 1
10
339.420000
20
28.892600
11
336.479000
21
28.892600
0
LINE
8
Layer 1
10
336.479000
20
28.892600
11
336.479000
21
14.951600
0
LINE
8
Layer 1
10
336.479000
20
14.951600
11
336.420000
21
14.892600
0
LINE
8
Layer 1
10
336.420000
20
14.892600
11
314.338000
21
14.892600
0
LINE
8
Layer 1
10
314.338000
20
14.892600
11
314.279000
21
14.951600
0
LINE
8
Layer 1
10
314.279000
20
14.951600
11
314.279430
21
20.892970
0
LINE
8
Layer 1
10
314.279430
20
20.892970
11
299.479430
21
20.892970
0
LINE
8
Layer 1
10
299.479430
20
20.892970
11
299.479000
21
14.951600
0
LINE
8
Layer 1
10
299.479000
20
14.951600
11
299.420000
21
14.892600
0
LINE
8
Layer 1
10
299.420000
20
14.892600
11
284.338000
21
14.892600
0
LINE
8
Layer 1
10
284.338000
20
14.892600
11
284.279000
21
14.951600
0
LINE
8
Layer 1
10
284.279000
20
14.951600
11
284.279430
21
20.892970
0
LINE
8
Layer 1
10
284.279430
20
20.892970
11
269.479430
21
20.892970
0
LINE
8
Layer 1
10
269.479430
20
20.892970
11
269.479000
21
14.951600
0
LINE
8
Layer 1
10
269.479000
20
14.951600
11
269.420000
21
14.892600
0
LINE
8
Layer 1
10
269.420000
20
14.892600
11
254.338000
21
14.892600
0
LINE
8
Layer 1
10
254.338000
20
14.892600
11
254.279000
21
14.951600
0
LINE
8
Layer 1
10
254.279000
20
14.951600
11
254.279430
21
20.892970
0
LINE
8
Layer 1
10
254.279430
20
20.892970
11
239.479430
21
20.892970
0
LINE
8
Layer 1
10
239.479430
20
20.892970
11
239.479000
21
14.951600
0
LINE
8
Layer 1
10
239.479000
20
14.951600
11
239.420000
21
14.892600
0
LINE
8
Layer 1
10
239.420000
20
14.892600
11
217.338000
21
14.892600
0
LINE
8
Layer 1
10
217.338000
20
14.892600
11
217.279000
21
14.951600
0
LINE
8
Layer 1
10
217.279000
20
14.951600
11
217.279000
21
28.892600
0
LINE
8
Layer 1
10
217.279000
20
28.892600
11
214.338000
21
28.892600
0
LINE
8
Layer 1
10
214.338000
20
28.892600
11
214.279000
21
28.951600
0
LINE
8
Layer 1
10
214.279000
20
28.951600
11
214.279000
21
44.033600
0
LINE
8
Layer 1
10
214.279000
20
44.033600
11
214.338000
21
44.092600
0
LINE
8
Layer 1
10
214.338000
20
44.092600
11
217.279000
21
44.092600
0
LINE
8
Layer 1
10
217.279000
20
44.092600
11
217.279000
21
58.892600
0
LINE
8
Layer 1
10
217.279000
20
58.892600
11
214.338000
21
58.892600
0
LINE
8
Layer 1
10
214.338000
20
58.892600
11
214.279000
21
58.951600
0
LINE
8
Layer 1
10
214.279000
20
58.951600
11
214.279000
21
74.033600
0
LINE
8
Layer 1
10
214.279000
20
74.033600
11
214.338000
21
74.092600
0
LINE
8
Layer 1
10
214.338000
20
74.092600
11
217.279000
21
74.092600
0
LINE
8
Layer 1
10
217.279000
20
74.092600
11
217.279000
21
88.892600
0
LINE
8
Layer 1
10
217.279000
20
88.892600
11
214.338000
21
88.892600
0
LINE
8
Layer 1
10
214.338000
20
88.892600
11
214.279000
21
88.951600
0
LINE
8
Layer 1
10
214.279000
20
88.951600
11
214.279000
21
104.033600
0
LINE
8
Layer 1
10
214.279000
20
104.033600
11
214.338000
21
104.092600
0
LINE
8
Layer 1
10
214.338000
20
104.092600
11
217.279000
21
104.092600
0
LINE
8
Layer 1
10
217.279000
20
104.092600
11
217.279000
21
118.892600
0
LINE
8
Layer 1
10
217.279000
20
118.892600
11
214.338000
21
118.892600
0
LINE
8
Layer 1
10
214.338000
20
118.892600
11
214.279000
21
118.951600
0
LINE
8
Layer 1
10
214.279000
20
118.951600
11
214.279000
21
134.033600
0
LINE
8
Layer 1
10
214.279000
20
134.033600
11
214.338000
21
134.092600
0
LINE
8
Layer 1
10
214.338000
20
134.092600
11
217.279000
21
134.092600
0
LINE
8
Layer 1
10
217.279000
20
134.092600
11
217.279000
21
148.892600
0
LINE
8
Layer 1
10
217.279000
20
148.892600
11
214.338000
21
148.892600
0
LINE
8
Layer 1
10
214.338000
20
148.892600
11
214.279000
21
148.951600
0
LINE
8
Layer 1
10
214.279000
20
148.951600
11
214.279000
21
164.033600
0
LINE
8
Layer 1
10
214.279000
20
164.033600
11
214.338000
21
164.092600
0
LINE
8
Layer 1
10
214.338000
20
164.092600
11
217.279000
21
164.092600
0
LINE
8
Layer 1
10
217.279000
20
164.092600
11
217.279000
21
178.892600
0
LINE
8
Layer 1
10
217.279000
20
178.892600
11
214.338000
21
178.892600
0
LINE
8
Layer 1
10
214.338000
20
178.892600
11
214.279000
21
178.951600
0
LINE
8
Layer 1
10
214.279000
20
178.951600
11
214.279000
21
194.033600
0
LINE
8
Layer 1
10
214.279000
20
194.033600
11
214.338000
21
194.092600
0
LINE
8
Layer 1
10
214.338000
20
194.092600
11
217.279000
21
194.092600
0
LINE
8
Layer 1
10
217.279000
20
194.092600
11
217.279000
21
208.033600
0
LINE
8
Layer 1
10
217.279000
20
208.033600
11
217.338000
21
208.092600
0
LINE
8
Layer 1
10
217.338000
20
208.092600
11
239.420000
21
208.092600
0
LINE
8
Layer 1
10
239.420000
20
208.092600
11
239.479000
21
208.034000
0
LINE
8
Layer 1
10
212.629000
20
250.940000
11
215.570000
21
250.940000
0
LINE
8
Layer 1
10
215.570000
20
250.940000
11
215.570000
21
265.740000
0
LINE
8
Layer 1
10
215.570000
20
265.740000
11
212.629000
21
265.740000
0
LINE
8
Layer 1
10
212.629000
20
265.740000
11
212.570000
21
265.799000
0
LINE
8
Layer 1
10
212.570000
20
265.799000
11
212.570000
21
280.881000
0
LINE
8
Layer 1
10
212.570000
20
280.881000
11
212.629000
21
280.940000
0
LINE
8
Layer 1
10
212.629000
20
280.940000
11
215.570000
21
280.940000
0
LINE
8
Layer 1
10
215.570000
20
280.940000
11
215.570000
21
295.740000
0
LINE
8
Layer 1
10
215.570000
20
295.740000
11
212.629000
21
295.740000
0
LINE
8
Layer 1
10
212.629000
20
295.740000
11
212.570000
21
295.799000
0
LINE
8
Layer 1
10
212.570000
20
295.799000
11
212.570000
21
310.881000
0
LINE
8
Layer 1
10
212.570000
20
310.881000
11
212.629000
21
310.940000
0
LINE
8
Layer 1
10
212.629000
20
310.940000
11
215.570000
21
310.940000
0
LINE
8
Layer 1
10
215.570000
20
310.940000
11
215.570000
21
325.381000
0
LINE
8
Layer 1
10
215.570000
20
325.381000
11
215.629000
21
325.440000
0
LINE
8
Layer 1
10
215.629000
20
325.440000
11
237.570000
21
325.440000
0
LINE
8
Layer 1
10
237.570000
20
325.440000
11
237.570000
21
328.381000
0
LINE
8
Layer 1
10
237.570000
20
328.381000
11
237.629000
21
328.440000
0
LINE
8
Layer 1
10
237.629000
20
328.440000
11
252.711000
21
328.440000
0
LINE
8
Layer 1
10
252.711000
20
328.440000
11
252.770000
21
328.381000
0
LINE
8
Layer 1
10
252.770000
20
328.381000
11
252.770000
21
325.440000
0
LINE
8
Layer 1
10
252.770000
20
325.440000
11
267.570000
21
325.440000
0
LINE
8
Layer 1
10
267.570000
20
325.440000
11
267.570000
21
328.381000
0
LINE
8
Layer 1
10
267.570000
20
328.381000
11
267.629000
21
328.440000
0
LINE
8
Layer 1
10
267.629000
20
328.440000
11
282.711000
21
328.440000
0
LINE
8
Layer 1
10
282.711000
20
328.440000
11
282.770000
21
328.381000
0
LINE
8
Layer 1
10
282.770000
20
328.381000
11
282.770000
21
325.440000
0
LINE
8
Layer 1
10
282.770000
20
325.440000
11
297.570000
21
325.440000
0
LINE
8
Layer 1
10
297.570000
20
325.440000
11
297.570000
21
328.381000
0
LINE
8
Layer 1
10
297.570000
20
328.381000
11
297.629000
21
328.440000
0
LINE
8
Layer 1
10
297.629000
20
328.440000
11
312.711000
21
328.440000
0
LINE
8
Layer 1
10
312.711000
20
328.440000
11
312.770000
21
328.381000
0
LINE
8
Layer 1
10
312.770000
20
328.381000
11
312.770000
21
325.440000
0
LINE
8
Layer 1
10
312.770000
20
325.440000
11
334.711000
21
325.440000
0
LINE
8
Layer 1
10
334.711000
20
325.440000
11
334.770000
21
325.381000
0
LINE
8
Layer 1
10
334.770000
20
325.381000
11
334.770000
21
310.940000
0
LINE
8
Layer 1
10
334.770000
20
310.940000
11
337.711000
21
310.940000
0
LINE
8
Layer 1
10
337.711000
20
310.940000
11
337.770000
21
310.881000
0
LINE
8
Layer 1
10
337.770000
20
310.881000
11
337.770000
21
295.799000
0
LINE
8
Layer 1
10
337.770000
20
295.799000
11
337.711000
21
295.740000
0
LINE
8
Layer 1
10
337.711000
20
295.740000
11
334.770000
21
295.740000
0
LINE
8
Layer 1
10
334.770000
20
295.740000
11
334.770000
21
280.940000
0
LINE
8
Layer 1
10
334.770000
20
280.940000
11
337.711000
21
280.940000
0
LINE
8
Layer 1
10
337.711000
20
280.940000
11
337.770000
21
280.881000
0
LINE
8
Layer 1
10
337.770000
20
280.881000
11
337.770000
21
265.799000
0
LINE
8
Layer 1
10
337.770000
20
265.799000
11
337.711000
21
265.740000
0
LINE
8
Layer 1
10
337.711000
20
265.740000
11
334.770000
21
265.740000
0
LINE
8
Layer 1
10
334.770000
20
265.740000
11
334.770000
21
250.940000
0
LINE
8
Layer 1
10
334.770000
20
250.940000
11
337.711000
21
250.940000
0
LINE
8
Layer 1
10
337.711000
20
250.940000
11
337.770000
21
250.881000
0
LINE
8
Layer 1
10
337.770000
20
250.881000
11
337.770000
21
235.799000
0
LINE
8
Layer 1
10
337.770000
20
235.799000
11
337.711000
21
235.740000
0
LINE
8
Layer 1
10
337.711000
20
235.740000
11
334.770000
21
235.740000
0
LINE
8
Layer 1
10
334.770000
20
235.740000
11
334.770000
21
221.299000
0
LINE
8
Layer 1
10
334.770000
20
221.299000
11
334.711000
21
221.240000
0
LINE
8
Layer 1
10
334.711000
20
221.240000
11
312.770000
21
221.240000
0
LINE
8
Layer 1
10
312.770000
20
221.240000
11
312.770000
21
218.299000
0
LINE
8
Layer 1
10
312.770000
20
218.299000
11
312.711000
21
218.240000
0
LINE
8
Layer 1
10
312.711000
20
218.240000
11
297.629000
21
218.240000
0
LINE
8
Layer 1
10
297.629000
20
218.240000
11
297.570000
21
218.299000
0
LINE
8
Layer 1
10
297.570000
20
218.299000
11
297.570000
21
221.240000
0
LINE
8
Layer 1
10
297.570000
20
221.240000
11
282.770000
21
221.240000
0
LINE
8
Layer 1
10
282.770000
20
221.240000
11
282.770000
21
218.299000
0
LINE
8
Layer 1
10
282.770000
20
218.299000
11
282.711000
21
218.240000
0
LINE
8
Layer 1
10
282.711000
20
218.240000
11
267.629000
21
218.240000
0
LINE
8
Layer 1
10
267.629000
20
218.240000
11
267.570000
21
218.299000
0
LINE
8
Layer 1
10
267.570000
20
218.299000
11
267.570000
21
221.240000
0
LINE
8
Layer 1
10
267.570000
20
221.240000
11
252.770000
21
221.240000
0
LINE
8
Layer 1
10
252.770000
20
221.240000
11
252.770000
21
218.299000
0
LINE
8
Layer 1
10
252.770000
20
218.299000
11
252.711000
21
218.240000
0
LINE
8
Layer 1
10
252.711000
20
218.240000
11
237.629000
21
218.240000
0
LINE
8
Layer 1
10
237.629000
20
218.240000
11
237.570000
21
218.299000
0
LINE
8
Layer 1
10
237.570000
20
218.299000
11
237.570000
21
221.240000
0
LINE
8
Layer 1
10
237.570000
20
221.240000
11
215.629000
21
221.240000
0
LINE
8
Layer 1
10
215.629000
20
221.240000
11
215.570000
21
221.299000
0
LINE
8
Layer 1
10
215.570000
20
221.299000
11
215.570000
21
235.740000
0
LINE
8
Layer 1
10
215.570000
20
235.740000
11
212.629000
21
235.740000
0
LINE
8
Layer 1
10
212.629000
20
235.740000
11
212.570000
21
235.799000
0
LINE
8
Layer 1
10
212.570000
20
235.799000
11
212.570000
21
250.881000
0
LINE
8
Layer 1
10
212.570000
20
250.881000
11
212.629000
21
250.940000
 0 
ENDSEC
 0 
EOF