<svg width="351.6mm" height="389.4mm" viewBox="0 0 351.6 389.4" xmlns="http://www.w3.org/2000/svg" version="1.1" preserveAspectRatio="xMidYMid meet"><g id="svgGroup" stroke-linecap="round" fill-rule="evenodd" font-size="9pt" stroke="#000" stroke-width="0.25mm" fill="none" style="stroke:#000;stroke-width:0.25mm;fill:none"><path d="M 17.7 389.341 L 17.7 386.4 L 32.5 386.4 L 32.5 389.341 L 32.559 389.4 L 47.641 389.4 L 47.7 389.341 L 47.7 386.4 L 62.5 386.4 L 62.5 389.341 L 62.559 389.4 L 77.641 389.4 L 77.7 389.341 L 77.7 386.4 L 92.5 386.4 L 92.5 389.341 L 92.559 389.4 L 110.141 389.4 L 110.2 389.341 L 110.2 375.259 L 110.141 375.2 L 107.2 375.2 L 107.2 360.4 L 110.141 360.4 L 110.2 360.341 L 110.2 345.259 L 110.141 345.2 L 107.2 345.2 L 107.2 330.4 L 110.141 330.4 L 110.2 330.341 L 110.2 315.259 L 110.141 315.2 L 107.2 315.2 L 107.2 300.4 L 110.141 300.4 L 110.2 300.341 L 110.2 285.259 L 110.141 285.2 L 107.2 285.2 L 107.2 270.4 L 110.141 270.4 L 110.2 270.341 L 110.2 255.259 L 110.141 255.2 L 107.2 255.2 L 107.2 240.4 L 110.141 240.4 L 110.2 240.341 L 110.2 225.259 L 110.141 225.2 L 107.2 225.2 L 107.2 210.4 L 110.141 210.4 L 110.2 210.341 L 110.2 196.259 L 110.141 196.2 L 92.559 196.2 L 92.5 196.259 L 92.5 199.2 L 77.7 199.2 L 77.7 196.259 L 77.641 196.2 L 62.559 196.2 L 62.5 196.259 L 62.5 199.2 L 47.7 199.2 L 47.7 196.259 L 47.641 196.2 L 32.559 196.2 L 32.5 196.259 L 32.5 199.2 L 17.7 199.2 L 17.7 196.259 L 17.641 196.2 L 0.059 196.2 L 0 196.259 L 0 210.341 L 0.059 210.4 L 3 210.4 L 3 225.2 L 0.059 225.2 L 0 225.259 L 0 240.341 L 0.059 240.4 L 3 240.4 L 3 255.2 L 0.059 255.2 L 0 255.259 L 0 270.341 L 0.059 270.4 L 3 270.4 L 3 285.2 L 0.059 285.2 L 0 285.259 L 0 300.341 L 0.059 300.4 L 3 300.4 L 3 315.2 L 0.059 315.2 L 0 315.259 L 0 330.341 L 0.059 330.4 L 3 330.4 L 3 345.2 L 0.059 345.2 L 0 345.259 L 0 360.341 L 0.059 360.4 L 3 360.4 L 3 375.2 L 0.059 375.2 L 0 375.259 L 0 389.341 L 0.059 389.4 L 17.641 389.4 L 17.7 389.341 Z" id="front_outsideCutPath" stroke="#FF0000" stroke-width="0.03" style="stroke:#FF0000;stroke-width:0.03" vector-effect="non-scaling-stroke"/><path d="M 71.162 301.124 L 69.375 301.124 L 69.375 293.494 Q 69.375 292.052 68.719 291.342 A 2.014 2.014 0 0 0 67.893 290.814 Q 67.374 290.631 66.663 290.631 Q 65.444 290.631 64.654 291.066 A 2.519 2.519 0 0 0 63.952 291.632 A 2.92 2.92 0 0 0 63.444 292.52 Q 63.138 293.334 63.097 294.548 A 11.444 11.444 0 0 0 63.091 294.936 L 63.091 301.124 L 61.304 301.124 L 61.304 289.329 L 62.757 289.329 L 63.048 290.943 L 63.134 290.943 A 3.617 3.617 0 0 1 64.551 289.654 A 4.35 4.35 0 0 1 64.673 289.593 A 4.838 4.838 0 0 1 66.394 289.134 A 5.849 5.849 0 0 1 66.879 289.114 A 7.053 7.053 0 0 1 68.079 289.209 Q 69.337 289.427 70.086 290.142 A 3.096 3.096 0 0 1 70.84 291.326 Q 71.021 291.814 71.1 292.418 A 7.796 7.796 0 0 1 71.162 293.429 L 71.162 301.124 Z M 36.843 289.329 L 36.843 290.717 L 33.84 290.717 L 33.84 301.124 L 32.054 301.124 L 32.054 290.717 L 29.944 290.717 L 29.944 289.91 L 32.054 289.265 L 32.054 288.608 A 7.24 7.24 0 0 1 32.223 286.967 Q 32.746 284.729 34.885 284.342 A 5.43 5.43 0 0 1 35.853 284.26 A 5.753 5.753 0 0 1 36.667 284.323 Q 37.3 284.413 38.048 284.637 L 37.585 286.068 Q 36.851 285.831 36.27 285.763 A 3.842 3.842 0 0 0 35.82 285.735 A 2.409 2.409 0 0 0 35.24 285.8 A 1.547 1.547 0 0 0 34.325 286.407 Q 33.84 287.08 33.84 288.565 L 33.84 289.329 L 36.843 289.329 Z M 80.256 299.65 L 80.256 301.016 A 1.757 1.757 0 0 1 80.047 301.099 Q 79.825 301.173 79.507 301.23 A 6.68 6.68 0 0 1 79.4 301.248 A 7.743 7.743 0 0 1 78.895 301.313 Q 78.623 301.339 78.383 301.339 A 4.666 4.666 0 0 1 77.008 301.154 Q 75.497 300.688 75.101 299.046 A 5.615 5.615 0 0 1 74.961 297.734 L 74.961 290.717 L 73.271 290.717 L 73.271 289.856 L 74.961 289.114 L 75.714 286.596 L 76.747 286.596 L 76.747 289.329 L 80.169 289.329 L 80.169 290.717 L 76.747 290.717 L 76.747 297.659 Q 76.747 298.407 76.997 298.911 A 1.733 1.733 0 0 0 77.253 299.294 A 1.66 1.66 0 0 0 78.273 299.838 A 2.388 2.388 0 0 0 78.641 299.865 A 5.867 5.867 0 0 0 79.501 299.803 A 5.409 5.409 0 0 0 79.556 299.795 Q 79.997 299.725 80.256 299.65 Z M 45.786 289.243 L 45.538 290.9 A 7.873 7.873 0 0 0 44.972 290.796 Q 44.579 290.739 44.247 290.739 A 3.095 3.095 0 0 0 41.96 291.727 A 4.235 4.235 0 0 0 41.799 291.901 A 4.079 4.079 0 0 0 40.814 294.192 A 5.422 5.422 0 0 0 40.782 294.796 L 40.782 301.124 L 38.995 301.124 L 38.995 289.329 L 40.469 289.329 L 40.674 291.514 L 40.76 291.514 A 6.033 6.033 0 0 1 41.435 290.55 A 4.608 4.608 0 0 1 42.342 289.738 A 3.561 3.561 0 0 1 44.376 289.114 A 8.201 8.201 0 0 1 45.11 289.145 A 5.986 5.986 0 0 1 45.786 289.243 Z M 58.009 297.011 A 9.228 9.228 0 0 0 58.172 295.216 A 10.485 10.485 0 0 0 58.169 294.932 Q 58.098 292.323 56.714 290.76 A 4.677 4.677 0 0 0 54.543 289.36 A 6.003 6.003 0 0 0 52.781 289.114 A 6.938 6.938 0 0 0 51.535 289.221 A 4.725 4.725 0 0 0 48.777 290.723 A 4.935 4.935 0 0 0 48.171 291.563 Q 47.335 293.02 47.335 295.216 A 8.937 8.937 0 0 0 47.448 296.663 A 6.609 6.609 0 0 0 48.003 298.466 A 5.872 5.872 0 0 0 48.133 298.72 A 4.836 4.836 0 0 0 49.897 300.597 A 4.974 4.974 0 0 0 51.039 301.104 A 5.737 5.737 0 0 0 52.706 301.339 A 6.937 6.937 0 0 0 53.917 301.238 A 4.763 4.763 0 0 0 56.72 299.72 Q 57.684 298.644 58.009 297.011 Z M 49.186 295.216 A 9.047 9.047 0 0 0 49.273 296.508 Q 49.367 297.164 49.567 297.696 A 3.748 3.748 0 0 0 50.09 298.66 Q 50.994 299.843 52.749 299.843 A 4.149 4.149 0 0 0 53.843 299.707 A 2.888 2.888 0 0 0 55.412 298.665 A 3.835 3.835 0 0 0 56.009 297.502 Q 56.321 296.546 56.321 295.216 A 8.914 8.914 0 0 0 56.237 293.946 Q 56.144 293.299 55.947 292.775 A 3.678 3.678 0 0 0 55.412 291.799 A 2.939 2.939 0 0 0 53.585 290.709 A 4.506 4.506 0 0 0 52.727 290.631 A 4.252 4.252 0 0 0 51.669 290.755 A 2.845 2.845 0 0 0 50.08 291.783 Q 49.437 292.612 49.257 294.026 A 9.44 9.44 0 0 0 49.186 295.216 Z" id="front_labelLayer" stroke="#777777" fill="#777777" style="stroke:#777777;fill:#777777" vector-effect="non-scaling-stroke"/><path d="M 138.4 389.341 L 138.4 386.4 L 153.2 386.4 L 153.2 389.341 L 153.259 389.4 L 168.341 389.4 L 168.4 389.341 L 168.4 386.4 L 183.2 386.4 L 183.2 389.341 L 183.259 389.4 L 198.341 389.4 L 198.4 389.341 L 198.4 386.4 L 213.2 386.4 L 213.2 389.341 L 213.259 389.4 L 235.341 389.4 L 235.4 389.341 L 235.4 375.4 L 238.341 375.4 L 238.4 375.341 L 238.4 360.259 L 238.341 360.2 L 235.4 360.2 L 235.4 345.4 L 238.341 345.4 L 238.4 345.341 L 238.4 330.259 L 238.341 330.2 L 235.4 330.2 L 235.4 315.4 L 238.341 315.4 L 238.4 315.341 L 238.4 300.259 L 238.341 300.2 L 235.4 300.2 L 235.4 285.4 L 238.341 285.4 L 238.4 285.341 L 238.4 270.259 L 238.341 270.2 L 235.4 270.2 L 235.4 255.4 L 238.341 255.4 L 238.4 255.341 L 238.4 240.259 L 238.341 240.2 L 235.4 240.2 L 235.4 225.4 L 238.341 225.4 L 238.4 225.341 L 238.4 210.259 L 238.341 210.2 L 235.4 210.2 L 235.4 196.259 L 235.341 196.2 L 213.259 196.2 L 213.2 196.259 L 213.2 199.2 L 198.4 199.2 L 198.4 196.259 L 198.341 196.2 L 183.259 196.2 L 183.2 196.259 L 183.2 199.2 L 168.4 199.2 L 168.4 196.259 L 168.341 196.2 L 153.259 196.2 L 153.2 196.259 L 153.2 199.2 L 138.4 199.2 L 138.4 196.259 L 138.341 196.2 L 116.259 196.2 L 116.2 196.259 L 116.2 210.2 L 113.259 210.2 L 113.2 210.259 L 113.2 225.341 L 113.259 225.4 L 116.2 225.4 L 116.2 240.2 L 113.259 240.2 L 113.2 240.259 L 113.2 255.341 L 113.259 255.4 L 116.2 255.4 L 116.2 270.2 L 113.259 270.2 L 113.2 270.259 L 113.2 285.341 L 113.259 285.4 L 116.2 285.4 L 116.2 300.2 L 113.259 300.2 L 113.2 300.259 L 113.2 315.341 L 113.259 315.4 L 116.2 315.4 L 116.2 330.2 L 113.259 330.2 L 113.2 330.259 L 113.2 345.341 L 113.259 345.4 L 116.2 345.4 L 116.2 360.2 L 113.259 360.2 L 113.2 360.259 L 113.2 375.341 L 113.259 375.4 L 116.2 375.4 L 116.2 389.341 L 116.259 389.4 L 138.341 389.4 L 138.4 389.341 Z" id="left_outsideCutPath" stroke="#FF0000" stroke-width="0.03" style="stroke:#FF0000;stroke-width:0.03" vector-effect="non-scaling-stroke"/><path d="M 184.707 288.857 L 184.707 290.434 L 181.296 290.434 L 181.296 302.257 L 179.266 302.257 L 179.266 290.434 L 176.87 290.434 L 176.87 289.517 L 179.266 288.783 L 179.266 288.037 Q 179.266 283.773 182.483 283.19 A 6.169 6.169 0 0 1 183.582 283.098 A 6.536 6.536 0 0 1 184.507 283.169 Q 184.957 283.233 185.458 283.357 A 13.138 13.138 0 0 1 186.076 283.526 L 185.551 285.152 Q 184.377 284.773 183.546 284.773 A 2.737 2.737 0 0 0 182.886 284.848 A 1.758 1.758 0 0 0 181.846 285.537 A 2.348 2.348 0 0 0 181.536 286.163 Q 181.33 286.775 181.301 287.683 A 9.583 9.583 0 0 0 181.296 287.989 L 181.296 288.857 L 184.707 288.857 Z M 175.207 294.64 L 175.207 295.924 L 165.976 295.924 Q 166.018 297.536 166.559 298.617 A 3.811 3.811 0 0 0 167.168 299.506 A 3.688 3.688 0 0 0 169.104 300.597 A 5.588 5.588 0 0 0 170.353 300.729 A 10.719 10.719 0 0 0 174.368 299.933 A 12.284 12.284 0 0 0 174.632 299.824 L 174.632 301.633 Q 173.556 302.098 172.597 302.3 A 8.52 8.52 0 0 1 171.751 302.43 Q 171.335 302.475 170.864 302.492 A 16.536 16.536 0 0 1 170.28 302.502 A 7.887 7.887 0 0 1 168.306 302.268 A 5.585 5.585 0 0 1 165.591 300.692 A 5.973 5.973 0 0 1 164.162 298.068 Q 163.914 297.138 163.879 296.033 A 11.593 11.593 0 0 1 163.873 295.667 A 10.657 10.657 0 0 1 164.07 293.553 Q 164.434 291.756 165.469 290.519 A 5.201 5.201 0 0 1 169.259 288.629 A 7.175 7.175 0 0 1 169.754 288.612 A 6.183 6.183 0 0 1 171.495 288.845 A 4.705 4.705 0 0 1 173.74 290.269 A 5.675 5.675 0 0 1 175.026 292.862 A 8.261 8.261 0 0 1 175.207 294.64 Z M 193.315 300.582 L 193.315 302.135 Q 193.016 302.278 192.464 302.377 A 7.59 7.59 0 0 1 192.343 302.398 Q 191.743 302.495 191.256 302.501 A 5.201 5.201 0 0 1 191.187 302.502 Q 188.086 302.502 187.458 299.896 A 6.38 6.38 0 0 1 187.299 298.406 L 187.299 290.434 L 185.38 290.434 L 185.38 289.456 L 187.299 288.612 L 188.155 285.751 L 189.329 285.751 L 189.329 288.857 L 193.217 288.857 L 193.217 290.434 L 189.329 290.434 L 189.329 298.32 Q 189.329 299.171 189.612 299.743 A 1.969 1.969 0 0 0 189.903 300.178 A 1.885 1.885 0 0 0 191.062 300.795 A 2.713 2.713 0 0 0 191.481 300.826 A 6.666 6.666 0 0 0 192.457 300.757 A 6.144 6.144 0 0 0 192.52 300.747 A 10.979 10.979 0 0 0 192.813 300.697 Q 193.113 300.641 193.315 300.582 Z M 160.315 283.232 L 160.315 302.257 L 158.285 302.257 L 158.285 283.232 L 160.315 283.232 Z M 166.025 294.273 L 173.031 294.273 Q 173.031 292.353 172.175 291.333 Q 171.319 290.312 169.73 290.312 A 4.001 4.001 0 0 0 168.574 290.47 A 3.091 3.091 0 0 0 167.156 291.363 Q 166.287 292.314 166.065 293.926 A 7.667 7.667 0 0 0 166.025 294.273 Z" id="left_labelLayer" stroke="#777777" fill="#777777" style="stroke:#777777;fill:#777777" vector-effect="non-scaling-stroke"/><path d="M 274.1 389.341 L 274.1 386.4 L 288.9 386.4 L 288.9 389.341 L 288.959 389.4 L 304.041 389.4 L 304.1 389.341 L 304.1 386.4 L 318.9 386.4 L 318.9 389.341 L 318.959 389.4 L 334.041 389.4 L 334.1 389.341 L 334.1 386.4 L 348.541 386.4 L 348.6 386.341 L 348.6 364.4 L 351.541 364.4 L 351.6 364.341 L 351.6 349.259 L 351.541 349.2 L 348.6 349.2 L 348.6 334.4 L 351.541 334.4 L 351.6 334.341 L 351.6 319.259 L 351.541 319.2 L 348.6 319.2 L 348.6 304.4 L 351.541 304.4 L 351.6 304.341 L 351.6 289.259 L 351.541 289.2 L 348.6 289.2 L 348.6 267.259 L 348.541 267.2 L 334.1 267.2 L 334.1 264.259 L 334.041 264.2 L 318.959 264.2 L 318.9 264.259 L 318.9 267.2 L 304.1 267.2 L 304.1 264.259 L 304.041 264.2 L 288.959 264.2 L 288.9 264.259 L 288.9 267.2 L 274.1 267.2 L 274.1 264.259 L 274.041 264.2 L 258.959 264.2 L 258.9 264.259 L 258.9 267.2 L 244.459 267.2 L 244.4 267.259 L 244.4 289.2 L 241.459 289.2 L 241.4 289.259 L 241.4 304.341 L 241.459 304.4 L 244.4 304.4 L 244.4 319.2 L 241.459 319.2 L 241.4 319.259 L 241.4 334.341 L 241.459 334.4 L 244.4 334.4 L 244.4 349.2 L 241.459 349.2 L 241.4 349.259 L 241.4 364.341 L 241.459 364.4 L 244.4 364.4 L 244.4 386.341 L 244.459 386.4 L 258.9 386.4 L 258.9 389.341 L 258.959 389.4 L 274.041 389.4 L 274.1 389.341 Z" id="top_outsideCutPath" stroke="#FF0000" stroke-width="0.03" style="stroke:#FF0000;stroke-width:0.03" vector-effect="non-scaling-stroke"/><path d="M 304.421 329.899 L 304.291 329.899 A 16.906 16.906 0 0 1 304.402 331.149 A 14.167 14.167 0 0 1 304.421 331.858 L 304.421 336.712 L 302.634 336.712 L 302.634 319.622 L 304.087 319.622 L 304.334 321.236 L 304.421 321.236 A 4.809 4.809 0 0 1 305.116 320.446 A 3.718 3.718 0 0 1 306.024 319.837 Q 306.939 319.407 308.123 319.407 A 5.476 5.476 0 0 1 309.67 319.614 A 4.047 4.047 0 0 1 311.744 321.01 Q 313.019 322.614 313.019 325.509 A 10.474 10.474 0 0 1 312.88 327.271 Q 312.72 328.21 312.373 328.964 A 5.021 5.021 0 0 1 311.722 330.023 A 4.229 4.229 0 0 1 308.717 331.604 A 6.059 6.059 0 0 1 308.123 331.632 A 5.419 5.419 0 0 1 306.761 331.466 A 4.715 4.715 0 0 1 306.019 331.207 Q 305.066 330.782 304.421 329.899 Z M 286.965 329.942 L 286.965 331.309 A 1.757 1.757 0 0 1 286.757 331.392 Q 286.534 331.466 286.216 331.522 A 6.68 6.68 0 0 1 286.109 331.541 A 7.743 7.743 0 0 1 285.605 331.606 Q 285.333 331.632 285.092 331.632 A 4.666 4.666 0 0 1 283.717 331.447 Q 282.206 330.981 281.81 329.339 A 5.615 5.615 0 0 1 281.67 328.027 L 281.67 321.01 L 279.981 321.01 L 279.981 320.149 L 281.67 319.407 L 282.424 316.888 L 283.457 316.888 L 283.457 319.622 L 286.879 319.622 L 286.879 321.01 L 283.457 321.01 L 283.457 327.952 Q 283.457 328.7 283.706 329.204 A 1.733 1.733 0 0 0 283.963 329.587 A 1.66 1.66 0 0 0 284.983 330.13 A 2.388 2.388 0 0 0 285.351 330.158 A 5.867 5.867 0 0 0 286.21 330.096 A 5.409 5.409 0 0 0 286.266 330.088 Q 286.707 330.018 286.965 329.942 Z M 299.338 327.304 A 9.228 9.228 0 0 0 299.502 325.509 A 10.485 10.485 0 0 0 299.499 325.225 Q 299.428 322.616 298.044 321.053 A 4.677 4.677 0 0 0 295.873 319.653 A 6.003 6.003 0 0 0 294.111 319.407 A 6.938 6.938 0 0 0 292.865 319.514 A 4.725 4.725 0 0 0 290.107 321.016 A 4.935 4.935 0 0 0 289.501 321.856 Q 288.665 323.313 288.665 325.509 A 8.937 8.937 0 0 0 288.778 326.956 A 6.609 6.609 0 0 0 289.333 328.759 A 5.872 5.872 0 0 0 289.463 329.013 A 4.836 4.836 0 0 0 291.227 330.889 A 4.974 4.974 0 0 0 292.368 331.397 A 5.737 5.737 0 0 0 294.035 331.632 A 6.937 6.937 0 0 0 295.247 331.531 A 4.763 4.763 0 0 0 298.05 330.012 Q 299.014 328.937 299.338 327.304 Z M 290.516 325.509 A 9.047 9.047 0 0 0 290.602 326.801 Q 290.697 327.457 290.897 327.988 A 3.748 3.748 0 0 0 291.42 328.952 Q 292.324 330.136 294.079 330.136 A 4.149 4.149 0 0 0 295.173 330 A 2.888 2.888 0 0 0 296.742 328.958 A 3.835 3.835 0 0 0 297.339 327.795 Q 297.651 326.839 297.651 325.509 A 8.914 8.914 0 0 0 297.567 324.238 Q 297.474 323.592 297.277 323.068 A 3.678 3.678 0 0 0 296.742 322.092 A 2.939 2.939 0 0 0 294.915 321.002 A 4.506 4.506 0 0 0 294.057 320.924 A 4.252 4.252 0 0 0 292.999 321.048 A 2.845 2.845 0 0 0 291.41 322.076 Q 290.767 322.905 290.586 324.319 A 9.44 9.44 0 0 0 290.516 325.509 Z M 304.421 325.11 L 304.421 325.509 A 11.812 11.812 0 0 0 304.479 326.729 Q 304.607 327.961 305.018 328.711 A 2.694 2.694 0 0 0 305.249 329.065 A 2.592 2.592 0 0 0 306.564 329.953 Q 307.003 330.09 307.539 330.125 A 5.744 5.744 0 0 0 307.907 330.136 Q 309.377 330.136 310.234 328.992 A 3.56 3.56 0 0 0 310.302 328.899 Q 310.985 327.922 311.13 326.363 A 9.517 9.517 0 0 0 311.168 325.487 Q 311.168 324.039 310.795 323.034 A 3.787 3.787 0 0 0 310.302 322.103 A 2.779 2.779 0 0 0 308.269 320.945 A 3.844 3.844 0 0 0 307.864 320.924 A 5.147 5.147 0 0 0 306.903 321.008 Q 305.823 321.213 305.249 321.925 A 3.061 3.061 0 0 0 304.771 322.797 Q 304.468 323.62 304.426 324.836 A 11.369 11.369 0 0 0 304.421 325.11 Z" id="top_labelLayer" stroke="#777777" fill="#777777" style="stroke:#777777;fill:#777777" vector-effect="non-scaling-stroke"/><path d="M 17.7 193.141 L 17.7 190.2 L 32.5 190.2 L 32.5 193.141 L 32.559 193.2 L 47.641 193.2 L 47.7 193.141 L 47.7 190.2 L 62.5 190.2 L 62.5 193.141 L 62.559 193.2 L 77.641 193.2 L 77.7 193.141 L 77.7 190.2 L 92.5 190.2 L 92.5 193.141 L 92.559 193.2 L 110.141 193.2 L 110.2 193.141 L 110.2 179.059 L 110.141 179 L 107.2 179 L 107.2 164.2 L 110.141 164.2 L 110.2 164.141 L 110.2 149.059 L 110.141 149 L 107.2 149 L 107.2 134.2 L 110.141 134.2 L 110.2 134.141 L 110.2 119.059 L 110.141 119 L 107.2 119 L 107.2 104.2 L 110.141 104.2 L 110.2 104.141 L 110.2 89.059 L 110.141 89 L 107.2 89 L 107.2 74.2 L 110.141 74.2 L 110.2 74.141 L 110.2 59.059 L 110.141 59 L 107.2 59 L 107.2 44.2 L 110.141 44.2 L 110.2 44.141 L 110.2 29.059 L 110.141 29 L 107.2 29 L 107.2 14.2 L 110.141 14.2 L 110.2 14.141 L 110.2 0.059 L 110.141 0 L 92.559 0 L 92.5 0.059 L 92.5 3 L 77.7 3 L 77.7 0.059 L 77.641 0 L 62.559 0 L 62.5 0.059 L 62.5 3 L 47.7 3 L 47.7 0.059 L 47.641 0 L 32.559 0 L 32.5 0.059 L 32.5 3 L 17.7 3 L 17.7 0.059 L 17.641 0 L 0.059 0 L 0 0.059 L 0 14.141 L 0.059 14.2 L 3 14.2 L 3 29 L 0.059 29 L 0 29.059 L 0 44.141 L 0.059 44.2 L 3 44.2 L 3 59 L 0.059 59 L 0 59.059 L 0 74.141 L 0.059 74.2 L 3 74.2 L 3 89 L 0.059 89 L 0 89.059 L 0 104.141 L 0.059 104.2 L 3 104.2 L 3 119 L 0.059 119 L 0 119.059 L 0 134.141 L 0.059 134.2 L 3 134.2 L 3 149 L 0.059 149 L 0 149.059 L 0 164.141 L 0.059 164.2 L 3 164.2 L 3 179 L 0.059 179 L 0 179.059 L 0 193.141 L 0.059 193.2 L 17.641 193.2 L 17.7 193.141 Z" id="back_outsideCutPath" stroke="#FF0000" stroke-width="0.03" style="stroke:#FF0000;stroke-width:0.03" vector-effect="non-scaling-stroke"/><path d="M 70.188 98.828 L 70.274 98.828 Q 70.628 98.325 71.266 97.583 A 38.383 38.383 0 0 1 71.684 97.106 L 75.493 93.07 L 77.614 93.07 L 72.835 98.096 L 77.947 104.865 L 75.784 104.865 L 71.619 99.29 L 70.274 100.453 L 70.274 104.865 L 68.509 104.865 L 68.509 88.12 L 70.274 88.12 L 70.274 96.998 Q 70.274 97.579 70.191 98.783 A 73.218 73.218 0 0 1 70.188 98.828 Z M 34.039 103.347 L 33.91 103.347 L 33.534 104.865 L 32.253 104.865 L 32.253 88.12 L 34.039 88.12 L 34.039 92.188 A 37.246 37.246 0 0 1 34.019 93.446 Q 33.998 94.081 33.953 94.641 L 34.039 94.641 A 4.062 4.062 0 0 1 37.004 92.919 A 6.101 6.101 0 0 1 37.741 92.876 A 5.46 5.46 0 0 1 39.278 93.081 A 4.087 4.087 0 0 1 41.352 94.464 A 5.264 5.264 0 0 1 42.275 96.241 Q 42.502 96.974 42.587 97.851 A 11.467 11.467 0 0 1 42.638 98.957 A 10.474 10.474 0 0 1 42.499 100.719 Q 42.339 101.658 41.992 102.412 A 5.021 5.021 0 0 1 41.341 103.471 A 4.229 4.229 0 0 1 38.335 105.052 A 6.059 6.059 0 0 1 37.741 105.08 A 5.419 5.419 0 0 1 36.38 104.914 A 4.715 4.715 0 0 1 35.637 104.655 Q 34.685 104.23 34.039 103.347 Z M 54.336 104.865 L 53.012 104.865 L 52.657 103.186 L 52.571 103.186 A 7.406 7.406 0 0 1 51.972 103.857 Q 51.39 104.428 50.811 104.687 A 4.12 4.12 0 0 1 49.961 104.956 Q 49.548 105.041 49.07 105.068 A 8.039 8.039 0 0 1 48.621 105.08 A 5.482 5.482 0 0 1 47.506 104.973 Q 46.824 104.832 46.3 104.502 A 3.076 3.076 0 0 1 45.872 104.176 A 2.936 2.936 0 0 1 44.986 102.628 A 4.495 4.495 0 0 1 44.876 101.604 A 3.091 3.091 0 0 1 46.635 98.687 Q 47.944 97.99 50.228 97.874 A 17.45 17.45 0 0 1 50.591 97.859 L 52.593 97.794 L 52.593 97.063 Q 52.593 96.214 52.369 95.637 A 1.994 1.994 0 0 0 51.995 95.013 A 1.813 1.813 0 0 0 51.252 94.528 Q 50.955 94.42 50.587 94.378 A 4.414 4.414 0 0 0 50.085 94.351 A 5.816 5.816 0 0 0 48.746 94.518 Q 48.132 94.663 47.464 94.935 A 11.964 11.964 0 0 0 46.749 95.255 L 46.2 93.888 A 8.237 8.237 0 0 1 47.79 93.234 A 9.376 9.376 0 0 1 48.11 93.145 Q 49.149 92.876 50.193 92.876 A 7.545 7.545 0 0 1 51.342 92.958 Q 51.932 93.049 52.404 93.243 A 3.04 3.04 0 0 1 53.319 93.813 A 2.829 2.829 0 0 1 54.049 94.939 Q 54.219 95.401 54.289 95.976 A 7.029 7.029 0 0 1 54.336 96.815 L 54.336 104.865 Z M 65.883 93.468 L 65.334 94.986 A 7.947 7.947 0 0 0 64.472 94.699 A 9.491 9.491 0 0 0 64.043 94.593 A 7.379 7.379 0 0 0 63.482 94.489 Q 63.208 94.45 62.964 94.44 A 3.96 3.96 0 0 0 62.805 94.437 Q 59.211 94.437 59.211 99.021 A 8.652 8.652 0 0 0 59.297 100.281 Q 59.485 101.558 60.088 102.357 A 2.837 2.837 0 0 0 61.926 103.456 A 4.322 4.322 0 0 0 62.687 103.52 A 7.478 7.478 0 0 0 64.75 103.22 A 9.233 9.233 0 0 0 65.711 102.885 L 65.711 104.467 A 5.081 5.081 0 0 1 64.468 104.907 Q 63.686 105.08 62.73 105.08 A 6.677 6.677 0 0 1 61.106 104.894 A 4.527 4.527 0 0 1 58.764 103.504 Q 57.36 101.927 57.36 99.043 A 9.857 9.857 0 0 1 57.513 97.25 Q 57.698 96.251 58.107 95.462 A 4.925 4.925 0 0 1 58.786 94.469 A 4.626 4.626 0 0 1 61.319 93.012 A 7.013 7.013 0 0 1 62.848 92.855 A 8.062 8.062 0 0 1 64.549 93.038 Q 65.39 93.219 65.872 93.463 A 2.663 2.663 0 0 1 65.883 93.468 Z M 35.536 94.816 A 2.376 2.376 0 0 0 34.846 95.421 Q 34.137 96.343 34.051 98.374 A 13.764 13.764 0 0 0 34.039 98.957 A 11.812 11.812 0 0 0 34.098 100.178 Q 34.226 101.409 34.637 102.159 A 2.694 2.694 0 0 0 34.868 102.513 A 2.592 2.592 0 0 0 36.183 103.401 Q 36.622 103.538 37.158 103.573 A 5.744 5.744 0 0 0 37.526 103.584 A 3.561 3.561 0 0 0 38.538 103.449 A 2.569 2.569 0 0 0 39.98 102.384 Q 40.556 101.527 40.721 100.135 A 10.236 10.236 0 0 0 40.787 98.935 A 10.554 10.554 0 0 0 40.723 97.733 Q 40.56 96.314 39.98 95.502 A 2.605 2.605 0 0 0 38.321 94.453 A 4.132 4.132 0 0 0 37.483 94.372 Q 36.294 94.372 35.536 94.816 Z M 52.549 100.13 L 52.549 99.064 L 50.763 99.14 Q 48.984 99.203 48.034 99.622 A 2.744 2.744 0 0 0 47.691 99.801 A 1.906 1.906 0 0 0 46.782 101.184 A 2.822 2.822 0 0 0 46.749 101.626 A 2.553 2.553 0 0 0 46.812 102.211 Q 46.918 102.662 47.202 102.971 A 1.591 1.591 0 0 0 47.335 103.1 A 1.945 1.945 0 0 0 48.064 103.487 Q 48.352 103.572 48.698 103.596 A 4.018 4.018 0 0 0 48.977 103.606 A 4.919 4.919 0 0 0 50.039 103.498 Q 50.779 103.334 51.325 102.923 A 2.983 2.983 0 0 0 51.597 102.691 Q 52.544 101.781 52.549 100.148 A 5.66 5.66 0 0 0 52.549 100.13 Z" id="back_labelLayer" stroke="#777777" fill="#777777" style="stroke:#777777;fill:#777777" vector-effect="non-scaling-stroke"/><path d="M 138.4 193.141 L 138.4 190.2 L 153.2 190.2 L 153.2 193.141 L 153.259 193.2 L 168.341 193.2 L 168.4 193.141 L 168.4 190.2 L 183.2 190.2 L 183.2 193.141 L 183.259 193.2 L 198.341 193.2 L 198.4 193.141 L 198.4 190.2 L 213.2 190.2 L 213.2 193.141 L 213.259 193.2 L 235.341 193.2 L 235.4 193.141 L 235.4 179.2 L 238.341 179.2 L 238.4 179.141 L 238.4 164.059 L 238.341 164 L 235.4 164 L 235.4 149.2 L 238.341 149.2 L 238.4 149.141 L 238.4 134.059 L 238.341 134 L 235.4 134 L 235.4 119.2 L 238.341 119.2 L 238.4 119.141 L 238.4 104.059 L 238.341 104 L 235.4 104 L 235.4 89.2 L 238.341 89.2 L 238.4 89.141 L 238.4 74.059 L 238.341 74 L 235.4 74 L 235.4 59.2 L 238.341 59.2 L 238.4 59.141 L 238.4 44.059 L 238.341 44 L 235.4 44 L 235.4 29.2 L 238.341 29.2 L 238.4 29.141 L 238.4 14.059 L 238.341 14 L 235.4 14 L 235.4 0.059 L 235.341 0 L 213.259 0 L 213.2 0.059 L 213.2 3 L 198.4 3 L 198.4 0.059 L 198.341 0 L 183.259 0 L 183.2 0.059 L 183.2 3 L 168.4 3 L 168.4 0.059 L 168.341 0 L 153.259 0 L 153.2 0.059 L 153.2 3 L 138.4 3 L 138.4 0.059 L 138.341 0 L 116.259 0 L 116.2 0.059 L 116.2 14 L 113.259 14 L 113.2 14.059 L 113.2 29.141 L 113.259 29.2 L 116.2 29.2 L 116.2 44 L 113.259 44 L 113.2 44.059 L 113.2 59.141 L 113.259 59.2 L 116.2 59.2 L 116.2 74 L 113.259 74 L 113.2 74.059 L 113.2 89.141 L 113.259 89.2 L 116.2 89.2 L 116.2 104 L 113.259 104 L 113.2 104.059 L 113.2 119.141 L 113.259 119.2 L 116.2 119.2 L 116.2 134 L 113.259 134 L 113.2 134.059 L 113.2 149.141 L 113.259 149.2 L 116.2 149.2 L 116.2 164 L 113.259 164 L 113.2 164.059 L 113.2 179.141 L 113.259 179.2 L 116.2 179.2 L 116.2 193.141 L 116.259 193.2 L 138.341 193.2 L 138.4 193.141 Z" id="right_outsideCutPath" stroke="#FF0000" stroke-width="0.03" style="stroke:#FF0000;stroke-width:0.03" vector-effect="non-scaling-stroke"/><path d="M 191.371 103.104 L 189.341 103.104 L 189.341 94.436 A 5.737 5.737 0 0 0 189.275 93.536 Q 189.2 93.062 189.038 92.685 A 2.414 2.414 0 0 0 188.595 91.991 A 2.288 2.288 0 0 0 187.657 91.392 Q 187.288 91.262 186.835 91.213 A 5.381 5.381 0 0 0 186.26 91.184 Q 184.879 91.184 183.985 91.674 A 2.842 2.842 0 0 0 183.173 92.333 Q 182.284 93.384 182.208 95.661 A 13.099 13.099 0 0 0 182.201 96.099 L 182.201 103.104 L 180.171 103.104 L 180.171 84.08 L 182.201 84.08 L 182.201 89.839 Q 182.201 90.878 182.103 91.563 L 182.225 91.563 A 4.055 4.055 0 0 1 183.646 90.195 A 4.954 4.954 0 0 1 183.931 90.04 A 5.21 5.21 0 0 1 185.641 89.533 A 6.587 6.587 0 0 1 186.455 89.484 A 8.234 8.234 0 0 1 187.839 89.592 Q 189.287 89.84 190.142 90.652 Q 191.371 91.819 191.371 94.362 L 191.371 103.104 Z M 172.786 89.704 L 177.42 89.704 L 177.42 90.988 L 174.938 91.281 A 3.298 3.298 0 0 1 175.224 91.706 Q 175.349 91.926 175.462 92.188 A 6.257 6.257 0 0 1 175.549 92.4 A 3.905 3.905 0 0 1 175.781 93.333 A 5.014 5.014 0 0 1 175.818 93.959 A 4.653 4.653 0 0 1 175.605 95.401 A 3.763 3.763 0 0 1 174.473 97.101 Q 173.128 98.275 170.781 98.275 A 6.523 6.523 0 0 1 170.026 98.233 A 5.508 5.508 0 0 1 169.656 98.177 A 3.612 3.612 0 0 0 169.074 98.554 Q 168.36 99.13 168.36 99.901 Q 168.36 100.451 168.813 100.714 Q 169.177 100.926 169.962 100.967 A 7.721 7.721 0 0 0 170.365 100.977 L 172.737 100.977 A 8.308 8.308 0 0 1 173.999 101.067 Q 174.659 101.168 175.192 101.385 A 3.668 3.668 0 0 1 176.081 101.894 A 2.969 2.969 0 0 1 177.185 103.786 A 4.46 4.46 0 0 1 177.249 104.559 Q 177.249 106.785 175.464 107.952 Q 174.219 108.766 172.178 109.013 A 16.087 16.087 0 0 1 170.255 109.12 Q 168.53 109.12 167.324 108.699 A 4.717 4.717 0 0 1 166.202 108.142 Q 164.778 107.164 164.778 105.379 Q 164.778 104.156 165.56 103.263 A 3.544 3.544 0 0 1 166.778 102.376 A 5.023 5.023 0 0 1 167.761 102.053 A 2.106 2.106 0 0 1 166.943 101.392 A 2.501 2.501 0 0 1 166.899 101.332 A 1.882 1.882 0 0 1 166.554 100.315 A 2.33 2.33 0 0 1 166.551 100.195 A 2.321 2.321 0 0 1 166.668 99.447 A 2.057 2.057 0 0 1 166.942 98.911 Q 167.333 98.361 168.177 97.847 A 3.558 3.558 0 0 1 166.631 96.61 A 4.41 4.41 0 0 1 166.483 96.392 A 4.196 4.196 0 0 1 165.839 94.37 A 5.121 5.121 0 0 1 165.829 94.045 A 5.864 5.864 0 0 1 165.984 92.658 A 3.858 3.858 0 0 1 167.15 90.652 A 4.31 4.31 0 0 1 168.804 89.739 Q 169.461 89.538 170.252 89.482 A 8.964 8.964 0 0 1 170.891 89.46 A 7.78 7.78 0 0 1 171.92 89.525 A 5.925 5.925 0 0 1 172.786 89.704 Z M 201.702 101.429 L 201.702 102.982 Q 201.404 103.126 200.851 103.224 A 7.59 7.59 0 0 1 200.73 103.245 Q 200.131 103.342 199.643 103.349 A 5.201 5.201 0 0 1 199.575 103.349 Q 196.474 103.349 195.846 100.743 A 6.38 6.38 0 0 1 195.687 99.253 L 195.687 91.281 L 193.767 91.281 L 193.767 90.303 L 195.687 89.46 L 196.542 86.599 L 197.716 86.599 L 197.716 89.704 L 201.604 89.704 L 201.604 91.281 L 197.716 91.281 L 197.716 99.168 Q 197.716 100.018 198 100.591 A 1.969 1.969 0 0 0 198.291 101.026 A 1.885 1.885 0 0 0 199.45 101.643 A 2.713 2.713 0 0 0 199.868 101.674 A 6.666 6.666 0 0 0 200.844 101.604 A 6.144 6.144 0 0 0 200.907 101.594 A 10.979 10.979 0 0 0 201.2 101.544 Q 201.5 101.488 201.702 101.429 Z M 157.613 89.606 L 157.332 91.489 A 8.945 8.945 0 0 0 156.689 91.37 Q 156.368 91.324 156.082 91.311 A 4.76 4.76 0 0 0 155.865 91.306 A 3.517 3.517 0 0 0 153.266 92.428 A 4.811 4.811 0 0 0 153.083 92.626 A 4.635 4.635 0 0 0 151.965 95.229 A 6.161 6.161 0 0 0 151.928 95.915 L 151.928 103.104 L 149.898 103.104 L 149.898 89.704 L 151.573 89.704 L 151.805 92.186 L 151.903 92.186 A 6.854 6.854 0 0 1 152.67 91.091 A 5.236 5.236 0 0 1 153.7 90.169 Q 154.752 89.46 156.011 89.46 A 9.318 9.318 0 0 1 156.845 89.495 A 6.801 6.801 0 0 1 157.613 89.606 Z M 162.149 89.704 L 162.149 103.104 L 160.119 103.104 L 160.119 89.704 L 162.149 89.704 Z M 172.089 102.799 L 169.656 102.799 Q 168.644 102.799 167.96 103.153 A 2.377 2.377 0 0 0 167.504 103.459 A 2.139 2.139 0 0 0 166.802 104.672 A 3.248 3.248 0 0 0 166.734 105.354 Q 166.734 106.442 167.651 107.005 A 3.25 3.25 0 0 0 168.45 107.347 Q 169.21 107.567 170.28 107.567 A 13.644 13.644 0 0 0 171.612 107.507 Q 172.948 107.375 173.787 106.957 A 3.371 3.371 0 0 0 174.064 106.803 A 2.961 2.961 0 0 0 174.751 106.228 A 2.219 2.219 0 0 0 175.293 104.731 Q 175.293 104.056 175.034 103.638 A 1.279 1.279 0 0 0 174.62 103.221 A 1.925 1.925 0 0 0 174.164 103.021 Q 173.677 102.872 172.908 102.823 A 12.914 12.914 0 0 0 172.089 102.799 Z M 168.287 95.727 A 2.171 2.171 0 0 0 168.629 96.123 Q 169.424 96.844 170.842 96.844 Q 173.813 96.844 173.813 93.959 A 4.364 4.364 0 0 0 173.664 92.764 Q 173.143 90.939 170.805 90.939 A 4.259 4.259 0 0 0 169.938 91.022 Q 169.406 91.133 169.001 91.391 A 2.336 2.336 0 0 0 168.605 91.709 A 2.436 2.436 0 0 0 168.015 92.702 Q 167.891 93.087 167.852 93.554 A 5.339 5.339 0 0 0 167.834 93.996 Q 167.834 95.056 168.287 95.727 Z M 159.977 85.701 A 2.249 2.249 0 0 0 159.948 86.073 Q 159.948 86.418 160.035 86.674 A 1.048 1.048 0 0 0 160.291 87.094 A 1.139 1.139 0 0 0 160.703 87.356 A 1.289 1.289 0 0 0 161.146 87.43 Q 161.636 87.43 161.99 87.094 A 0.99 0.99 0 0 0 162.184 86.838 Q 162.272 86.671 162.312 86.458 A 2.1 2.1 0 0 0 162.345 86.073 A 2.322 2.322 0 0 0 162.335 85.853 Q 162.316 85.653 162.26 85.489 A 1.025 1.025 0 0 0 161.99 85.058 A 1.196 1.196 0 0 0 161.146 84.728 A 1.549 1.549 0 0 0 161.044 84.731 A 1.174 1.174 0 0 0 160.291 85.052 Q 160.047 85.282 159.977 85.701 Z" id="right_labelLayer" stroke="#777777" fill="#777777" style="stroke:#777777;fill:#777777" vector-effect="non-scaling-stroke"/><path d="M 274.1 261.141 L 274.1 258.2 L 288.9 258.2 L 288.9 261.141 L 288.959 261.2 L 304.041 261.2 L 304.1 261.141 L 304.1 258.2 L 318.9 258.2 L 318.9 261.141 L 318.959 261.2 L 334.041 261.2 L 334.1 261.141 L 334.1 258.2 L 348.541 258.2 L 348.6 258.141 L 348.6 236.2 L 351.541 236.2 L 351.6 236.141 L 351.6 221.059 L 351.541 221 L 348.6 221 L 348.6 206.2 L 351.541 206.2 L 351.6 206.141 L 351.6 191.059 L 351.541 191 L 348.6 191 L 348.6 176.2 L 351.541 176.2 L 351.6 176.141 L 351.6 161.059 L 351.541 161 L 348.6 161 L 348.6 139.059 L 348.541 139 L 334.1 139 L 334.1 136.059 L 334.041 136 L 318.959 136 L 318.9 136.059 L 318.9 139 L 304.1 139 L 304.1 136.059 L 304.041 136 L 288.959 136 L 288.9 136.059 L 288.9 139 L 274.1 139 L 274.1 136.059 L 274.041 136 L 258.959 136 L 258.9 136.059 L 258.9 139 L 244.459 139 L 244.4 139.059 L 244.4 161 L 241.459 161 L 241.4 161.059 L 241.4 176.141 L 241.459 176.2 L 244.4 176.2 L 244.4 191 L 241.459 191 L 241.4 191.059 L 241.4 206.141 L 241.459 206.2 L 244.4 206.2 L 244.4 221 L 241.459 221 L 241.4 221.059 L 241.4 236.141 L 241.459 236.2 L 244.4 236.2 L 244.4 258.141 L 244.459 258.2 L 258.9 258.2 L 258.9 261.141 L 258.959 261.2 L 274.041 261.2 L 274.1 261.141 Z" id="bottom_outsideCutPath" stroke="#FF0000" stroke-width="0.03" style="stroke:#FF0000;stroke-width:0.03" vector-effect="non-scaling-stroke"/><path d="M 332.756 206.865 L 330.97 206.865 L 330.97 199.192 Q 330.97 198.308 330.733 197.702 A 2.159 2.159 0 0 0 330.367 197.077 Q 329.764 196.372 328.495 196.372 Q 326.826 196.372 326.03 197.33 A 2.952 2.952 0 0 0 325.529 198.236 Q 325.236 199.059 325.234 200.26 A 9.769 9.769 0 0 0 325.234 200.279 L 325.234 206.865 L 323.447 206.865 L 323.447 199.192 Q 323.447 198.308 323.211 197.702 A 2.159 2.159 0 0 0 322.845 197.077 A 1.874 1.874 0 0 0 321.983 196.517 Q 321.542 196.372 320.961 196.372 Q 319.79 196.372 319.056 196.862 A 2.342 2.342 0 0 0 318.502 197.378 A 2.996 2.996 0 0 0 318.058 198.222 Q 317.77 199.037 317.729 200.258 A 12.438 12.438 0 0 0 317.722 200.677 L 317.722 206.865 L 315.936 206.865 L 315.936 195.07 L 317.388 195.07 L 317.679 196.684 L 317.765 196.684 A 3.511 3.511 0 0 1 319.191 195.339 A 4.241 4.241 0 0 1 320.866 194.869 A 5.123 5.123 0 0 1 321.252 194.855 A 5.849 5.849 0 0 1 322.568 194.992 Q 323.378 195.179 323.943 195.622 A 3.05 3.05 0 0 1 324.868 196.856 L 324.954 196.856 A 3.73 3.73 0 0 1 326.359 195.462 A 4.482 4.482 0 0 1 326.482 195.393 A 4.521 4.521 0 0 1 328.141 194.888 A 5.638 5.638 0 0 1 328.764 194.855 A 6.21 6.21 0 0 1 329.89 194.95 Q 330.516 195.066 331.005 195.322 A 2.944 2.944 0 0 1 331.761 195.882 A 3.076 3.076 0 0 1 332.421 196.963 Q 332.756 197.859 332.756 199.17 L 332.756 206.865 Z M 262.03 205.347 L 261.901 205.347 L 261.524 206.865 L 260.244 206.865 L 260.244 190.119 L 262.03 190.119 L 262.03 194.187 A 37.246 37.246 0 0 1 262.01 195.446 Q 261.988 196.081 261.944 196.641 L 262.03 196.641 A 4.062 4.062 0 0 1 264.995 194.919 A 6.101 6.101 0 0 1 265.732 194.876 A 5.46 5.46 0 0 1 267.269 195.081 A 4.087 4.087 0 0 1 269.343 196.464 A 5.264 5.264 0 0 1 270.266 198.241 Q 270.493 198.974 270.578 199.851 A 11.467 11.467 0 0 1 270.629 200.957 A 10.474 10.474 0 0 1 270.49 202.719 Q 270.329 203.658 269.983 204.411 A 5.021 5.021 0 0 1 269.332 205.471 A 4.229 4.229 0 0 1 266.326 207.052 A 6.059 6.059 0 0 1 265.732 207.08 A 5.419 5.419 0 0 1 264.371 206.914 A 4.715 4.715 0 0 1 263.628 206.655 Q 262.676 206.23 262.03 205.347 Z M 292.486 205.39 L 292.486 206.757 A 1.757 1.757 0 0 1 292.277 206.84 Q 292.055 206.914 291.737 206.97 A 6.68 6.68 0 0 1 291.63 206.988 A 7.743 7.743 0 0 1 291.125 207.054 Q 290.853 207.08 290.613 207.08 A 4.666 4.666 0 0 1 289.238 206.895 Q 287.727 206.428 287.331 204.787 A 5.615 5.615 0 0 1 287.191 203.475 L 287.191 196.458 L 285.501 196.458 L 285.501 195.597 L 287.191 194.855 L 287.944 192.336 L 288.978 192.336 L 288.978 195.07 L 292.4 195.07 L 292.4 196.458 L 288.978 196.458 L 288.978 203.399 Q 288.978 204.148 289.227 204.652 A 1.733 1.733 0 0 0 289.483 205.035 A 1.66 1.66 0 0 0 290.504 205.578 A 2.388 2.388 0 0 0 290.872 205.606 A 5.867 5.867 0 0 0 291.731 205.544 A 5.409 5.409 0 0 0 291.786 205.536 Q 292.228 205.466 292.486 205.39 Z M 300.267 205.39 L 300.267 206.757 A 1.757 1.757 0 0 1 300.058 206.84 Q 299.836 206.914 299.518 206.97 A 6.68 6.68 0 0 1 299.411 206.988 A 7.743 7.743 0 0 1 298.906 207.054 Q 298.634 207.08 298.394 207.08 A 4.666 4.666 0 0 1 297.019 206.895 Q 295.508 206.428 295.112 204.787 A 5.615 5.615 0 0 1 294.972 203.475 L 294.972 196.458 L 293.282 196.458 L 293.282 195.597 L 294.972 194.855 L 295.725 192.336 L 296.758 192.336 L 296.758 195.07 L 300.18 195.07 L 300.18 196.458 L 296.758 196.458 L 296.758 203.399 Q 296.758 204.148 297.008 204.652 A 1.733 1.733 0 0 0 297.264 205.035 A 1.66 1.66 0 0 0 298.284 205.578 A 2.388 2.388 0 0 0 298.652 205.606 A 5.867 5.867 0 0 0 299.512 205.544 A 5.409 5.409 0 0 0 299.567 205.536 Q 300.008 205.466 300.267 205.39 Z M 283.766 202.752 A 9.228 9.228 0 0 0 283.93 200.957 A 10.485 10.485 0 0 0 283.926 200.673 Q 283.856 198.064 282.472 196.501 A 4.677 4.677 0 0 0 280.301 195.101 A 6.003 6.003 0 0 0 278.539 194.855 A 6.938 6.938 0 0 0 277.292 194.962 A 4.725 4.725 0 0 0 274.535 196.464 A 4.935 4.935 0 0 0 273.929 197.304 Q 273.093 198.761 273.093 200.957 A 8.937 8.937 0 0 0 273.205 202.404 A 6.609 6.609 0 0 0 273.76 204.207 A 5.872 5.872 0 0 0 273.89 204.461 A 4.836 4.836 0 0 0 275.654 206.337 A 4.974 4.974 0 0 0 276.796 206.845 A 5.737 5.737 0 0 0 278.463 207.08 A 6.937 6.937 0 0 0 279.675 206.979 A 4.763 4.763 0 0 0 282.477 205.46 Q 283.442 204.385 283.766 202.752 Z M 312.64 202.752 A 9.228 9.228 0 0 0 312.804 200.957 A 10.485 10.485 0 0 0 312.8 200.673 Q 312.73 198.064 311.346 196.501 A 4.677 4.677 0 0 0 309.175 195.101 A 6.003 6.003 0 0 0 307.412 194.855 A 6.938 6.938 0 0 0 306.166 194.962 A 4.725 4.725 0 0 0 303.409 196.464 A 4.935 4.935 0 0 0 302.803 197.304 Q 301.967 198.761 301.967 200.957 A 8.937 8.937 0 0 0 302.079 202.404 A 6.609 6.609 0 0 0 302.634 204.207 A 5.872 5.872 0 0 0 302.764 204.461 A 4.836 4.836 0 0 0 304.528 206.337 A 4.974 4.974 0 0 0 305.67 206.845 A 5.737 5.737 0 0 0 307.337 207.08 A 6.937 6.937 0 0 0 308.548 206.979 A 4.763 4.763 0 0 0 311.351 205.46 Q 312.316 204.385 312.64 202.752 Z M 274.944 200.957 A 9.047 9.047 0 0 0 275.03 202.249 Q 275.125 202.905 275.325 203.436 A 3.748 3.748 0 0 0 275.848 204.4 Q 276.752 205.584 278.506 205.584 A 4.149 4.149 0 0 0 279.601 205.448 A 2.888 2.888 0 0 0 281.17 204.406 A 3.835 3.835 0 0 0 281.767 203.243 Q 282.079 202.287 282.079 200.957 A 8.914 8.914 0 0 0 281.995 199.686 Q 281.902 199.04 281.705 198.516 A 3.678 3.678 0 0 0 281.17 197.54 A 2.939 2.939 0 0 0 279.343 196.45 A 4.506 4.506 0 0 0 278.485 196.372 A 4.252 4.252 0 0 0 277.426 196.496 A 2.845 2.845 0 0 0 275.837 197.524 Q 275.194 198.352 275.014 199.767 A 9.44 9.44 0 0 0 274.944 200.957 Z M 303.818 200.957 A 9.047 9.047 0 0 0 303.904 202.249 Q 303.999 202.905 304.199 203.436 A 3.748 3.748 0 0 0 304.722 204.4 Q 305.626 205.584 307.38 205.584 A 4.149 4.149 0 0 0 308.475 205.448 A 2.888 2.888 0 0 0 310.044 204.406 A 3.835 3.835 0 0 0 310.641 203.243 Q 310.953 202.287 310.953 200.957 A 8.914 8.914 0 0 0 310.869 199.686 Q 310.775 199.04 310.579 198.516 A 3.678 3.678 0 0 0 310.044 197.54 A 2.939 2.939 0 0 0 308.217 196.45 A 4.506 4.506 0 0 0 307.359 196.372 A 4.252 4.252 0 0 0 306.3 196.496 A 2.845 2.845 0 0 0 304.711 197.524 Q 304.068 198.352 303.888 199.767 A 9.44 9.44 0 0 0 303.818 200.957 Z M 263.527 196.815 A 2.376 2.376 0 0 0 262.837 197.421 Q 262.128 198.343 262.042 200.374 A 13.764 13.764 0 0 0 262.03 200.957 A 11.812 11.812 0 0 0 262.089 202.177 Q 262.217 203.409 262.628 204.159 A 2.694 2.694 0 0 0 262.859 204.513 A 2.592 2.592 0 0 0 264.174 205.4 Q 264.613 205.538 265.149 205.573 A 5.744 5.744 0 0 0 265.517 205.584 A 3.561 3.561 0 0 0 266.528 205.449 A 2.569 2.569 0 0 0 267.971 204.384 Q 268.547 203.527 268.712 202.134 A 10.236 10.236 0 0 0 268.778 200.935 A 10.554 10.554 0 0 0 268.714 199.732 Q 268.551 198.314 267.971 197.502 A 2.605 2.605 0 0 0 266.312 196.452 A 4.132 4.132 0 0 0 265.474 196.372 Q 264.285 196.372 263.527 196.815 Z" id="bottom_labelLayer" stroke="#777777" fill="#777777" style="stroke:#777777;fill:#777777" vector-effect="non-scaling-stroke"/></g></svg>