<svg width="351.15mm" height="389.1mm" viewBox="0 0 351.15 389.1" xmlns="http://www.w3.org/2000/svg" version="1.1" preserveAspectRatio="xMidYMid meet"><g id="svgGroup" stroke-linecap="round" fill-rule="evenodd" font-size="9pt" stroke="#000" stroke-width="0.25mm" fill="none" style="stroke:#000;stroke-width:0.25mm;fill:none"><path d="M 17.55 389.085 L 17.55 386.1 L 32.5 386.1 L 32.5 389.085 L 32.515 389.1 L 47.535 389.1 L 47.55 389.085 L 47.55 386.1 L 62.5 386.1 L 62.5 389.085 L 62.515 389.1 L 77.535 389.1 L 77.55 389.085 L 77.55 386.1 L 92.5 386.1 L 92.5 389.085 L 92.515 389.1 L 110.035 389.1 L 110.05 389.085 L 110.05 375.065 L 110.035 375.05 L 107.05 375.05 L 107.05 360.1 L 110.035 360.1 L 110.05 360.085 L 110.05 345.065 L 110.035 345.05 L 107.05 345.05 L 107.05 330.1 L 110.035 330.1 L 110.05 330.085 L 110.05 315.065 L 110.035 315.05 L 107.05 315.05 L 107.05 300.1 L 110.035 300.1 L 110.05 300.085 L 110.05 285.065 L 110.035 285.05 L 107.05 285.05 L 107.05 270.1 L 110.035 270.1 L 110.05 270.085 L 110.05 255.065 L 110.035 255.05 L 107.05 255.05 L 107.05 240.1 L 110.035 240.1 L 110.05 240.085 L 110.05 225.065 L 110.035 225.05 L 107.05 225.05 L 107.05 210.1 L 110.035 210.1 L 110.05 210.085 L 110.05 196.065 L 110.035 196.05 L 92.515 196.05 L 92.5 196.065 L 92.5 199.05 L 77.55 199.05 L 77.55 196.065 L 77.535 196.05 L 62.515 196.05 L 62.5 196.065 L 62.5 199.05 L 47.55 199.05 L 47.55 196.065 L 47.535 196.05 L 32.515 196.05 L 32.5 196.065 L 32.5 199.05 L 17.55 199.05 L 17.55 196.065 L 17.535 196.05 L 0.015 196.05 L 0 196.065 L 0 210.085 L 0.015 210.1 L 3 210.1 L 3 225.05 L 0.015 225.05 L 0 225.065 L 0 240.085 L 0.015 240.1 L 3 240.1 L 3 255.05 L 0.015 255.05 L 0 255.065 L 0 270.085 L 0.015 270.1 L 3 270.1 L 3 285.05 L 0.015 285.05 L 0 285.065 L 0 300.085 L 0.015 300.1 L 3 300.1 L 3 315.05 L 0.015 315.05 L 0 315.065 L 0 330.085 L 0.015 330.1 L 3 330.1 L 3 345.05 L 0.015 345.05 L 0 345.065 L 0 360.085 L 0.015 360.1 L 3 360.1 L 3 375.05 L 0.015 375.05 L 0 375.065 L 0 389.085 L 0.015 389.1 L 17.535 389.1 L 17.55 389.085 Z" id="front_outsideCutPath" stroke="#FF0000" stroke-width="0.03" style="stroke:#FF0000;stroke-width:0.03" vector-effect="non-scaling-stroke"/><path d="M 71.065 300.888 L 69.281 300.888 L 69.281 293.268 Q 69.281 292.35 69.015 291.729 A 2.122 2.122 0 0 0 68.625 291.119 A 2.011 2.011 0 0 0 67.8 290.592 Q 67.477 290.478 67.078 290.435 A 4.73 4.73 0 0 0 66.573 290.409 A 5.399 5.399 0 0 0 65.562 290.497 Q 65 290.605 64.566 290.843 A 2.515 2.515 0 0 0 63.864 291.409 A 2.916 2.916 0 0 0 63.358 292.295 Q 63.052 293.108 63.011 294.321 A 11.429 11.429 0 0 0 63.005 294.708 L 63.005 300.888 L 61.221 300.888 L 61.221 289.109 L 62.672 289.109 L 62.962 290.721 L 63.048 290.721 A 3.612 3.612 0 0 1 64.463 289.433 A 4.344 4.344 0 0 1 64.585 289.372 A 4.831 4.831 0 0 1 66.304 288.914 A 5.841 5.841 0 0 1 66.788 288.894 Q 68.916 288.894 69.99 289.92 A 3.092 3.092 0 0 1 70.744 291.103 Q 70.924 291.59 71.003 292.194 A 7.785 7.785 0 0 1 71.065 293.203 L 71.065 300.888 Z M 36.793 289.109 L 36.793 290.495 L 33.794 290.495 L 33.794 300.888 L 32.01 300.888 L 32.01 290.495 L 29.904 290.495 L 29.904 289.689 L 32.01 289.044 L 32.01 288.389 A 7.23 7.23 0 0 1 32.179 286.75 Q 32.701 284.515 34.837 284.128 A 5.423 5.423 0 0 1 35.804 284.047 A 5.745 5.745 0 0 1 36.617 284.109 Q 37.012 284.166 37.452 284.274 A 11.549 11.549 0 0 1 37.996 284.423 L 37.534 285.852 A 8.663 8.663 0 0 0 36.86 285.663 Q 36.52 285.583 36.22 285.547 A 3.837 3.837 0 0 0 35.772 285.519 A 2.406 2.406 0 0 0 35.192 285.585 A 1.545 1.545 0 0 0 34.278 286.191 A 2.064 2.064 0 0 0 34.005 286.741 Q 33.824 287.279 33.798 288.077 A 8.423 8.423 0 0 0 33.794 288.346 L 33.794 289.109 L 36.793 289.109 Z M 80.146 299.415 L 80.146 300.78 A 1.755 1.755 0 0 1 79.938 300.863 Q 79.716 300.936 79.398 300.993 A 6.672 6.672 0 0 1 79.292 301.011 A 7.732 7.732 0 0 1 78.788 301.077 Q 78.55 301.099 78.337 301.102 A 4.573 4.573 0 0 1 78.276 301.103 A 4.66 4.66 0 0 1 76.903 300.918 Q 74.859 300.287 74.859 297.502 L 74.859 290.495 L 73.171 290.495 L 73.171 289.635 L 74.859 288.894 L 75.611 286.379 L 76.643 286.379 L 76.643 289.109 L 80.06 289.109 L 80.06 290.495 L 76.643 290.495 L 76.643 297.427 Q 76.643 298.491 77.148 299.061 Q 77.653 299.63 78.534 299.63 A 5.859 5.859 0 0 0 79.393 299.569 A 5.401 5.401 0 0 0 79.448 299.56 A 9.651 9.651 0 0 0 79.705 299.516 Q 79.951 299.47 80.122 299.422 A 2.679 2.679 0 0 0 80.146 299.415 Z M 45.723 289.023 L 45.476 290.678 Q 44.867 290.544 44.378 290.521 A 4.184 4.184 0 0 0 44.187 290.517 A 3.091 3.091 0 0 0 41.903 291.503 A 4.229 4.229 0 0 0 41.742 291.677 A 4.074 4.074 0 0 0 40.759 293.965 A 5.415 5.415 0 0 0 40.726 294.568 L 40.726 300.888 L 38.942 300.888 L 38.942 289.109 L 40.414 289.109 L 40.619 291.29 L 40.705 291.29 A 6.025 6.025 0 0 1 41.378 290.328 A 4.602 4.602 0 0 1 42.284 289.517 A 3.556 3.556 0 0 1 44.316 288.894 A 8.19 8.19 0 0 1 45.049 288.925 A 5.978 5.978 0 0 1 45.723 289.023 Z M 57.93 296.78 A 9.215 9.215 0 0 0 58.093 294.987 A 10.47 10.47 0 0 0 58.089 294.704 Q 58.063 293.724 57.851 292.891 A 5.555 5.555 0 0 0 56.637 290.538 A 4.67 4.67 0 0 0 54.469 289.14 A 5.995 5.995 0 0 0 52.709 288.894 A 6.929 6.929 0 0 0 51.464 289.001 A 4.719 4.719 0 0 0 48.711 290.501 A 4.929 4.929 0 0 0 48.106 291.34 Q 47.639 292.153 47.434 293.196 A 9.263 9.263 0 0 0 47.271 294.987 A 8.925 8.925 0 0 0 47.383 296.433 A 6.6 6.6 0 0 0 47.937 298.233 A 5.863 5.863 0 0 0 48.067 298.487 A 4.83 4.83 0 0 0 49.829 300.361 A 4.968 4.968 0 0 0 50.969 300.868 A 5.729 5.729 0 0 0 52.634 301.103 Q 55.192 301.103 56.642 299.485 A 4.977 4.977 0 0 0 57.235 298.671 Q 57.718 297.844 57.93 296.78 Z M 49.119 294.987 A 9.034 9.034 0 0 0 49.205 296.278 Q 49.398 297.609 50.022 298.427 Q 50.925 299.609 52.677 299.609 Q 54.429 299.609 55.337 298.432 Q 56.245 297.255 56.245 294.987 A 8.901 8.901 0 0 0 56.16 293.719 Q 56.067 293.073 55.871 292.55 A 3.673 3.673 0 0 0 55.337 291.575 A 2.935 2.935 0 0 0 53.512 290.487 A 4.5 4.5 0 0 0 52.655 290.409 A 4.246 4.246 0 0 0 51.598 290.533 A 2.841 2.841 0 0 0 50.011 291.559 A 3.689 3.689 0 0 0 49.438 292.667 Q 49.119 293.626 49.119 294.987 Z" id="front_labelLayer" stroke="#777777" fill="#777777" style="stroke:#777777;fill:#777777" vector-effect="non-scaling-stroke"/><path d="M 138.1 389.085 L 138.1 386.1 L 153.05 386.1 L 153.05 389.085 L 153.065 389.1 L 168.085 389.1 L 168.1 389.085 L 168.1 386.1 L 183.05 386.1 L 183.05 389.085 L 183.065 389.1 L 198.085 389.1 L 198.1 389.085 L 198.1 386.1 L 213.05 386.1 L 213.05 389.085 L 213.065 389.1 L 235.085 389.1 L 235.1 389.085 L 235.1 375.1 L 238.085 375.1 L 238.1 375.085 L 238.1 360.065 L 238.085 360.05 L 235.1 360.05 L 235.1 345.1 L 238.085 345.1 L 238.1 345.085 L 238.1 330.065 L 238.085 330.05 L 235.1 330.05 L 235.1 315.1 L 238.085 315.1 L 238.1 315.085 L 238.1 300.065 L 238.085 300.05 L 235.1 300.05 L 235.1 285.1 L 238.085 285.1 L 238.1 285.085 L 238.1 270.065 L 238.085 270.05 L 235.1 270.05 L 235.1 255.1 L 238.085 255.1 L 238.1 255.085 L 238.1 240.065 L 238.085 240.05 L 235.1 240.05 L 235.1 225.1 L 238.085 225.1 L 238.1 225.085 L 238.1 210.065 L 238.085 210.05 L 235.1 210.05 L 235.1 196.065 L 235.085 196.05 L 213.065 196.05 L 213.05 196.065 L 213.05 199.05 L 198.1 199.05 L 198.1 196.065 L 198.085 196.05 L 183.065 196.05 L 183.05 196.065 L 183.05 199.05 L 168.1 199.05 L 168.1 196.065 L 168.085 196.05 L 153.065 196.05 L 153.05 196.065 L 153.05 199.05 L 138.1 199.05 L 138.1 196.065 L 138.085 196.05 L 116.065 196.05 L 116.05 196.065 L 116.05 210.05 L 113.065 210.05 L 113.05 210.065 L 113.05 225.085 L 113.065 225.1 L 116.05 225.1 L 116.05 240.05 L 113.065 240.05 L 113.05 240.065 L 113.05 255.085 L 113.065 255.1 L 116.05 255.1 L 116.05 270.05 L 113.065 270.05 L 113.05 270.065 L 113.05 285.085 L 113.065 285.1 L 116.05 285.1 L 116.05 300.05 L 113.065 300.05 L 113.05 300.065 L 113.05 315.085 L 113.065 315.1 L 116.05 315.1 L 116.05 330.05 L 113.065 330.05 L 113.05 330.065 L 113.05 345.085 L 113.065 345.1 L 116.05 345.1 L 116.05 360.05 L 113.065 360.05 L 113.05 360.065 L 113.05 375.085 L 113.065 375.1 L 116.05 375.1 L 116.05 389.085 L 116.065 389.1 L 138.085 389.1 L 138.1 389.085 Z" id="left_outsideCutPath" stroke="#FF0000" stroke-width="0.03" style="stroke:#FF0000;stroke-width:0.03" vector-effect="non-scaling-stroke"/><path d="M 184.471 288.636 L 184.471 290.212 L 181.064 290.212 L 181.064 302.021 L 179.037 302.021 L 179.037 290.212 L 176.644 290.212 L 176.644 289.296 L 179.037 288.563 L 179.037 287.818 A 8.216 8.216 0 0 1 179.229 285.956 Q 179.946 282.885 183.348 282.885 A 6.528 6.528 0 0 1 184.272 282.955 Q 184.991 283.058 185.839 283.312 L 185.314 284.936 A 9.844 9.844 0 0 0 184.548 284.721 Q 184.162 284.63 183.821 284.589 A 4.36 4.36 0 0 0 183.311 284.558 A 2.734 2.734 0 0 0 182.652 284.632 A 1.756 1.756 0 0 0 181.614 285.321 Q 181.064 286.084 181.064 287.769 L 181.064 288.636 L 184.471 288.636 Z M 174.983 294.413 L 174.983 295.695 L 165.763 295.695 A 8.136 8.136 0 0 0 165.905 297.057 Q 166.052 297.799 166.345 298.385 A 3.806 3.806 0 0 0 166.953 299.273 A 3.684 3.684 0 0 0 168.887 300.363 A 5.581 5.581 0 0 0 170.135 300.494 A 10.707 10.707 0 0 0 174.144 299.7 A 12.269 12.269 0 0 0 174.409 299.59 L 174.409 301.398 A 12.17 12.17 0 0 1 173.3 301.817 A 9.307 9.307 0 0 1 172.375 302.063 A 8.51 8.51 0 0 1 171.531 302.194 Q 170.866 302.265 170.061 302.265 A 7.878 7.878 0 0 1 168.09 302.031 A 5.578 5.578 0 0 1 165.378 300.458 A 5.966 5.966 0 0 1 163.951 297.837 Q 163.662 296.756 163.662 295.438 Q 163.662 292.801 164.721 291.047 A 6.003 6.003 0 0 1 165.256 290.297 A 5.195 5.195 0 0 1 169.042 288.409 A 7.166 7.166 0 0 1 169.536 288.392 A 6.176 6.176 0 0 1 171.275 288.625 A 4.699 4.699 0 0 1 173.517 290.047 A 5.668 5.668 0 0 1 174.802 292.637 A 8.251 8.251 0 0 1 174.983 294.413 Z M 193.069 300.348 L 193.069 301.899 Q 192.739 302.057 192.098 302.161 Q 191.499 302.258 191.012 302.264 A 5.193 5.193 0 0 1 190.944 302.265 A 5.295 5.295 0 0 1 189.383 302.055 Q 187.668 301.526 187.219 299.662 A 6.372 6.372 0 0 1 187.06 298.174 L 187.06 290.212 L 185.143 290.212 L 185.143 289.235 L 187.06 288.392 L 187.915 285.535 L 189.087 285.535 L 189.087 288.636 L 192.971 288.636 L 192.971 290.212 L 189.087 290.212 L 189.087 298.088 A 4.082 4.082 0 0 0 189.146 298.805 Q 189.217 299.199 189.371 299.51 A 1.966 1.966 0 0 0 189.661 299.945 A 1.883 1.883 0 0 0 190.819 300.561 A 2.71 2.71 0 0 0 191.237 300.592 A 6.658 6.658 0 0 0 192.212 300.522 A 6.137 6.137 0 0 0 192.275 300.512 Q 192.753 300.437 193.041 300.355 A 3.042 3.042 0 0 0 193.069 300.348 Z M 160.109 283.019 L 160.109 302.021 L 158.081 302.021 L 158.081 283.019 L 160.109 283.019 Z M 165.812 294.046 L 172.809 294.046 A 6.908 6.908 0 0 0 172.726 292.936 Q 172.542 291.81 171.954 291.109 A 2.777 2.777 0 0 0 170.282 290.157 A 4.166 4.166 0 0 0 169.512 290.09 A 3.996 3.996 0 0 0 168.357 290.248 A 3.087 3.087 0 0 0 166.941 291.14 Q 165.983 292.19 165.812 294.046 Z" id="left_labelLayer" stroke="#777777" fill="#777777" style="stroke:#777777;fill:#777777" vector-effect="non-scaling-stroke"/><path d="M 273.65 389.085 L 273.65 386.1 L 288.6 386.1 L 288.6 389.085 L 288.615 389.1 L 303.635 389.1 L 303.65 389.085 L 303.65 386.1 L 318.6 386.1 L 318.6 389.085 L 318.615 389.1 L 333.635 389.1 L 333.65 389.085 L 333.65 386.1 L 348.135 386.1 L 348.15 386.085 L 348.15 364.1 L 351.135 364.1 L 351.15 364.085 L 351.15 349.065 L 351.135 349.05 L 348.15 349.05 L 348.15 334.1 L 351.135 334.1 L 351.15 334.085 L 351.15 319.065 L 351.135 319.05 L 348.15 319.05 L 348.15 304.1 L 351.135 304.1 L 351.15 304.085 L 351.15 289.065 L 351.135 289.05 L 348.15 289.05 L 348.15 267.065 L 348.135 267.05 L 333.65 267.05 L 333.65 264.065 L 333.635 264.05 L 318.615 264.05 L 318.6 264.065 L 318.6 267.05 L 303.65 267.05 L 303.65 264.065 L 303.635 264.05 L 288.615 264.05 L 288.6 264.065 L 288.6 267.05 L 273.65 267.05 L 273.65 264.065 L 273.635 264.05 L 258.615 264.05 L 258.6 264.065 L 258.6 267.05 L 244.115 267.05 L 244.1 267.065 L 244.1 289.05 L 241.115 289.05 L 241.1 289.065 L 241.1 304.085 L 241.115 304.1 L 244.1 304.1 L 244.1 319.05 L 241.115 319.05 L 241.1 319.065 L 241.1 334.085 L 241.115 334.1 L 244.1 334.1 L 244.1 349.05 L 241.115 349.05 L 241.1 349.065 L 241.1 364.085 L 241.115 364.1 L 244.1 364.1 L 244.1 386.085 L 244.115 386.1 L 258.6 386.1 L 258.6 389.085 L 258.615 389.1 L 273.635 389.1 L 273.65 389.085 Z" id="top_outsideCutPath" stroke="#FF0000" stroke-width="0.03" style="stroke:#FF0000;stroke-width:0.03" vector-effect="non-scaling-stroke"/><path d="M 304.035 329.67 L 303.906 329.67 A 16.883 16.883 0 0 1 304.017 330.918 A 14.148 14.148 0 0 1 304.035 331.626 L 304.035 336.473 L 302.251 336.473 L 302.251 319.407 L 303.702 319.407 L 303.949 321.019 L 304.035 321.019 A 4.802 4.802 0 0 1 304.729 320.23 A 3.713 3.713 0 0 1 305.636 319.622 A 4.468 4.468 0 0 1 306.917 319.247 A 5.783 5.783 0 0 1 307.732 319.192 A 5.468 5.468 0 0 1 309.277 319.398 A 4.042 4.042 0 0 1 311.348 320.793 Q 312.389 322.102 312.579 324.272 A 11.617 11.617 0 0 1 312.622 325.285 A 10.46 10.46 0 0 1 312.483 327.045 Q 312.198 328.713 311.327 329.794 Q 310.032 331.4 307.732 331.4 A 5.411 5.411 0 0 1 306.372 331.235 A 4.708 4.708 0 0 1 305.631 330.976 A 3.951 3.951 0 0 1 304.035 329.67 Z M 286.603 329.713 L 286.603 331.078 A 1.755 1.755 0 0 1 286.395 331.161 Q 286.173 331.234 285.855 331.291 A 6.672 6.672 0 0 1 285.749 331.309 A 7.732 7.732 0 0 1 285.244 331.375 Q 285.007 331.397 284.793 331.4 A 4.573 4.573 0 0 1 284.733 331.4 A 4.66 4.66 0 0 1 283.36 331.216 Q 281.315 330.585 281.315 327.8 L 281.315 320.793 L 279.628 320.793 L 279.628 319.933 L 281.315 319.192 L 282.068 316.677 L 283.099 316.677 L 283.099 319.407 L 286.517 319.407 L 286.517 320.793 L 283.099 320.793 L 283.099 327.725 Q 283.099 328.789 283.605 329.358 Q 284.11 329.928 284.991 329.928 A 5.859 5.859 0 0 0 285.849 329.867 A 5.401 5.401 0 0 0 285.904 329.858 A 9.651 9.651 0 0 0 286.162 329.814 Q 286.408 329.768 286.579 329.72 A 2.679 2.679 0 0 0 286.603 329.713 Z M 298.96 327.078 A 9.215 9.215 0 0 0 299.123 325.285 A 10.47 10.47 0 0 0 299.12 325.002 Q 299.093 324.021 298.881 323.189 A 5.555 5.555 0 0 0 297.667 320.836 A 4.67 4.67 0 0 0 295.499 319.438 A 5.995 5.995 0 0 0 293.739 319.192 A 6.929 6.929 0 0 0 292.494 319.299 A 4.719 4.719 0 0 0 289.741 320.798 A 4.929 4.929 0 0 0 289.136 321.638 Q 288.669 322.451 288.464 323.494 A 9.263 9.263 0 0 0 288.301 325.285 A 8.925 8.925 0 0 0 288.413 326.731 A 6.6 6.6 0 0 0 288.967 328.531 A 5.863 5.863 0 0 0 289.097 328.785 A 4.83 4.83 0 0 0 290.859 330.659 A 4.968 4.968 0 0 0 291.999 331.166 A 5.729 5.729 0 0 0 293.664 331.4 Q 296.222 331.4 297.672 329.783 A 4.977 4.977 0 0 0 298.265 328.969 Q 298.748 328.142 298.96 327.078 Z M 290.15 325.285 A 9.034 9.034 0 0 0 290.236 326.576 Q 290.428 327.907 291.052 328.724 Q 291.955 329.907 293.707 329.907 Q 295.459 329.907 296.367 328.73 Q 297.275 327.553 297.275 325.285 A 8.901 8.901 0 0 0 297.191 324.017 Q 297.097 323.371 296.901 322.848 A 3.673 3.673 0 0 0 296.367 321.873 A 2.935 2.935 0 0 0 294.542 320.785 A 4.5 4.5 0 0 0 293.685 320.707 A 4.246 4.246 0 0 0 292.628 320.831 A 2.841 2.841 0 0 0 291.042 321.857 A 3.689 3.689 0 0 0 290.468 322.965 Q 290.15 323.924 290.15 325.285 Z M 304.035 324.888 L 304.035 325.285 A 11.796 11.796 0 0 0 304.093 326.505 Q 304.221 327.735 304.632 328.483 A 2.691 2.691 0 0 0 304.862 328.837 A 2.588 2.588 0 0 0 306.175 329.723 Q 306.76 329.907 307.517 329.907 A 3.006 3.006 0 0 0 308.686 329.687 Q 309.407 329.386 309.908 328.671 Q 310.591 327.695 310.735 326.138 A 9.504 9.504 0 0 0 310.773 325.264 A 9.003 9.003 0 0 0 310.689 323.987 Q 310.503 322.693 309.908 321.884 A 2.775 2.775 0 0 0 307.878 320.728 A 3.838 3.838 0 0 0 307.474 320.707 A 5.14 5.14 0 0 0 306.514 320.791 Q 305.979 320.893 305.568 321.119 A 2.357 2.357 0 0 0 304.862 321.707 Q 304.056 322.706 304.035 324.888 Z" id="top_labelLayer" stroke="#777777" fill="#777777" style="stroke:#777777;fill:#777777" vector-effect="non-scaling-stroke"/><path d="M 17.55 193.035 L 17.55 190.05 L 32.5 190.05 L 32.5 193.035 L 32.515 193.05 L 47.535 193.05 L 47.55 193.035 L 47.55 190.05 L 62.5 190.05 L 62.5 193.035 L 62.515 193.05 L 77.535 193.05 L 77.55 193.035 L 77.55 190.05 L 92.5 190.05 L 92.5 193.035 L 92.515 193.05 L 110.035 193.05 L 110.05 193.035 L 110.05 179.015 L 110.035 179 L 107.05 179 L 107.05 164.05 L 110.035 164.05 L 110.05 164.035 L 110.05 149.015 L 110.035 149 L 107.05 149 L 107.05 134.05 L 110.035 134.05 L 110.05 134.035 L 110.05 119.015 L 110.035 119 L 107.05 119 L 107.05 104.05 L 110.035 104.05 L 110.05 104.035 L 110.05 89.015 L 110.035 89 L 107.05 89 L 107.05 74.05 L 110.035 74.05 L 110.05 74.035 L 110.05 59.015 L 110.035 59 L 107.05 59 L 107.05 44.05 L 110.035 44.05 L 110.05 44.035 L 110.05 29.015 L 110.035 29 L 107.05 29 L 107.05 14.05 L 110.035 14.05 L 110.05 14.035 L 110.05 0.015 L 110.035 0 L 92.515 0 L 92.5 0.015 L 92.5 3 L 77.55 3 L 77.55 0.015 L 77.535 0 L 62.515 0 L 62.5 0.015 L 62.5 3 L 47.55 3 L 47.55 0.015 L 47.535 0 L 32.515 0 L 32.5 0.015 L 32.5 3 L 17.55 3 L 17.55 0.015 L 17.535 0 L 0.015 0 L 0 0.015 L 0 14.035 L 0.015 14.05 L 3 14.05 L 3 29 L 0.015 29 L 0 29.015 L 0 44.035 L 0.015 44.05 L 3 44.05 L 3 59 L 0.015 59 L 0 59.015 L 0 74.035 L 0.015 74.05 L 3 74.05 L 3 89 L 0.015 89 L 0 89.015 L 0 104.035 L 0.015 104.05 L 3 104.05 L 3 119 L 0.015 119 L 0 119.015 L 0 134.035 L 0.015 134.05 L 3 134.05 L 3 149 L 0.015 149 L 0 149.015 L 0 164.035 L 0.015 164.05 L 3 164.05 L 3 179 L 0.015 179 L 0 179.015 L 0 193.035 L 0.015 193.05 L 17.535 193.05 L 17.55 193.035 Z" id="back_outsideCutPath" stroke="#FF0000" stroke-width="0.03" style="stroke:#FF0000;stroke-width:0.03" vector-effect="non-scaling-stroke"/><path d="M 70.092 98.75 L 70.178 98.75 A 10.561 10.561 0 0 1 70.44 98.396 Q 70.74 98.006 71.169 97.506 A 38.331 38.331 0 0 1 71.586 97.03 L 75.391 93 L 77.508 93 L 72.736 98.019 L 77.841 104.779 L 75.681 104.779 L 71.522 99.212 L 70.178 100.372 L 70.178 104.779 L 68.416 104.779 L 68.416 88.056 L 70.178 88.056 L 70.178 96.923 A 11.888 11.888 0 0 1 70.173 97.258 Q 70.157 97.823 70.092 98.75 Z M 33.993 103.263 L 33.864 103.263 L 33.488 104.779 L 32.209 104.779 L 32.209 88.056 L 33.993 88.056 L 33.993 92.119 Q 33.993 93.483 33.907 94.569 L 33.993 94.569 A 4.056 4.056 0 0 1 36.954 92.849 A 6.093 6.093 0 0 1 37.69 92.806 Q 40.011 92.806 41.296 94.392 A 5.257 5.257 0 0 1 42.217 96.167 Q 42.444 96.898 42.529 97.775 A 11.451 11.451 0 0 1 42.58 98.878 A 10.46 10.46 0 0 1 42.441 100.638 Q 42.156 102.306 41.285 103.387 Q 39.99 104.994 37.69 104.994 A 5.411 5.411 0 0 1 36.33 104.828 A 4.708 4.708 0 0 1 35.589 104.569 A 3.951 3.951 0 0 1 33.993 103.263 Z M 54.262 104.779 L 52.94 104.779 L 52.585 103.102 L 52.499 103.102 A 7.396 7.396 0 0 1 51.901 103.772 Q 51.579 104.088 51.258 104.309 A 3.287 3.287 0 0 1 50.742 104.601 A 4.114 4.114 0 0 1 49.893 104.869 Q 49.48 104.955 49.003 104.981 A 8.028 8.028 0 0 1 48.555 104.994 Q 47.154 104.994 46.237 104.416 A 3.072 3.072 0 0 1 45.809 104.091 A 2.932 2.932 0 0 1 44.925 102.544 A 4.489 4.489 0 0 1 44.815 101.522 Q 44.815 98.069 50.159 97.797 A 17.427 17.427 0 0 1 50.522 97.782 L 52.521 97.718 L 52.521 96.987 A 5.124 5.124 0 0 0 52.471 96.246 Q 52.416 95.867 52.298 95.563 A 1.991 1.991 0 0 0 51.924 94.94 Q 51.328 94.279 50.017 94.279 A 5.808 5.808 0 0 0 48.68 94.445 Q 48.067 94.591 47.399 94.862 A 11.948 11.948 0 0 0 46.685 95.181 L 46.137 93.817 A 8.226 8.226 0 0 1 47.725 93.164 A 9.363 9.363 0 0 1 48.045 93.075 Q 49.082 92.806 50.124 92.806 Q 52.231 92.806 53.246 93.741 Q 54.043 94.475 54.215 95.902 A 7.02 7.02 0 0 1 54.262 96.74 L 54.262 104.779 Z M 65.794 93.397 L 65.245 94.913 A 7.936 7.936 0 0 0 64.385 94.627 A 9.479 9.479 0 0 0 63.956 94.521 A 7.369 7.369 0 0 0 63.395 94.417 Q 63.122 94.378 62.879 94.368 A 3.955 3.955 0 0 0 62.72 94.365 Q 59.532 94.365 59.175 97.977 A 9.858 9.858 0 0 0 59.13 98.943 Q 59.13 100.368 59.508 101.357 A 3.7 3.7 0 0 0 60.006 102.275 A 2.833 2.833 0 0 0 61.842 103.371 A 4.316 4.316 0 0 0 62.602 103.435 A 7.468 7.468 0 0 0 64.662 103.136 A 9.221 9.221 0 0 0 65.622 102.801 L 65.622 104.381 Q 64.606 104.907 63.139 104.981 A 9.783 9.783 0 0 1 62.645 104.994 A 6.668 6.668 0 0 1 61.023 104.808 A 4.521 4.521 0 0 1 58.684 103.419 A 5.16 5.16 0 0 1 57.611 101.448 Q 57.374 100.666 57.308 99.725 A 10.787 10.787 0 0 1 57.282 98.964 Q 57.282 96.825 58.028 95.389 A 4.918 4.918 0 0 1 58.706 94.397 A 4.619 4.619 0 0 1 61.235 92.942 A 7.003 7.003 0 0 1 62.763 92.785 Q 63.612 92.785 64.461 92.968 A 8.905 8.905 0 0 1 64.956 93.088 Q 65.453 93.225 65.783 93.392 A 2.69 2.69 0 0 1 65.794 93.397 Z M 37.432 94.3 Q 35.605 94.3 34.799 95.348 Q 34.091 96.269 34.005 98.297 A 13.745 13.745 0 0 0 33.993 98.878 A 11.796 11.796 0 0 0 34.051 100.098 Q 34.18 101.328 34.59 102.076 A 2.691 2.691 0 0 0 34.821 102.43 A 2.588 2.588 0 0 0 36.133 103.316 Q 36.719 103.5 37.475 103.5 A 3.556 3.556 0 0 0 38.485 103.364 A 2.566 2.566 0 0 0 39.925 102.301 Q 40.731 101.103 40.731 98.857 Q 40.731 96.557 39.925 95.429 A 2.602 2.602 0 0 0 38.269 94.38 A 4.126 4.126 0 0 0 37.432 94.3 Z M 52.478 100.05 L 52.478 98.986 L 50.694 99.061 Q 48.566 99.136 47.626 99.722 A 1.904 1.904 0 0 0 46.718 101.103 A 2.818 2.818 0 0 0 46.685 101.544 A 2.55 2.55 0 0 0 46.748 102.129 Q 46.854 102.578 47.138 102.887 A 1.589 1.589 0 0 0 47.271 103.016 Q 47.777 103.452 48.631 103.512 A 4.012 4.012 0 0 0 48.91 103.521 A 4.912 4.912 0 0 0 49.971 103.413 Q 50.71 103.25 51.255 102.839 A 2.979 2.979 0 0 0 51.527 102.608 A 2.988 2.988 0 0 0 52.36 101.116 Q 52.476 100.636 52.478 100.068 A 5.645 5.645 0 0 0 52.478 100.05 Z" id="back_labelLayer" stroke="#777777" fill="#777777" style="stroke:#777777;fill:#777777" vector-effect="non-scaling-stroke"/><path d="M 138.1 193.035 L 138.1 190.05 L 153.05 190.05 L 153.05 193.035 L 153.065 193.05 L 168.085 193.05 L 168.1 193.035 L 168.1 190.05 L 183.05 190.05 L 183.05 193.035 L 183.065 193.05 L 198.085 193.05 L 198.1 193.035 L 198.1 190.05 L 213.05 190.05 L 213.05 193.035 L 213.065 193.05 L 235.085 193.05 L 235.1 193.035 L 235.1 179.05 L 238.085 179.05 L 238.1 179.035 L 238.1 164.015 L 238.085 164 L 235.1 164 L 235.1 149.05 L 238.085 149.05 L 238.1 149.035 L 238.1 134.015 L 238.085 134 L 235.1 134 L 235.1 119.05 L 238.085 119.05 L 238.1 119.035 L 238.1 104.015 L 238.085 104 L 235.1 104 L 235.1 89.05 L 238.085 89.05 L 238.1 89.035 L 238.1 74.015 L 238.085 74 L 235.1 74 L 235.1 59.05 L 238.085 59.05 L 238.1 59.035 L 238.1 44.015 L 238.085 44 L 235.1 44 L 235.1 29.05 L 238.085 29.05 L 238.1 29.035 L 238.1 14.015 L 238.085 14 L 235.1 14 L 235.1 0.015 L 235.085 0 L 213.065 0 L 213.05 0.015 L 213.05 3 L 198.1 3 L 198.1 0.015 L 198.085 0 L 183.065 0 L 183.05 0.015 L 183.05 3 L 168.1 3 L 168.1 0.015 L 168.085 0 L 153.065 0 L 153.05 0.015 L 153.05 3 L 138.1 3 L 138.1 0.015 L 138.085 0 L 116.065 0 L 116.05 0.015 L 116.05 14 L 113.065 14 L 113.05 14.015 L 113.05 29.035 L 113.065 29.05 L 116.05 29.05 L 116.05 44 L 113.065 44 L 113.05 44.015 L 113.05 59.035 L 113.065 59.05 L 116.05 59.05 L 116.05 74 L 113.065 74 L 113.05 74.015 L 113.05 89.035 L 113.065 89.05 L 116.05 89.05 L 116.05 104 L 113.065 104 L 113.05 104.015 L 113.05 119.035 L 113.065 119.05 L 116.05 119.05 L 116.05 134 L 113.065 134 L 113.05 134.015 L 113.05 149.035 L 113.065 149.05 L 116.05 149.05 L 116.05 164 L 113.065 164 L 113.05 164.015 L 113.05 179.035 L 113.065 179.05 L 116.05 179.05 L 116.05 193.035 L 116.065 193.05 L 138.085 193.05 L 138.1 193.035 Z" id="right_outsideCutPath" stroke="#FF0000" stroke-width="0.03" style="stroke:#FF0000;stroke-width:0.03" vector-effect="non-scaling-stroke"/><path d="M 191.127 103.022 L 189.1 103.022 L 189.1 94.363 A 5.73 5.73 0 0 0 189.034 93.465 Q 188.959 92.992 188.797 92.615 A 2.412 2.412 0 0 0 188.355 91.921 Q 187.61 91.115 186.022 91.115 Q 184.643 91.115 183.75 91.604 A 2.838 2.838 0 0 0 182.939 92.263 A 3.373 3.373 0 0 0 182.366 93.277 Q 182.021 94.207 181.975 95.587 A 13.084 13.084 0 0 0 181.968 96.024 L 181.968 103.022 L 179.941 103.022 L 179.941 84.02 L 181.968 84.02 L 181.968 89.772 Q 181.968 90.519 181.917 91.082 A 7.93 7.93 0 0 1 181.87 91.494 L 181.992 91.494 A 4.05 4.05 0 0 1 183.411 90.128 A 4.948 4.948 0 0 1 183.696 89.973 A 5.204 5.204 0 0 1 185.404 89.467 A 6.579 6.579 0 0 1 186.218 89.418 A 8.225 8.225 0 0 1 187.6 89.526 Q 188.334 89.651 188.916 89.922 A 3.654 3.654 0 0 1 189.9 90.584 Q 191.127 91.75 191.127 94.29 L 191.127 103.022 Z M 172.565 89.637 L 177.193 89.637 L 177.193 90.92 L 174.714 91.213 Q 175.056 91.64 175.325 92.33 Q 175.593 93.02 175.593 93.887 A 4.647 4.647 0 0 1 175.38 95.328 A 3.759 3.759 0 0 1 174.25 97.026 Q 173.04 98.082 171.017 98.186 A 8.805 8.805 0 0 1 170.562 98.198 A 6.515 6.515 0 0 1 169.808 98.156 A 5.502 5.502 0 0 1 169.439 98.1 A 3.607 3.607 0 0 0 168.857 98.476 Q 168.556 98.719 168.382 98.997 A 1.525 1.525 0 0 0 168.144 99.822 Q 168.144 100.372 168.596 100.634 A 1.422 1.422 0 0 0 168.911 100.764 Q 169.241 100.861 169.744 100.887 A 7.712 7.712 0 0 0 170.147 100.897 L 172.516 100.897 A 8.298 8.298 0 0 1 173.776 100.986 Q 175.054 101.183 175.856 101.813 A 2.966 2.966 0 0 1 176.958 103.702 A 4.454 4.454 0 0 1 177.022 104.475 A 4.389 4.389 0 0 1 176.771 105.993 Q 176.354 107.135 175.239 107.864 A 6.079 6.079 0 0 1 173.672 108.574 Q 172.174 109.03 170.037 109.03 A 11.358 11.358 0 0 1 168.513 108.935 Q 167.74 108.83 167.109 108.609 A 4.711 4.711 0 0 1 165.989 108.053 Q 164.566 107.076 164.566 105.293 A 3.1 3.1 0 0 1 165.348 103.18 A 3.54 3.54 0 0 1 166.563 102.294 A 5.017 5.017 0 0 1 167.546 101.971 A 2.104 2.104 0 0 1 166.729 101.311 A 2.498 2.498 0 0 1 166.685 101.251 A 1.879 1.879 0 0 1 166.34 100.235 A 2.328 2.328 0 0 1 166.337 100.115 A 2.318 2.318 0 0 1 166.454 99.369 A 2.054 2.054 0 0 1 166.727 98.833 A 2.902 2.902 0 0 1 167.111 98.401 Q 167.314 98.21 167.576 98.023 A 6.368 6.368 0 0 1 167.961 97.771 A 3.554 3.554 0 0 1 166.417 96.535 A 4.405 4.405 0 0 1 166.27 96.317 A 4.191 4.191 0 0 1 165.626 94.298 A 5.115 5.115 0 0 1 165.616 93.973 A 5.857 5.857 0 0 1 165.77 92.588 A 3.853 3.853 0 0 1 166.935 90.584 A 4.305 4.305 0 0 1 168.587 89.673 Q 169.244 89.472 170.034 89.415 A 8.953 8.953 0 0 1 170.672 89.393 A 7.77 7.77 0 0 1 171.7 89.458 A 5.918 5.918 0 0 1 172.565 89.637 Z M 201.446 101.349 L 201.446 102.9 Q 201.116 103.058 200.475 103.162 Q 199.877 103.259 199.39 103.265 A 5.193 5.193 0 0 1 199.321 103.266 A 5.295 5.295 0 0 1 197.761 103.056 Q 196.046 102.527 195.597 100.664 A 6.372 6.372 0 0 1 195.438 99.175 L 195.438 91.213 L 193.52 91.213 L 193.52 90.236 L 195.438 89.393 L 196.293 86.536 L 197.465 86.536 L 197.465 89.637 L 201.348 89.637 L 201.348 91.213 L 197.465 91.213 L 197.465 99.089 A 4.082 4.082 0 0 0 197.524 99.806 Q 197.594 100.2 197.748 100.511 A 1.966 1.966 0 0 0 198.039 100.946 A 1.883 1.883 0 0 0 199.197 101.562 A 2.71 2.71 0 0 0 199.614 101.593 A 6.658 6.658 0 0 0 200.589 101.523 A 6.137 6.137 0 0 0 200.652 101.513 Q 201.13 101.438 201.419 101.356 A 3.042 3.042 0 0 0 201.446 101.349 Z M 157.41 89.54 L 157.129 91.42 A 8.934 8.934 0 0 0 156.486 91.302 Q 156.041 91.237 155.663 91.237 A 3.512 3.512 0 0 0 153.068 92.358 A 4.805 4.805 0 0 0 152.885 92.556 A 4.629 4.629 0 0 0 151.768 95.155 A 6.153 6.153 0 0 0 151.731 95.841 L 151.731 103.022 L 149.704 103.022 L 149.704 89.637 L 151.377 89.637 L 151.609 92.116 L 151.707 92.116 A 6.846 6.846 0 0 1 152.472 91.023 A 5.229 5.229 0 0 1 153.502 90.101 Q 154.552 89.393 155.81 89.393 A 9.307 9.307 0 0 1 156.643 89.429 A 6.792 6.792 0 0 1 157.41 89.54 Z M 161.94 89.637 L 161.94 103.022 L 159.913 103.022 L 159.913 89.637 L 161.94 89.637 Z M 171.869 102.716 L 169.439 102.716 A 4.66 4.66 0 0 0 168.599 102.787 Q 168.122 102.875 167.745 103.07 A 2.374 2.374 0 0 0 167.289 103.376 A 2.136 2.136 0 0 0 166.588 104.587 A 3.244 3.244 0 0 0 166.52 105.269 Q 166.52 106.282 167.316 106.839 A 2.379 2.379 0 0 0 167.436 106.917 Q 168.352 107.479 170.061 107.479 Q 172.341 107.479 173.564 106.87 A 3.367 3.367 0 0 0 173.841 106.716 A 2.957 2.957 0 0 0 174.527 106.142 A 2.216 2.216 0 0 0 175.068 104.646 Q 175.068 103.972 174.81 103.554 A 1.278 1.278 0 0 0 174.397 103.138 A 1.923 1.923 0 0 0 173.941 102.939 Q 173.455 102.789 172.686 102.74 A 12.899 12.899 0 0 0 171.869 102.716 Z M 167.619 93.924 A 3.957 3.957 0 0 0 167.7 94.753 Q 167.811 95.268 168.071 95.654 A 2.169 2.169 0 0 0 168.413 96.049 A 2.62 2.62 0 0 0 169.467 96.621 Q 169.869 96.737 170.348 96.762 A 5.22 5.22 0 0 0 170.623 96.769 A 4.416 4.416 0 0 0 171.779 96.631 Q 173.102 96.271 173.459 94.973 A 4.106 4.106 0 0 0 173.591 93.887 Q 173.591 91.494 171.699 90.999 A 4.409 4.409 0 0 0 170.586 90.871 A 4.254 4.254 0 0 0 169.72 90.954 Q 169.188 91.064 168.784 91.323 A 2.333 2.333 0 0 0 168.388 91.64 Q 167.619 92.41 167.619 93.924 Z M 159.771 85.639 A 2.246 2.246 0 0 0 159.742 86.01 A 2.393 2.393 0 0 0 159.753 86.239 Q 159.772 86.444 159.829 86.611 A 1.047 1.047 0 0 0 160.084 87.03 A 1.137 1.137 0 0 0 160.496 87.292 A 1.288 1.288 0 0 0 160.939 87.366 A 1.183 1.183 0 0 0 161.782 87.03 A 0.989 0.989 0 0 0 161.975 86.774 Q 162.063 86.608 162.103 86.395 A 2.097 2.097 0 0 0 162.136 86.01 A 2.319 2.319 0 0 0 162.126 85.791 Q 162.107 85.591 162.051 85.427 A 1.024 1.024 0 0 0 161.782 84.997 A 1.194 1.194 0 0 0 160.939 84.667 A 1.547 1.547 0 0 0 160.837 84.67 A 1.172 1.172 0 0 0 160.084 84.991 Q 159.841 85.221 159.771 85.639 Z" id="right_labelLayer" stroke="#777777" fill="#777777" style="stroke:#777777;fill:#777777" vector-effect="non-scaling-stroke"/><path d="M 273.65 261.035 L 273.65 258.05 L 288.6 258.05 L 288.6 261.035 L 288.615 261.05 L 303.635 261.05 L 303.65 261.035 L 303.65 258.05 L 318.6 258.05 L 318.6 261.035 L 318.615 261.05 L 333.635 261.05 L 333.65 261.035 L 333.65 258.05 L 348.135 258.05 L 348.15 258.035 L 348.15 236.05 L 351.135 236.05 L 351.15 236.035 L 351.15 221.015 L 351.135 221 L 348.15 221 L 348.15 206.05 L 351.135 206.05 L 351.15 206.035 L 351.15 191.015 L 351.135 191 L 348.15 191 L 348.15 176.05 L 351.135 176.05 L 351.15 176.035 L 351.15 161.015 L 351.135 161 L 348.15 161 L 348.15 139.015 L 348.135 139 L 333.65 139 L 333.65 136.015 L 333.635 136 L 318.615 136 L 318.6 136.015 L 318.6 139 L 303.65 139 L 303.65 136.015 L 303.635 136 L 288.615 136 L 288.6 136.015 L 288.6 139 L 273.65 139 L 273.65 136.015 L 273.635 136 L 258.615 136 L 258.6 136.015 L 258.6 139 L 244.115 139 L 244.1 139.015 L 244.1 161 L 241.115 161 L 241.1 161.015 L 241.1 176.035 L 241.115 176.05 L 244.1 176.05 L 244.1 191 L 241.115 191 L 241.1 191.015 L 241.1 206.035 L 241.115 206.05 L 244.1 206.05 L 244.1 221 L 241.115 221 L 241.1 221.015 L 241.1 236.035 L 241.115 236.05 L 244.1 236.05 L 244.1 258.035 L 244.115 258.05 L 258.6 258.05 L 258.6 261.035 L 258.615 261.05 L 273.635 261.05 L 273.65 261.035 Z" id="bottom_outsideCutPath" stroke="#FF0000" stroke-width="0.03" style="stroke:#FF0000;stroke-width:0.03" vector-effect="non-scaling-stroke"/><path d="M 332.332 206.778 L 330.548 206.778 L 330.548 199.116 Q 330.548 198.234 330.312 197.628 A 2.156 2.156 0 0 0 329.946 197.004 Q 329.42 196.388 328.383 196.311 A 4.141 4.141 0 0 0 328.076 196.3 Q 326.908 196.3 326.168 196.77 A 2.363 2.363 0 0 0 325.615 197.257 Q 324.823 198.209 324.82 200.183 A 9.974 9.974 0 0 0 324.82 200.201 L 324.82 206.778 L 323.036 206.778 L 323.036 199.116 Q 323.036 198.234 322.799 197.628 A 2.156 2.156 0 0 0 322.434 197.004 A 1.871 1.871 0 0 0 321.573 196.445 Q 321.133 196.3 320.553 196.3 A 4.431 4.431 0 0 0 319.637 196.389 Q 318.645 196.598 318.097 197.305 A 2.992 2.992 0 0 0 317.654 198.148 Q 317.318 199.097 317.318 200.599 L 317.318 206.778 L 315.534 206.778 L 315.534 195 L 316.985 195 L 317.275 196.612 L 317.361 196.612 Q 317.866 195.752 318.785 195.268 Q 319.704 194.785 320.843 194.785 A 5.841 5.841 0 0 1 322.158 194.922 Q 322.967 195.109 323.531 195.551 A 3.046 3.046 0 0 1 324.454 196.784 L 324.54 196.784 A 3.725 3.725 0 0 1 325.943 195.391 A 4.475 4.475 0 0 1 326.066 195.322 A 4.515 4.515 0 0 1 327.723 194.818 A 5.63 5.63 0 0 1 328.345 194.785 Q 330.344 194.785 331.338 195.811 A 3.072 3.072 0 0 1 331.997 196.89 Q 332.332 197.785 332.332 199.094 L 332.332 206.778 Z M 261.702 205.263 L 261.573 205.263 L 261.197 206.778 L 259.918 206.778 L 259.918 190.056 L 261.702 190.056 L 261.702 194.118 Q 261.702 195.483 261.616 196.569 L 261.702 196.569 A 4.056 4.056 0 0 1 264.663 194.849 A 6.093 6.093 0 0 1 265.399 194.806 Q 267.72 194.806 269.005 196.391 A 5.257 5.257 0 0 1 269.927 198.167 Q 270.153 198.898 270.238 199.774 A 11.451 11.451 0 0 1 270.289 200.878 A 10.46 10.46 0 0 1 270.15 202.638 Q 269.865 204.306 268.994 205.387 Q 267.699 206.993 265.399 206.993 A 5.411 5.411 0 0 1 264.039 206.828 A 4.708 4.708 0 0 1 263.298 206.569 A 3.951 3.951 0 0 1 261.702 205.263 Z M 292.116 205.306 L 292.116 206.671 A 1.755 1.755 0 0 1 291.908 206.754 Q 291.686 206.827 291.368 206.884 A 6.672 6.672 0 0 1 291.262 206.902 A 7.732 7.732 0 0 1 290.758 206.968 Q 290.52 206.99 290.307 206.993 A 4.573 4.573 0 0 1 290.246 206.993 A 4.66 4.66 0 0 1 288.873 206.809 Q 286.829 206.178 286.829 203.393 L 286.829 196.386 L 285.141 196.386 L 285.141 195.526 L 286.829 194.785 L 287.581 192.27 L 288.613 192.27 L 288.613 195 L 292.03 195 L 292.03 196.386 L 288.613 196.386 L 288.613 203.318 Q 288.613 204.382 289.118 204.951 Q 289.623 205.521 290.504 205.521 A 5.859 5.859 0 0 0 291.363 205.46 A 5.401 5.401 0 0 0 291.418 205.451 A 9.651 9.651 0 0 0 291.675 205.407 Q 291.921 205.361 292.092 205.313 A 2.679 2.679 0 0 0 292.116 205.306 Z M 299.886 205.306 L 299.886 206.671 A 1.755 1.755 0 0 1 299.678 206.754 Q 299.456 206.827 299.139 206.884 A 6.672 6.672 0 0 1 299.032 206.902 A 7.732 7.732 0 0 1 298.528 206.968 Q 298.29 206.99 298.077 206.993 A 4.573 4.573 0 0 1 298.016 206.993 A 4.66 4.66 0 0 1 296.643 206.809 Q 294.599 206.178 294.599 203.393 L 294.599 196.386 L 292.912 196.386 L 292.912 195.526 L 294.599 194.785 L 295.351 192.27 L 296.383 192.27 L 296.383 195 L 299.8 195 L 299.8 196.386 L 296.383 196.386 L 296.383 203.318 Q 296.383 204.382 296.888 204.951 Q 297.393 205.521 298.274 205.521 A 5.859 5.859 0 0 0 299.133 205.46 A 5.401 5.401 0 0 0 299.188 205.451 A 9.651 9.651 0 0 0 299.445 205.407 Q 299.692 205.361 299.862 205.313 A 2.679 2.679 0 0 0 299.886 205.306 Z M 283.409 202.671 A 9.215 9.215 0 0 0 283.572 200.878 A 10.47 10.47 0 0 0 283.569 200.595 Q 283.542 199.614 283.33 198.782 A 5.555 5.555 0 0 0 282.116 196.429 A 4.67 4.67 0 0 0 279.948 195.031 A 5.995 5.995 0 0 0 278.188 194.785 A 6.929 6.929 0 0 0 276.944 194.892 A 4.719 4.719 0 0 0 274.19 196.391 A 4.929 4.929 0 0 0 273.585 197.231 Q 273.118 198.044 272.913 199.087 A 9.263 9.263 0 0 0 272.75 200.878 A 8.925 8.925 0 0 0 272.862 202.324 A 6.6 6.6 0 0 0 273.416 204.124 A 5.863 5.863 0 0 0 273.546 204.378 A 4.83 4.83 0 0 0 275.308 206.252 A 4.968 4.968 0 0 0 276.448 206.759 A 5.729 5.729 0 0 0 278.113 206.993 Q 280.671 206.993 282.122 205.376 A 4.977 4.977 0 0 0 282.714 204.562 Q 283.197 203.735 283.409 202.671 Z M 312.243 202.671 A 9.215 9.215 0 0 0 312.407 200.878 A 10.47 10.47 0 0 0 312.403 200.595 Q 312.376 199.614 312.164 198.782 A 5.555 5.555 0 0 0 310.951 196.429 A 4.67 4.67 0 0 0 308.782 195.031 A 5.995 5.995 0 0 0 307.022 194.785 A 6.929 6.929 0 0 0 305.778 194.892 A 4.719 4.719 0 0 0 303.025 196.391 A 4.929 4.929 0 0 0 302.419 197.231 Q 301.953 198.044 301.747 199.087 A 9.263 9.263 0 0 0 301.584 200.878 A 8.925 8.925 0 0 0 301.697 202.324 A 6.6 6.6 0 0 0 302.251 204.124 A 5.863 5.863 0 0 0 302.381 204.378 A 4.83 4.83 0 0 0 304.142 206.252 A 4.968 4.968 0 0 0 305.283 206.759 A 5.729 5.729 0 0 0 306.947 206.993 Q 309.505 206.993 310.956 205.376 A 4.977 4.977 0 0 0 311.548 204.562 Q 312.032 203.735 312.243 202.671 Z M 274.599 200.878 A 9.034 9.034 0 0 0 274.685 202.169 Q 274.877 203.5 275.501 204.317 Q 276.404 205.5 278.156 205.5 Q 279.908 205.5 280.816 204.323 Q 281.724 203.146 281.724 200.878 A 8.901 8.901 0 0 0 281.64 199.61 Q 281.546 198.964 281.35 198.441 A 3.673 3.673 0 0 0 280.816 197.466 A 2.935 2.935 0 0 0 278.991 196.378 A 4.5 4.5 0 0 0 278.134 196.3 A 4.246 4.246 0 0 0 277.077 196.424 A 2.841 2.841 0 0 0 275.491 197.45 A 3.689 3.689 0 0 0 274.917 198.558 Q 274.599 199.517 274.599 200.878 Z M 303.433 200.878 A 9.034 9.034 0 0 0 303.519 202.169 Q 303.712 203.5 304.336 204.317 Q 305.238 205.5 306.99 205.5 Q 308.742 205.5 309.65 204.323 Q 310.558 203.146 310.558 200.878 A 8.901 8.901 0 0 0 310.474 199.61 Q 310.381 198.964 310.185 198.441 A 3.673 3.673 0 0 0 309.65 197.466 A 2.935 2.935 0 0 0 307.826 196.378 A 4.5 4.5 0 0 0 306.969 196.3 A 4.246 4.246 0 0 0 305.912 196.424 A 2.841 2.841 0 0 0 304.325 197.45 A 3.689 3.689 0 0 0 303.752 198.558 Q 303.433 199.517 303.433 200.878 Z M 265.141 196.3 Q 263.314 196.3 262.508 197.348 Q 261.8 198.269 261.714 200.297 A 13.745 13.745 0 0 0 261.702 200.878 A 11.796 11.796 0 0 0 261.76 202.097 Q 261.889 203.328 262.299 204.076 A 2.691 2.691 0 0 0 262.53 204.43 A 2.588 2.588 0 0 0 263.843 205.316 Q 264.428 205.5 265.184 205.5 A 3.556 3.556 0 0 0 266.194 205.364 A 2.566 2.566 0 0 0 267.634 204.301 Q 268.44 203.103 268.44 200.857 Q 268.44 198.557 267.634 197.429 A 2.602 2.602 0 0 0 265.978 196.38 A 4.126 4.126 0 0 0 265.141 196.3 Z" id="bottom_labelLayer" stroke="#777777" fill="#777777" style="stroke:#777777;fill:#777777" vector-effect="non-scaling-stroke"/></g></svg>